<svg width="122" height="122" viewBox="0 0 122 122" fill="none" xmlns="http://www.w3.org/2000/svg">
<path fill-rule="evenodd" clip-rule="evenodd" d="M117.496 35.7992V85.3697C117.496 103.738 105.959 116.693 87.5235 116.693H34.7208C16.2856 116.693 4.80943 103.738 4.80943 85.3697V35.7992C4.80943 17.4308 16.3467 4.48169 34.7208 4.48169H87.5235C105.959 4.48169 117.496 17.4308 117.496 35.7992Z" stroke="white" stroke-width="8.9385" stroke-linecap="round" stroke-linejoin="round"/>
<path d="M20.2614 87.6953L29.595 77.8846C32.9585 74.3447 38.605 74.3265 41.999 77.8359L47.4014 83.3282C51.0457 87.0323 57.1073 86.7647 60.4098 82.7565L74.0164 66.2675C77.9232 61.5294 85.0897 61.2375 89.3688 65.6349L102.041 78.6631" stroke="white" stroke-width="8.9385" stroke-linecap="round" stroke-linejoin="round"/>
<path fill-rule="evenodd" clip-rule="evenodd" d="M50.9798 43.307C50.9798 49.1946 46.1818 53.9752 40.2727 53.9752C34.3637 53.9752 29.5718 49.1946 29.5718 43.307C29.5718 37.4193 34.3637 32.6387 40.2727 32.6387C46.1818 32.6387 50.9798 37.4193 50.9798 43.307Z" stroke="white" stroke-width="8.9385" stroke-linecap="round" stroke-linejoin="round"/>
</svg>
