<svg width="688" height="516" viewBox="0 0 688 516" fill="none" xmlns="http://www.w3.org/2000/svg">
<g filter="url(#filter0_f_471_1751)">
<circle cx="343.793" cy="265.507" r="211.505" fill="url(#paint0_linear_471_1751)" fill-opacity="0.2"/>
</g>
<path d="M450.474 281.819C444.293 288 437.529 293.753 431.064 299.723C428.949 301.678 426.831 303.625 424.396 305.047C421.104 306.972 417.299 307.863 413.456 307.863C410.747 307.863 408.021 307.42 405.448 306.589C404.745 306.363 403.379 305.794 401.752 304.999C399.31 303.806 396.259 302.098 393.842 300.251C392.633 299.329 391.583 298.371 390.85 297.442C390.484 296.978 390.196 296.522 390.004 296.086C389.811 295.65 389.713 295.237 389.713 294.85C389.715 294.432 389.822 294.041 390.071 293.649L390.071 293.648C390.604 292.808 391.421 292.143 392.366 291.69C393.309 291.237 394.376 290.999 395.381 290.999C395.461 290.999 395.538 291.001 395.612 291.004H395.617C397.126 291.061 398.589 291.477 400.06 292.006C401.53 292.534 403.005 293.174 404.536 293.653C406.275 294.198 408.121 294.516 409.956 294.516C411.966 294.516 413.966 294.133 415.788 293.238C417.818 292.24 419.472 290.701 421.07 289.216C426.54 284.128 432.088 278.962 436.291 272.71C438.25 269.797 439.884 266.644 441.019 263.308C442.192 259.86 442.545 256.496 442.652 252.923C442.652 252.905 442.662 252.82 442.674 252.724C442.685 252.625 442.698 252.509 442.698 252.385C442.697 252.299 442.693 252.21 442.668 252.108C442.642 252.01 442.594 251.883 442.467 251.775L442.469 251.777C442.406 251.723 442.334 251.688 442.267 251.669C442.2 251.649 442.139 251.643 442.082 251.643C441.974 251.644 441.881 251.663 441.788 251.69C441.616 251.741 441.44 251.822 441.245 251.925C440.906 252.105 440.516 252.354 440.106 252.635C439.494 253.056 438.841 253.546 438.301 253.962C438.031 254.17 437.789 254.359 437.595 254.51C437.401 254.661 437.253 254.777 437.181 254.83C435.504 256.066 433.875 257.367 432.299 258.73C429.147 261.456 426.206 264.426 423.515 267.609C423.273 267.894 423.033 268.183 422.794 268.473C419.892 272.005 416.877 275.984 413.501 279.061C411.813 280.599 410.037 281.911 408.148 282.835C406.257 283.759 404.256 284.297 402.094 284.298C401.804 284.298 401.51 284.288 401.214 284.269C400.106 284.196 399.007 283.944 398.209 283.31C397.737 282.935 397.393 282.45 397.164 281.892C396.935 281.334 396.824 280.705 396.824 280.063C396.824 279.325 396.97 278.571 397.241 277.896C397.99 276.015 399.517 274.491 401.013 272.948C407.489 266.253 413.101 258.726 417.669 250.608C420.397 245.758 422.77 240.697 426.292 236.509C430.653 231.321 436.295 227.876 442.372 225.066C448.448 222.255 454.954 220.083 461.009 217.422C467.596 214.526 473.065 210.887 478.032 206.585C482.998 202.283 487.463 197.32 492.057 191.769C498.176 184.373 503.72 176.538 509.252 168.72C522.762 149.626 536.272 130.534 549.781 111.44L549.11 110.967C535.601 130.061 522.091 149.152 508.582 168.244C503.049 176.065 497.517 183.883 491.424 191.246C486.844 196.78 482.408 201.708 477.494 205.965C472.579 210.221 467.187 213.809 460.678 216.67C454.671 219.312 448.16 221.485 442.028 224.32C435.896 227.156 430.137 230.66 425.664 235.981C422.051 240.281 419.664 245.393 416.954 250.205C412.42 258.261 406.849 265.733 400.422 272.377C398.941 273.913 397.32 275.497 396.478 277.591C396.169 278.365 396.003 279.216 396.003 280.063C396.003 280.799 396.129 281.532 396.404 282.204C396.679 282.874 397.106 283.484 397.7 283.954C398.706 284.746 399.973 285.007 401.159 285.088C401.474 285.109 401.785 285.119 402.094 285.119C404.394 285.12 406.526 284.542 408.508 283.573C411.483 282.117 414.124 279.786 416.569 277.165C419.014 274.544 421.262 271.63 423.429 268.994C423.665 268.707 423.902 268.422 424.142 268.139C426.805 264.989 429.716 262.049 432.836 259.351C434.397 258.003 436.009 256.714 437.668 255.49C437.813 255.383 438.115 255.145 438.513 254.835C439.109 254.373 439.91 253.762 440.627 253.273C440.985 253.029 441.324 252.815 441.596 252.668C441.731 252.595 441.851 252.539 441.941 252.505C441.985 252.488 442.023 252.476 442.048 252.471L442.077 252.465L442.083 252.464L442.082 252.452V252.464L442.083 252.464L442.082 252.452V252.464V252.298L442.035 252.456C442.061 252.464 442.077 252.464 442.082 252.464V252.298L442.035 252.456L442.111 252.2L441.938 252.403C441.972 252.432 442.01 252.449 442.035 252.456L442.111 252.2L441.938 252.403L441.941 252.405L442.094 252.221L441.882 252.335C441.892 252.352 441.909 252.379 441.941 252.405L442.094 252.221L441.882 252.335L442 252.272L441.872 252.312L441.882 252.335L442 252.272L441.872 252.312L441.899 252.303L441.872 252.31L441.872 252.312L441.899 252.303L441.872 252.31C441.872 252.312 441.877 252.342 441.877 252.385C441.877 252.45 441.869 252.539 441.858 252.628C441.848 252.719 441.835 252.802 441.831 252.898C441.725 256.434 441.377 259.704 440.241 263.044C439.133 266.301 437.533 269.39 435.61 272.252C431.478 278.4 425.982 283.528 420.511 288.615C418.914 290.101 417.312 291.576 415.426 292.501C413.736 293.331 411.863 293.695 409.956 293.695C408.216 293.695 406.45 293.392 404.781 292.87C403.305 292.408 401.841 291.774 400.338 291.233C398.834 290.693 397.288 290.246 395.648 290.184L395.633 290.594L395.654 290.184C395.559 290.18 395.468 290.178 395.381 290.178C394.248 290.179 393.07 290.442 392.01 290.95C390.952 291.457 390.01 292.212 389.378 293.208L389.378 293.207C389.048 293.723 388.891 294.284 388.892 294.85C388.893 295.552 389.126 296.25 389.513 296.933C390.192 298.128 391.347 299.3 392.735 300.426C394.817 302.111 397.432 303.682 399.775 304.916C400.947 305.533 402.051 306.065 402.986 306.483C403.922 306.902 404.685 307.206 405.195 307.371C407.848 308.227 410.658 308.684 413.456 308.684C417.425 308.684 421.374 307.765 424.811 305.757C427.348 304.272 429.505 302.28 431.621 300.327C438.07 294.372 444.842 288.612 451.055 282.4L450.474 281.82" fill="#3C3C3C"/>
<path d="M464.5 291.156C454.405 297.208 444.016 302.771 433.383 307.819C430.973 308.964 428.528 310.073 425.961 310.307C425.703 310.33 425.443 310.342 425.182 310.342C424.032 310.342 422.872 310.109 421.806 309.632C420.741 309.154 419.77 308.434 418.988 307.454L418.346 307.966C419.213 309.053 420.294 309.855 421.471 310.382C422.648 310.909 423.921 311.163 425.182 311.163C425.468 311.163 425.753 311.15 426.036 311.124C428.79 310.87 431.318 309.706 433.735 308.561C444.392 303.501 454.804 297.926 464.922 291.86L464.5 291.156" fill="#3C3C3C"/>
<path d="M499.159 241.82C493.68 253.039 485.579 269.5 480.1 280.722C478.714 283.561 477.329 286.395 475.728 289.093C473.773 292.392 471.413 295.542 468.195 297.472C466.482 298.501 464.551 299.168 462.596 299.779C455.671 301.944 448.352 303.266 441.124 304.06L441.213 304.876C448.48 304.078 455.849 302.748 462.841 300.563C464.811 299.946 466.805 299.264 468.618 298.176C472.023 296.13 474.449 292.858 476.435 289.512C478.058 286.775 479.451 283.921 480.838 281.082C486.316 269.863 494.418 253.402 499.895 242.18L499.159 241.82" fill="#3C3C3C"/>
<path d="M408.289 294.045C407.067 291.11 406.419 287.933 406.419 284.756C406.419 284.547 406.422 284.338 406.427 284.131L405.607 284.108C405.6 284.323 405.598 284.54 405.598 284.756C405.598 288.044 406.268 291.326 407.531 294.36L408.29 294.045" fill="#3C3C3C"/>
<path d="M420.81 288.526C419.41 288.454 418.009 288.383 416.609 288.311L416.567 289.131C417.967 289.203 419.368 289.274 420.768 289.346L420.81 288.527" fill="#3C3C3C"/>
<path d="M419.69 288.638C417.81 285.753 416.813 282.328 416.814 278.96C416.814 278.173 416.868 277.388 416.978 276.616L416.165 276.501C416.049 277.312 415.993 278.135 415.993 278.96C415.993 282.489 417.033 286.063 419.001 289.086L419.69 288.638" fill="#3C3C3C"/>
<path d="M423.399 268.502C423.607 268.532 423.81 268.599 424.018 268.719C424.31 268.887 424.563 269.172 424.776 269.503C425.255 270.244 425.557 271.132 425.737 272.108C425.917 273.083 425.975 274.143 425.974 275.217C425.975 276.927 425.83 278.666 425.829 280.176C425.829 280.284 425.83 280.391 425.832 280.498V280.497C425.849 281.639 425.946 282.606 426.145 283.541L426.949 283.37C426.762 282.495 426.67 281.588 426.653 280.484V280.482C426.651 280.382 426.65 280.28 426.65 280.176C426.65 278.718 426.795 276.971 426.796 275.217C426.795 274.114 426.738 273.007 426.545 271.959C426.351 270.911 426.021 269.918 425.466 269.058C425.211 268.665 424.885 268.274 424.43 268.009C424.134 267.837 423.824 267.733 423.515 267.689L423.399 268.502" fill="#3C3C3C"/>
<path d="M435.004 274.364C434.934 273.555 434.898 272.744 434.898 271.932C434.898 271.361 434.916 270.791 434.951 270.222C434.985 269.667 435.037 269.092 435.037 268.504C435.037 268.134 435.016 267.76 434.955 267.383C434.803 266.456 434.38 265.544 433.767 264.839C433.46 264.488 433.103 264.188 432.701 263.974C432.301 263.759 431.853 263.631 431.381 263.631C430.812 263.63 430.216 263.82 429.648 264.223L429.648 264.222C428.877 264.767 428.272 265.549 427.789 266.391C427.307 267.234 426.946 268.143 426.683 268.955C426.266 270.245 426.032 271.564 425.864 272.882L426.679 272.986C426.843 271.695 427.07 270.428 427.465 269.207C427.715 268.434 428.058 267.574 428.502 266.799C428.945 266.023 429.49 265.337 430.121 264.894L430.122 264.894C430.575 264.575 430.991 264.453 431.381 264.452C431.704 264.452 432.015 264.538 432.314 264.698C432.762 264.936 433.177 265.346 433.499 265.848C433.822 266.349 434.051 266.939 434.144 267.515C434.196 267.836 434.216 268.166 434.216 268.504C434.216 269.043 434.166 269.601 434.131 270.172C434.095 270.757 434.077 271.345 434.077 271.932C434.077 272.768 434.113 273.603 434.185 274.435L435.004 274.364" fill="#3C3C3C"/>
<path d="M499.791 242.316C507.779 235.658 515.787 229.021 523.813 222.406C530.558 216.846 537.314 211.303 544.076 205.765C547.709 202.79 551.341 199.817 554.974 196.842L554.454 196.206C550.821 199.181 547.189 202.155 543.556 205.129C536.794 210.668 530.035 216.212 523.29 221.772C515.264 228.388 507.257 235.026 499.266 241.684L499.791 242.316" fill="#3C3C3C"/>
<path d="M276.214 330.253C276.612 331.09 275.922 332.404 274.713 332.137C274.455 332.079 274.197 332.023 273.938 331.966C271.129 331.353 268.27 330.729 265.887 329.036C265.812 328.983 265.737 328.928 265.664 328.873C265.694 328.967 265.723 329.061 265.755 329.154C265.897 329.55 266.049 329.946 266.22 330.332C266.802 331.671 267.621 333.263 268.854 333.962C269.577 334.371 269.703 335.413 269.117 335.992C267.823 337.27 266.948 338.829 266.478 340.569C265.498 344.209 266.261 348.289 268.253 351.538C270.492 355.192 274.349 357.686 278.302 359.146C282.528 360.706 286.957 361.138 291.41 361.545C296.122 361.977 300.848 362.292 305.575 362.057C314.773 361.601 323.978 361.445 333.184 361.289C334.957 361.259 336.731 361.229 338.504 361.197C344.004 361.097 349.499 360.969 354.999 360.752C359.341 360.581 363.683 360.389 367.965 359.61C372.095 358.86 376.215 357.654 379.799 355.421C381.437 354.4 382.954 353.153 384.182 351.656C385.158 350.466 386.027 348.792 386.548 347.298C388.792 340.812 387.726 332.217 382.362 327.597C379.172 324.852 375.113 323.29 371.054 322.372C366.792 321.408 362.41 321.135 358.052 321.024C347.537 320.757 336.987 320.766 326.473 321.156C315.093 321.577 303.719 322.482 292.441 324.094C292.067 324.147 291.691 324.199 291.315 324.25C289.718 324.469 288.115 324.689 286.552 325.062C285.106 325.408 283.681 325.843 282.286 326.36C280.835 326.898 279.369 327.542 277.984 328.478C277.898 328.536 277.812 328.596 277.726 328.657C277.731 328.653 277.715 328.665 277.69 328.683C277.651 328.712 277.59 328.756 277.554 328.782C277.539 328.794 277.523 328.807 277.506 328.82C277.454 328.862 277.399 328.906 277.407 328.9C277.347 328.95 277.286 329.001 277.225 329.052C276.988 329.263 276.77 329.49 276.553 329.725C276.534 329.75 276.513 329.775 276.492 329.801C276.443 329.867 276.4 329.934 276.356 330.002C276.321 330.056 276.291 330.113 276.26 330.17C276.245 330.198 276.23 330.226 276.214 330.253Z" fill="#F2D6B3"/>
<path d="M281.595 324.511C281.615 324.373 281.65 324.24 281.686 324.105C281.711 324.029 281.741 323.956 281.767 323.883C281.746 323.936 281.635 324.111 281.756 323.93C281.827 323.821 281.883 323.698 281.954 323.587C281.999 323.516 282.045 323.447 282.095 323.377C282.151 323.303 282.136 323.321 282.05 323.432C282.085 323.39 282.12 323.35 282.151 323.31C282.368 323.075 282.586 322.848 282.823 322.637C282.884 322.586 282.944 322.535 283.005 322.485C282.985 322.498 283.293 322.256 283.157 322.361C283.015 322.468 283.344 322.227 283.324 322.242C283.409 322.181 283.495 322.121 283.581 322.062C284.966 321.127 286.432 320.483 287.883 319.944C289.278 319.428 290.704 318.993 292.15 318.647C294.081 318.186 296.073 317.959 298.039 317.679C309.317 316.067 320.691 315.162 332.07 314.741C342.585 314.351 353.135 314.342 363.65 314.609C368.007 314.72 372.39 314.993 376.651 315.957C380.711 316.874 384.77 318.437 387.96 321.182C393.323 325.802 394.39 334.397 392.145 340.883C391.625 342.377 390.755 344.051 389.78 345.241C388.551 346.738 387.035 347.985 385.397 349.005C381.813 351.239 377.693 352.445 373.563 353.195C369.281 353.974 364.939 354.166 360.596 354.337C355.096 354.553 349.601 354.682 344.101 354.782C333.122 354.981 322.142 355.098 311.172 355.642C306.446 355.877 301.719 355.561 297.008 355.13C292.554 354.723 288.126 354.29 283.9 352.73C279.947 351.271 276.09 348.776 273.85 345.123C271.859 341.874 271.095 337.794 272.076 334.153C272.546 332.413 273.421 330.855 274.715 329.577C275.301 328.998 275.175 327.956 274.452 327.547C273.218 326.848 272.399 325.256 271.818 323.917C271.646 323.531 271.495 323.135 271.353 322.738C271.267 322.49 271.196 322.229 271.1 321.985C270.999 321.728 271.115 321.875 271.019 321.921C271.024 321.92 270.756 322.13 270.923 322.04C271.12 321.932 270.726 322.129 270.751 322.056C270.726 322.059 270.706 322.05 270.701 322.029C270.787 322.096 270.873 322.164 270.964 322.231C271.136 322.364 271.307 322.495 271.484 322.621C274.088 324.47 277.257 325.044 280.311 325.721C281.933 326.081 282.621 323.589 280.998 323.229C278.203 322.608 275.392 322.147 273.051 320.569C272.379 320.116 271.818 319.545 270.964 319.489C270.12 319.434 269.28 319.86 268.82 320.572C268.29 321.403 268.461 322.267 268.765 323.143C269.058 324.003 269.397 324.85 269.791 325.672C270.544 327.257 271.586 328.893 273.148 329.779C273.062 329.103 272.976 328.425 272.89 327.749C269.806 330.79 268.664 335.242 269.21 339.466C269.796 343.984 272.056 348.007 275.559 350.913C279.249 353.972 283.814 355.768 288.485 356.678C290.825 357.134 293.201 357.349 295.572 357.579C298.019 357.817 300.46 358.025 302.917 358.164C308.22 358.464 313.488 358.092 318.785 357.908C324.427 357.713 330.063 357.603 335.705 357.509C341.265 357.415 346.831 357.333 352.397 357.188C357.619 357.051 362.876 356.973 368.083 356.506C372.511 356.108 376.97 355.39 381.161 353.869C385.195 352.405 389.198 350.168 391.878 346.732C396.715 340.523 396.973 331.096 393.495 324.198C389.411 316.095 379.583 313.386 371.242 312.486C366.743 312 362.214 311.983 357.7 311.945C352.073 311.897 346.447 311.835 340.821 311.925C328.921 312.116 317.021 312.79 305.197 314.168C302.225 314.514 299.257 314.904 296.295 315.339C294.506 315.601 292.711 315.832 290.957 316.28C287.716 317.108 284.269 318.269 281.59 320.331C280.457 321.203 279.35 322.359 279.102 323.824C278.986 324.511 279.284 325.216 280.002 325.414C280.624 325.585 281.473 325.203 281.595 324.511Z" fill="#211D1D"/>
<path d="M101.822 339.994C100.032 347.685 99.9688 355.735 101.591 363.461C102.174 366.194 102.952 368.884 103.928 371.503C105.864 376.704 108.722 381.83 112.126 386.217C115.621 390.719 119.821 394.718 124.478 397.914C129.267 401.2 134.483 403.676 140.049 405.258C146.034 406.959 152.216 407.573 158.438 407.145C164.888 406.702 171.276 405.105 177.227 402.587C183.234 400.046 188.872 396.553 193.821 392.306C196.332 390.152 198.678 387.806 200.826 385.291C201.524 384.473 202.179 383.625 202.834 382.777C203.184 382.324 203.533 381.871 203.89 381.423C204.433 380.739 205.098 380.082 205.915 379.74C206.483 379.503 207.116 379.493 207.721 379.552C209.147 379.691 210.545 380.042 211.934 380.39C212.163 380.448 212.392 380.505 212.621 380.562C212.753 380.594 212.91 380.62 213.074 380.648C213.24 380.675 213.413 380.704 213.576 380.742C213.535 380.71 213.495 380.678 213.455 380.646C212.138 379.578 210.864 378.436 209.736 377.167C208.848 376.168 207.825 374.959 207.551 373.608C207.378 372.755 207.556 371.867 207.727 371.027C207.918 370.082 208.207 369.159 208.531 368.251C208.757 367.618 208.996 366.99 209.235 366.363C209.631 365.325 210.027 364.287 210.36 363.226C211.282 360.285 211.859 357.27 212.069 354.22C212.489 348.097 211.531 342.043 209.503 336.259C207.496 330.538 204.434 325.143 200.635 320.421C196.828 315.689 192.285 311.533 187.14 308.295C182.779 305.551 178.338 303.574 173.445 302.128C171.011 301.411 168.532 300.853 166.027 300.45C165.688 300.396 165.35 300.343 165.011 300.294C164.875 300.275 164.74 300.255 164.604 300.238C164.775 300.26 164.398 300.212 164.336 300.204C163.702 300.124 163.067 300.053 162.43 299.991C161.181 299.875 159.928 299.793 158.673 299.75C156.144 299.662 153.61 299.727 151.088 299.943C150.453 300 149.818 300.062 149.185 300.136C148.485 300.218 148.182 300.258 147.565 300.348C146.306 300.532 145.052 300.756 143.806 301.017C141.342 301.533 138.909 302.196 136.525 303.001C134.103 303.823 132.075 304.65 129.82 305.742C125.344 307.911 121.154 310.638 117.528 313.811C113.721 317.14 110.551 320.832 107.936 325.052C105.033 329.738 103.076 334.61 101.822 339.994Z" fill="#F2D6B3"/>
<path d="M104.179 354.434C102.557 346.708 102.62 338.658 104.411 330.966C105.664 325.583 107.621 320.711 110.525 316.025C113.14 311.805 116.31 308.113 120.116 304.784C123.742 301.611 127.933 298.884 132.408 296.715C134.663 295.623 136.691 294.796 139.114 293.974C141.498 293.169 143.931 292.506 146.394 291.99C147.64 291.729 148.894 291.505 150.154 291.321C150.77 291.23 151.074 291.191 151.773 291.109C152.407 291.035 153.041 290.973 153.677 290.916C156.198 290.7 158.733 290.635 161.262 290.723C162.516 290.766 163.769 290.848 165.019 290.964C165.655 291.026 166.291 291.097 166.925 291.177C166.986 291.185 167.363 291.233 167.192 291.211C167.328 291.228 167.464 291.247 167.599 291.267C167.938 291.316 168.277 291.369 168.615 291.423C171.12 291.826 173.6 292.384 176.033 293.101C180.926 294.547 185.368 296.524 189.729 299.268C194.874 302.506 199.416 306.662 203.223 311.394C207.022 316.116 210.085 321.511 212.091 327.232C214.12 333.016 215.078 339.07 214.657 345.193C214.447 348.243 213.871 351.258 212.948 354.199C212.414 355.902 211.718 357.544 211.119 359.224C210.796 360.131 210.507 361.055 210.315 362C210.145 362.84 209.967 363.728 210.14 364.581C210.413 365.932 211.437 367.141 212.325 368.14C213.452 369.409 214.726 370.551 216.043 371.619C216.202 371.748 216.369 371.869 216.522 372.005C216.521 372.005 216.661 372.135 216.556 372.006C216.562 372.013 216.469 371.813 216.549 371.947C216.591 372.018 216.569 371.969 216.566 371.886C216.573 372.096 216.509 371.963 216.576 371.896C216.494 371.977 216.489 371.983 216.577 371.909C216.655 371.843 216.666 371.787 216.566 371.916C216.623 371.842 216.703 371.934 216.601 371.893C216.443 371.829 216.851 372.001 216.62 371.874C216.254 371.673 215.616 371.635 215.209 371.535C213.594 371.136 211.97 370.686 210.309 370.525C209.704 370.466 209.071 370.476 208.504 370.713C207.686 371.055 207.022 371.712 206.478 372.396C205.453 373.685 204.485 375.01 203.415 376.264C201.267 378.779 198.92 381.125 196.41 383.279C191.46 387.526 185.823 391.019 179.815 393.56C173.864 396.078 167.476 397.675 161.026 398.118C154.805 398.546 148.623 397.932 142.637 396.231C137.072 394.649 131.856 392.172 127.066 388.887C122.409 385.691 118.209 381.692 114.715 377.189C111.31 372.802 108.452 367.677 106.516 362.476C105.541 359.857 104.762 357.167 104.179 354.434C104.034 353.751 103.234 353.354 102.589 353.531C101.882 353.725 101.54 354.436 101.686 355.121C102.926 360.93 105.07 366.552 107.994 371.722C110.911 376.878 114.624 381.612 118.952 385.657C123.294 389.715 128.267 393.119 133.657 395.624C139.305 398.249 145.328 399.901 151.522 400.542C158.212 401.235 165.018 400.669 171.538 399.04C178.098 397.402 184.406 394.673 190.133 391.082C195.877 387.481 201.099 383.002 205.474 377.819C206.574 376.517 207.522 375.067 208.66 373.802C208.894 373.542 209.139 373.321 209.428 373.128C209.842 372.853 209.22 373.201 209.539 373.082C209.698 373.023 209.289 373.092 209.476 373.088C209.547 373.087 209.619 373.08 209.69 373.079C210.398 373.068 210.849 373.177 211.584 373.331C212.442 373.51 213.292 373.723 214.142 373.934C214.966 374.137 215.908 374.504 216.764 374.464C218.572 374.379 219.725 372.311 218.801 370.736C218.383 370.024 217.556 369.543 216.94 369.012C216.275 368.44 215.628 367.845 215.009 367.222C214.474 366.683 213.901 366.072 213.477 365.496C213.292 365.246 213.119 364.986 212.964 364.716C212.89 364.587 212.819 364.454 212.755 364.319C212.849 364.518 212.709 364.172 212.681 364.094C212.664 364.045 212.66 363.992 212.643 363.943C212.585 363.769 212.638 364.171 212.647 363.998C212.652 363.888 212.648 363.78 212.656 363.669C212.692 363.203 212.79 362.74 212.895 362.285C213.113 361.344 213.421 360.426 213.754 359.52C214.381 357.814 215.07 356.137 215.592 354.394C217.443 348.215 217.753 341.69 216.787 335.33C215.83 329.027 213.564 322.932 210.414 317.402C207.262 311.868 203.18 306.822 198.416 302.595C194.116 298.778 189.258 295.623 184 293.294C179.202 291.171 174.15 289.68 168.964 288.875C163.773 288.07 158.501 287.886 153.268 288.368C148.087 288.844 142.96 289.913 138.041 291.613C133.152 293.305 128.451 295.584 124.149 298.464C119.883 301.319 115.981 304.738 112.681 308.675C109.252 312.765 106.494 317.332 104.463 322.267C101.722 328.927 100.4 336.209 100.425 343.401C100.439 347.337 100.878 351.271 101.686 355.121C101.83 355.805 102.633 356.201 103.276 356.024C103.985 355.829 104.323 355.119 104.179 354.434Z" fill="#211D1D"/>
<path d="M314.8 403.548C314.518 402.268 313.76 400.834 313.148 400.124C313.021 399.978 312.89 399.836 312.758 399.697C312.516 399.447 312.258 399.216 311.995 398.99C311.954 398.955 311.686 398.744 311.888 398.901C311.85 398.868 311.806 398.835 311.761 398.803C311.741 398.789 311.721 398.775 311.701 398.761C311.575 398.671 311.448 398.58 311.322 398.493C311.023 398.295 310.715 398.11 310.406 397.938C309.101 397.218 307.867 396.794 306.284 396.399C305.474 396.197 304.655 396.034 303.83 395.899C302.981 395.761 302.515 395.703 301.589 395.609C299.976 395.447 298.352 395.361 296.733 395.303C294.158 395.212 291.583 395.114 289.009 395.016C281.755 394.739 274.5 394.462 267.243 394.345C256.286 394.169 245.329 394.222 234.373 394.411C225.859 394.557 216.289 395.048 209.257 400.464C203.324 405.034 201.837 413.612 204.214 420.454C205.438 423.966 207.877 426.738 211.043 428.827C214.564 431.154 218.57 432.647 222.647 433.684C226.643 434.702 230.574 435.195 234.686 435.374C240.342 435.623 246.002 435.779 251.668 435.828C263.201 435.924 274.744 435.564 286.247 434.614C292.009 434.138 297.76 433.523 303.491 432.732C303.709 432.702 303.927 432.672 304.146 432.642C306.376 432.337 308.601 432.032 310.73 431.25C312.662 430.539 314.514 429.473 316.087 428.141C317.756 426.726 319.157 425.043 320.205 423.118C320.619 422.359 320.882 421.766 321.14 421.069C321.439 420.255 321.682 419.419 321.859 418.572C322.167 417.067 322.238 415.391 321.778 413.918C321.747 413.814 321.712 413.713 321.677 413.611C321.671 413.593 321.653 413.547 321.636 413.506C321.609 413.436 321.587 413.38 321.641 413.502C321.575 413.345 321.494 413.192 321.414 413.041C321.361 412.944 321.307 412.849 321.248 412.756C321.194 412.667 321.136 412.581 321.075 412.495C321.07 412.484 321.034 412.435 321.014 412.407C321.011 412.403 321.008 412.4 321.006 412.397C320.979 412.364 320.951 412.331 320.923 412.299C320.908 412.281 320.892 412.264 320.877 412.246C320.296 411.582 319.729 411.218 318.854 410.84C317.948 410.447 318.08 409.041 318.854 408.608C320.043 407.946 321.166 406.654 322.132 405.49C322.719 404.775 323.27 404.03 323.791 403.264C323.797 403.255 323.804 403.245 323.81 403.236C323.744 403.272 323.676 403.307 323.609 403.342C322.891 403.716 322.132 404.025 321.363 404.282C319.991 404.739 318.575 405.046 317.164 405.351C316.854 405.418 316.543 405.486 316.234 405.554C314.963 405.836 314.266 404.372 314.8 403.548Z" fill="#F2D6B3"/>
<path d="M323.484 398.098C322.943 394.73 320.899 391.956 317.96 390.264C314.971 388.542 311.486 387.888 308.096 387.514C304.889 387.16 301.667 387.144 298.45 387.034C292.835 386.842 287.22 386.534 281.605 386.381C269.622 386.054 257.654 386.095 245.665 386.211C236.514 386.3 226.812 386.106 218.334 390.069C214.454 391.883 211.015 394.632 209.001 398.466C207.099 402.079 206.331 406.293 206.685 410.349C207.039 414.43 208.45 418.415 211.146 421.547C213.994 424.86 218 427.068 222.002 428.678C226.134 430.342 230.505 431.345 234.916 431.926C239.974 432.595 245.139 432.601 250.233 432.728C262.075 433.02 273.927 432.867 285.753 432.119C291.768 431.736 297.772 431.198 303.761 430.492C306.822 430.132 309.877 429.727 312.922 429.279C315.3 428.93 317.556 428.281 319.716 427.216C323.737 425.229 327.172 421.856 329.033 417.754C330.521 414.472 331.482 410.37 330.03 406.91C329.296 405.166 327.941 403.802 326.201 403.049C326.201 403.793 326.201 404.537 326.201 405.281C327.455 404.584 328.502 403.484 329.438 402.418C330.642 401.044 331.745 399.562 332.716 398.013C333.237 397.184 333.581 396.271 333.045 395.344C332.574 394.524 331.583 394.042 330.647 394.263C329.924 394.435 329.322 395.011 328.679 395.372C328.077 395.707 327.597 395.92 327.005 396.13C325.25 396.753 323.398 397.1 321.587 397.502C319.964 397.862 320.652 400.355 322.275 399.995C323.99 399.614 325.73 399.28 327.405 398.722C328.173 398.466 328.932 398.156 329.651 397.783C329.969 397.619 330.278 397.441 330.571 397.249C330.733 397.146 330.976 397.036 331.102 396.894C331.34 396.629 331.198 396.884 331.087 396.791C330.961 396.686 330.814 396.701 330.758 396.521C330.718 396.403 330.728 396.3 330.789 396.213C330.723 396.323 330.652 396.433 330.586 396.542C330.344 396.936 330.091 397.323 329.833 397.705C329.312 398.471 328.76 399.216 328.173 399.93C327.207 401.095 326.084 402.386 324.896 403.049C324.122 403.482 323.99 404.888 324.896 405.281C325.771 405.659 326.337 406.022 326.919 406.687C326.975 406.752 327.035 406.818 327.086 406.886C326.975 406.741 327.106 406.914 327.116 406.936C327.243 407.112 327.354 407.294 327.455 407.482C327.536 407.632 327.617 407.786 327.683 407.942C327.597 407.749 327.703 408.004 327.718 408.052C327.754 408.154 327.789 408.255 327.819 408.358C328.28 409.832 328.209 411.508 327.9 413.012C327.723 413.86 327.48 414.696 327.182 415.51C326.924 416.207 326.661 416.799 326.246 417.559C325.199 419.483 323.798 421.167 322.129 422.582C320.555 423.913 318.704 424.979 316.772 425.69C314.435 426.549 311.981 426.833 309.533 427.173C303.802 427.964 298.05 428.579 292.289 429.055C280.786 430.004 269.242 430.365 257.709 430.268C252.044 430.22 246.383 430.064 240.728 429.815C236.616 429.636 232.685 429.143 228.689 428.125C224.612 427.088 220.605 425.594 217.085 423.267C213.918 421.178 211.48 418.406 210.256 414.895C207.878 408.053 209.366 399.475 215.299 394.904C222.33 389.489 231.901 388.998 240.414 388.852C251.371 388.663 262.328 388.61 273.284 388.786C283.118 388.944 292.946 389.396 302.775 389.744C304.394 389.801 306.017 389.887 307.631 390.05C308.557 390.143 309.022 390.201 309.872 390.34C310.697 390.475 311.516 390.637 312.325 390.839C313.909 391.235 315.143 391.658 316.448 392.379C316.757 392.551 317.065 392.736 317.364 392.933C317.49 393.02 317.616 393.112 317.743 393.202C317.809 393.248 317.874 393.295 317.93 393.342C317.728 393.184 317.996 393.395 318.036 393.43C318.299 393.657 318.557 393.888 318.8 394.138C318.932 394.276 319.063 394.419 319.19 394.565C319.24 394.624 319.286 394.683 319.336 394.743C319.574 395.036 319.195 394.541 319.417 394.849C320.343 396.132 320.738 397.191 320.99 398.785C321.102 399.475 321.962 399.858 322.579 399.688C323.317 399.486 323.591 398.79 323.484 398.098Z" fill="#211D1D"/>
<path d="M251.487 225.942C237.383 229.181 223.404 232.969 209.606 237.347C208.978 237.548 208.492 237.277 208.232 236.846C208.194 237.316 207.913 237.757 207.322 237.919C204.377 238.727 201.482 239.723 198.62 240.788C197.128 241.344 195.643 241.922 194.17 242.53C193.95 242.62 193.728 242.71 193.504 242.8C192.455 243.223 191.385 243.655 190.426 244.235C189.877 244.567 189.391 244.988 189.292 245.653C189.193 246.278 189.32 246.933 189.44 247.557C189.464 247.68 189.488 247.802 189.509 247.922L190.563 253.804C191.284 257.825 192.005 261.845 192.727 265.866C193.412 269.688 194.098 273.511 194.783 277.333L196.892 289.098C197.05 289.977 197.194 290.863 197.34 291.751C197.753 294.281 198.169 296.828 198.895 299.271C199.604 301.672 200.866 304.274 203.437 305.081C205 305.572 206.683 305.433 208.28 305.222C209.384 305.077 210.486 304.912 211.588 304.747C212.402 304.625 213.216 304.503 214.031 304.389C221.119 303.4 228.224 302.551 235.327 301.702C236.051 301.615 236.774 301.529 237.498 301.442C241.392 300.976 245.286 300.504 249.177 300.002C251.104 299.754 253.027 299.498 254.95 299.231L255.007 299.222C256.673 298.991 258.237 298.774 259.851 299.416C261.326 300.003 262.569 301.037 263.361 302.421C263.664 302.952 263.953 303.49 264.241 304.028C264.768 305.01 265.294 305.991 265.907 306.93C266.281 307.507 266.674 308.073 267.157 308.567C267.211 308.622 267.265 308.677 267.321 308.73C267.373 308.78 267.427 308.829 267.482 308.875C267.5 308.89 267.515 308.903 267.528 308.915C267.54 308.92 267.572 308.94 267.642 308.989C267.651 308.996 267.698 309.025 267.744 309.054C267.827 309.019 267.927 308.981 268.005 308.965C268.021 308.947 268.034 308.931 268.038 308.922C268.032 308.937 268.026 308.95 268.021 308.962C268.022 308.962 268.023 308.962 268.023 308.962C268.049 308.905 268.088 308.816 268.119 308.749C268.16 308.659 268.186 308.606 268.144 308.712C268.227 308.506 268.287 308.287 268.342 308.072C268.665 306.813 268.791 305.497 268.917 304.173C269.04 302.893 269.163 301.605 269.466 300.354C269.875 298.682 270.834 297.334 272.399 296.577C273.185 296.199 274.017 295.931 274.845 295.663L275.085 295.586C278.992 294.318 282.912 293.092 286.831 291.865C290.374 290.757 293.916 289.649 297.448 288.51C301.524 287.197 305.594 285.867 309.632 284.445C311.181 283.899 312.724 283.343 314.248 282.742C314.57 282.616 314.887 282.487 315.203 282.358C315.248 282.34 315.291 282.322 315.334 282.304L315.388 282.281C315.396 282.278 315.402 282.275 315.407 282.273C315.456 282.252 315.505 282.231 315.555 282.209C315.613 282.184 315.672 282.159 315.73 282.133C316.145 281.95 316.561 281.761 316.96 281.544C317.105 281.464 317.241 281.376 317.385 281.291C317.395 281.281 317.404 281.273 317.407 281.273C317.428 281.271 317.49 281.186 317.502 281.164C317.508 281.152 317.5 281.158 317.465 281.205C317.35 281.36 317.551 281.057 317.548 281.06C317.563 281.031 317.579 281.002 317.594 280.974C317.622 280.923 317.649 280.873 317.674 280.821C317.657 280.854 317.7 280.736 317.73 280.655C317.744 280.618 317.755 280.589 317.755 280.585C317.906 280.096 318.001 279.62 318.043 279.198C318.338 276.257 317.894 273.228 317.467 270.316L317.43 270.06C316.318 262.447 314.967 254.867 313.42 247.331C311.855 239.684 310.072 232.08 308.076 224.533C307.987 224.194 307.901 223.852 307.815 223.508C307.5 222.248 307.18 220.97 306.673 219.785C306.223 218.731 305.549 217.631 304.415 217.236C303.624 216.96 302.729 217.05 301.912 217.132L301.888 217.135C301.22 217.201 300.549 217.282 299.88 217.362L299.431 217.416C297.7 217.622 295.972 217.84 294.24 218.071C279.874 219.986 265.61 222.7 251.487 225.942Z" fill="#F2D6B3"/>
<path d="M214.236 229.51C228.034 225.132 242.013 221.344 256.117 218.105C270.24 214.863 284.504 212.149 298.87 210.234C300.602 210.003 302.33 209.785 304.061 209.579C304.879 209.482 305.7 209.379 306.518 209.298C307.342 209.215 308.246 209.121 309.045 209.399C310.179 209.794 310.853 210.894 311.304 211.948C311.949 213.456 312.291 215.115 312.706 216.696C314.703 224.243 316.485 231.847 318.05 239.494C319.597 247.03 320.948 254.61 322.06 262.223C322.497 265.214 322.977 268.334 322.673 271.361C322.632 271.783 322.536 272.259 322.386 272.748C322.382 272.762 322.232 273.154 322.338 272.91C322.293 273.017 322.232 273.119 322.178 273.223C322.181 273.22 321.98 273.523 322.095 273.368C322.197 273.233 322.069 273.434 322.037 273.436C322.028 273.436 321.986 273.49 321.98 273.487C321.973 273.492 321.97 273.498 321.961 273.504C321.871 273.579 321.935 273.53 322.156 273.356C322.159 273.362 322.025 273.448 322.021 273.451C321.874 273.536 321.737 273.626 321.59 273.707C321.191 273.924 320.775 274.113 320.36 274.296C320.226 274.355 320.092 274.412 319.961 274.47C319.712 274.575 320.184 274.375 320.018 274.444C319.958 274.469 319.897 274.495 319.833 274.521C319.517 274.65 319.201 274.779 318.878 274.905C317.354 275.506 315.811 276.062 314.262 276.607C310.224 278.03 306.154 279.36 302.078 280.673C294.637 283.071 287.153 285.336 279.716 287.748C278.808 288.043 277.891 288.325 277.029 288.74C275.464 289.497 274.505 290.845 274.096 292.517C273.48 295.061 273.608 297.758 272.972 300.234C272.918 300.45 272.857 300.669 272.774 300.875C272.889 300.588 272.505 301.462 272.668 301.085C272.656 301.112 272.566 301.202 272.531 301.224C272.569 301.193 272.604 301.163 272.646 301.134C272.521 301.202 272.541 301.197 272.707 301.119C272.576 301.118 272.285 301.254 272.218 301.29C272.307 301.242 272.426 301.257 272.317 301.234C272.665 301.308 272.4 301.239 272.368 301.219C272.64 301.381 272.298 301.171 272.272 301.152C271.94 300.92 272.448 301.324 272.112 301.038C271.997 300.942 271.892 300.837 271.787 300.73C271.304 300.236 270.911 299.67 270.538 299.093C269.589 297.64 268.848 296.085 267.991 294.584C267.199 293.199 265.957 292.166 264.481 291.579C262.848 290.93 261.267 291.159 259.58 291.393C257.657 291.661 255.734 291.917 253.808 292.165C249.917 292.667 246.022 293.139 242.128 293.605C234.301 294.542 226.472 295.462 218.661 296.552C216.744 296.82 214.831 297.132 212.911 297.385C211.313 297.596 209.63 297.735 208.068 297.244C205.496 296.437 204.234 293.835 203.525 291.434C202.544 288.133 202.129 284.643 201.522 281.261C200.819 277.34 200.116 273.418 199.414 269.496C198.008 261.654 196.599 253.811 195.193 245.967C194.842 244.006 194.491 242.046 194.139 240.085C194.008 239.354 193.804 238.564 193.922 237.816C194.021 237.15 194.507 236.73 195.056 236.398C196.219 235.694 197.545 235.209 198.8 234.693C200.273 234.085 201.758 233.506 203.25 232.951C206.113 231.886 209.007 230.89 211.952 230.082C213.556 229.642 212.875 227.147 211.265 227.589C208.116 228.454 205.02 229.53 201.963 230.683C200.49 231.239 199.024 231.817 197.573 232.424C196.197 233 194.67 233.519 193.433 234.371C191.881 235.441 191.156 237.023 191.357 238.913C191.568 240.907 192.028 242.891 192.382 244.864C193.098 248.871 193.82 252.878 194.535 256.885C195.986 264.984 197.439 273.082 198.893 281.181C199.522 284.699 199.966 288.317 200.928 291.764C201.707 294.558 203.049 297.4 205.621 298.955C208.853 300.91 212.783 299.994 216.281 299.483C220.322 298.892 224.376 298.357 228.43 297.848C236.378 296.852 244.336 295.955 252.284 294.946C254.351 294.683 256.414 294.412 258.481 294.132C260.034 293.921 261.733 293.426 263.273 293.888C264.733 294.325 265.493 295.388 266.171 296.673C266.976 298.202 267.8 299.74 268.812 301.144C269.554 302.169 270.483 303.41 271.78 303.741C272.132 303.831 272.496 303.845 272.854 303.771C272.975 303.745 273.694 303.493 273.304 303.637C273.956 303.396 274.435 303.076 274.822 302.489C275.48 301.489 275.639 300.218 275.789 299.058C275.946 297.846 276.026 296.425 276.198 295.364C276.419 294.037 276.464 292.223 277.652 291.359C278.412 290.807 279.38 290.574 280.265 290.286C281.62 289.845 282.98 289.417 284.338 288.988C288.338 287.73 292.334 286.483 296.331 285.219C300.755 283.818 305.18 282.404 309.585 280.934C313.096 279.761 316.623 278.586 320.06 277.202C321.079 276.791 322.14 276.387 323.092 275.828C324.571 274.959 325.027 273.296 325.222 271.68C325.602 268.544 325.085 265.291 324.647 262.189C324.098 258.302 323.456 254.426 322.778 250.56C321.402 242.703 319.801 234.887 317.974 227.122C317.063 223.24 316.092 219.371 315.07 215.517C314.303 212.634 313.604 208.905 310.732 207.334C309.064 206.422 307.214 206.629 305.406 206.837C303.601 207.044 301.803 207.265 300.004 207.499C296.375 207.972 292.753 208.492 289.136 209.06C281.782 210.214 274.461 211.557 267.17 213.056C252.495 216.075 237.94 219.715 223.571 223.951C220.22 224.939 216.878 225.961 213.553 227.018C211.971 227.519 212.649 230.016 214.236 229.51Z" fill="#211D1D"/>
<path d="M242.874 315.778C240.803 315.411 237.741 318.563 236.382 319.618C228.311 325.891 220.174 331.959 213.292 339.574C208.477 344.902 203.992 351.284 203.432 358.705C202.797 367.105 209.286 375.439 216.047 379.732C236.128 392.486 257.933 366.088 268.936 352.262C275.716 343.743 281.361 334.258 284.048 323.627C286.888 312.39 283.026 305.158 273.892 298.413C264.109 291.189 251.831 287.786 240.359 284.251C228.678 280.652 218.294 278.556 207.745 286.286C196.493 294.532 189.061 307.903 184.35 320.786C176.379 342.585 181.467 367.667 195.869 387.487C207.569 403.59 218.424 416.69 237.26 422.156C261.969 429.325 283.453 417.611 298.751 398.282C312.234 381.246 323.061 358.657 323.658 336.573C324.039 322.463 318.75 308.465 310.197 297.336C302.822 287.737 292.213 282.795 281.208 278.598C259.926 270.482 237.001 265.004 214.291 269.636C184.125 275.789 184.746 278.358 165.874 302.317C154.266 317.055 150.979 336.836 154.694 356.46C159.261 380.584 192 401.93 213.406 408.365C242.704 417.173 231.855 424.727 258.69 410.369C267.936 405.422 273.632 401.383 281.581 394.49C283.316 392.986 297.924 380.844 297.658 375.314C297.307 368.001 283.008 372.457 275.764 373.525C269.932 374.385 255.726 379.09 258.079 373.684C259.487 370.448 262.928 368.554 265.376 366.011C273.476 357.596 277.172 354.995 282.986 345.024C292.414 328.858 297.659 308.164 298.84 289.601C299.539 278.607 297.459 268.916 288.104 262.407C281.288 257.665 272.311 255.393 264.098 255.28C242.352 254.98 223.162 268.056 208.195 282.671C195.307 295.256 180.863 313.94 182.988 333.211C184.822 349.834 199.195 359.244 213.939 364.058C238.336 372.024 263.135 365.992 283.888 351.622C302.27 338.894 315.996 320.169 321.98 298.573C324.293 290.227 324.917 281.816 320.363 274.094C315.81 266.376 308.048 261.648 299.763 258.794C278.476 251.462 254.648 254.924 234.284 263.501C214.604 271.79 194.13 285.773 186.954 306.885C181.437 323.113 184.978 340.513 196.814 352.979C217.543 374.81 248.563 370.332 271.393 354.342C291.178 340.485 308.18 320.102 317.966 297.941C320.418 292.388 323.282 285.299 321.102 279.158C317.835 269.951 307.153 266.552 298.671 264.482C271.331 257.811 240.342 257.05 214.742 270.189C197.916 278.825 183.407 294.526 184.441 314.546C185.272 330.614 194.139 346.551 207.252 355.823C213.691 360.377 221.672 363.81 229.732 363.083C239.303 362.22 247.772 356.001 254.597 349.723C266.661 338.627 280.121 321.251 280.583 304C280.776 296.817 277.69 290.288 270.022 289.166C263.705 288.242 257.276 291.605 252.111 294.816C241.644 301.321 234.608 310.953 230.782 322.623C227.811 331.683 228.22 341.191 238.045 345.37C247.728 349.49 258.962 346.942 267.195 340.831C273.67 336.025 284.11 324.424 279.62 315.508C276.115 308.546 265.272 306.365 258.333 307.598C246.957 309.619 237.724 318.644 232.922 328.744C230.72 333.374 227.464 340.898 231.979 345.234C238.009 351.023 246.777 342.875 251.081 338.836C255.327 334.85 259.865 329.648 260.787 323.633C262.076 315.226 238.804 319.713 235.738 320.269C224.533 322.303 212.966 327.79 207.229 338.113C200.799 349.682 205.943 359.473 218.002 363.864C225.816 366.709 233.841 366.356 241.905 364.533C259.874 360.47 278.734 352.245 292.344 339.572C298.391 333.94 311.26 318.136 299.664 310.518C292.155 305.586 277.26 305.018 269.771 304.954C255.286 304.831 234.096 307.034 219.736 308.777C205.05 310.559 190.493 313.242 175.849 315.313C169.956 316.146 163.063 317.636 157.007 316.877C155.091 316.636 155.224 316.004 156.538 314.736C160.568 310.847 165.428 307.72 170.137 304.749C203.45 283.729 240.503 270.062 278.25 259.443C279.186 259.18 281.763 258.086 282.822 258.398C286.764 259.558 290.847 266.747 293.186 269.62C298.291 275.892 304.042 282.402 307.9 289.552C312.279 297.669 309.071 306.108 304.435 313.408C283.273 346.728 246.405 373.7 206.386 376.115C197.534 376.649 188.502 376.316 179.809 374.434C178.402 374.129 172.499 373.466 172.092 371.453C171.569 368.863 173.059 365.161 173.833 362.79C177.089 352.818 182.628 343.686 188.296 334.934C202.278 313.345 216.997 292.233 230.688 270.454C232.75 267.174 245.852 251.828 244.538 246.876C243.486 242.913 234.537 247.305 234.056 247.475C227.502 249.789 221.849 253.405 216.045 257.198C202.629 265.965 189.424 275.181 177.201 285.57C166.494 294.671 155.373 305.749 149.864 318.975C144.962 330.745 148.657 342.788 154.72 353.419C167.285 375.453 192.961 395.862 219.463 394.144C233.497 393.235 247.528 386.373 258.792 378.288C279.515 363.413 294.798 339.441 304.074 315.951C307.831 306.437 310.463 294.569 301.868 286.776C292.414 278.204 278.553 273.546 266.264 271.197C253.191 268.699 239.499 269.29 226.504 271.937C207.209 275.867 190.346 284.782 179.147 301.358C167.779 318.183 160.713 341.806 166.846 361.833C172.351 379.809 192.077 395.097 215.832 400.119C245.438 406.378 263.702 389.985 288.037 371.999C313.39 353.26 337.671 339.64 337.393 308.115C337.125 277.776 317.384 260.362 290.611 246.087C270.623 235.43 255.548 231.334 233.442 236.278C215.246 240.348 201.632 246.787 187.568 259.028C170.258 274.096 167.148 284.14 158.136 301.218C155.359 306.48 149.64 321.423 153.622 327.284C157.234 332.602 163.845 336.053 169.428 338.783C179.674 343.795 190.722 347.469 201.853 349.906C226.113 355.217 250.752 352.72 272.969 341.302C291.603 331.725 309.653 316.855 319.761 298.211C323.93 290.521 326.299 283.133 316.784 278.792C307.434 274.526 296.146 274.12 286.076 274.022C269.669 273.861 253.211 275.723 237.001 278.094C219.344 280.677 137.041 291.172 161.623 327.539C173.037 344.424 197.372 349.808 216.359 349.683C247.974 349.475 277.619 333.642 299.903 312.01C312.609 299.677 316.451 301.554 315.629 282.716C314.762 262.855 273.958 247.57 273.958 247.57C273.958 247.57 242.254 237.775 223.404 243.824C193.423 253.445 183.937 282.37 176.491 309.396C170.125 332.501 169.951 356.681 180.448 378.628C188.72 395.921 202.714 410.29 220.371 417.962C236.031 424.766 250.646 422.668 265.484 414.726C289.085 402.096 307.717 381.649 319.481 357.797C328.923 338.653 339.369 313.844 332.179 292.237C326.129 274.058 307.365 264.378 289.356 262.323C268.481 259.941 246.152 264.973 226.506 271.712C208.819 277.778 191.734 286.308 181.406 302.572C175.342 312.122 170.867 325.025 176.219 335.903C182.471 348.61 197.472 355.414 210.816 357.324C228.381 359.839 245.308 353.119 259.876 343.749C271.105 336.526 284.943 325.206 289.151 311.884C291.774 303.577 285.564 299.71 278.1 298.165C259.347 294.284 238.146 304.19 222.079 312.891C212.123 318.282 201.805 325.221 195.331 334.742C191.571 340.272 190.735 348.611 195.616 353.757C202.494 361.01 215.605 363.456 225.087 363.72C245.656 364.291 280.02 362.979 297.658 353.419C332.849 334.347 333.086 295.797 400.873 286.776" stroke="#3B3B3B" stroke-linecap="round"/>
<defs>
<filter id="filter0_f_471_1751" x="0.287842" y="-77.9978" width="687.01" height="687.01" filterUnits="userSpaceOnUse" color-interpolation-filters="sRGB">
<feFlood flood-opacity="0" result="BackgroundImageFix"/>
<feBlend mode="normal" in="SourceGraphic" in2="BackgroundImageFix" result="shape"/>
<feGaussianBlur stdDeviation="66" result="effect1_foregroundBlur_471_1751"/>
</filter>
<linearGradient id="paint0_linear_471_1751" x1="511.062" y1="43.7414" x2="196.185" y2="506.863" gradientUnits="userSpaceOnUse">
<stop offset="0.18917" stop-color="#EB8258"/>
<stop offset="1" stop-color="#53D2DD"/>
</linearGradient>
</defs>
</svg>
