<svg width="391" height="252" viewBox="0 0 391 252" fill="none" xmlns="http://www.w3.org/2000/svg">
<g clip-path="url(#clip0_455_948)">
<rect x="0.5" width="390" height="251.19" rx="10" fill="white"/>
<path d="M0.5 10C0.5 4.47715 4.97715 0 10.5 0H380.5C386.023 0 390.5 4.47715 390.5 10V20H0.5V10Z" fill="#F2D6B3"/>
<circle cx="16.0591" cy="10" r="2.75" stroke="#5B5B5B" stroke-width="0.5"/>
<circle cx="27.0591" cy="10" r="2.75" stroke="#5B5B5B" stroke-width="0.5"/>
<circle cx="38.0591" cy="10" r="2.75" stroke="#5B5B5B" stroke-width="0.5"/>
<g clip-path="url(#clip1_455_948)">
<path d="M47.424 191.09H249.822V56.1586H47.424V191.09Z" fill="#F9F5ED"/>
<path d="M28.1409 179.432C38.1418 163.712 58.1125 155.312 75.0767 157.747C95.1646 160.629 95.8889 176.529 118.151 181.511C140.95 186.614 154.075 173.043 163.007 180.917C171.558 188.455 169.548 209.721 160.334 223.1C134.546 260.545 39.8686 254.303 23.3878 218.347C17.555 205.622 21.6952 189.563 28.1409 179.432Z" fill="#EAD0AC"/>
<path d="M133.895 20.5034C143.896 4.78384 163.867 -3.61648 180.831 -1.18204C200.919 1.70064 201.643 17.6007 223.905 22.583C246.705 27.6853 259.829 14.1146 268.762 21.9887C277.312 29.5267 275.302 50.7928 266.088 64.1718C240.3 101.616 145.623 95.3747 129.142 59.4187C123.309 46.6932 127.449 30.6353 133.895 20.5034Z" fill="#E8CEC7"/>
<path d="M206.081 210.624C199.136 201.498 192.323 185.082 198.655 175.867C206.664 164.212 229.362 173.306 235.788 162.202C241.554 152.239 225.918 140.352 230.737 126.258C234.895 114.101 252.799 104.601 264.9 108.137C293.103 116.378 312.72 202.138 279.159 225.774C259.68 239.492 222.47 232.157 206.081 210.624Z" fill="#C98472"/>
<path d="M23.685 146.458C39.9875 146.728 55.0322 124.393 58.4413 105.463C61.8538 86.5156 51.7833 81.1149 55.7678 62.3893C60.6955 39.2318 78.9903 33.8979 76.265 23.4741C72.6756 9.74476 35.7482 -0.85009 11.2084 12.7799C-19.3613 29.759 -20.4 78.6052 -9.58625 108.434C-7.82916 113.28 4.081 146.134 23.685 146.458Z" fill="#C98472"/>
<path d="M87.0814 65.2427C87.9034 65.3657 88.747 65.1841 89.5172 64.8713C91.0592 64.2447 92.4131 63.0157 92.9018 61.4249C93.1048 60.7643 93.1517 60.0356 92.9067 59.3899C92.4881 58.2867 91.2913 57.6627 90.1595 57.6098C89.1599 57.5634 88.0122 57.7982 87.0841 58.1714C86.3706 58.4583 85.7383 58.9162 85.3408 59.5847C84.8823 60.3552 84.7598 61.2811 84.7444 62.1627C84.7328 62.8374 84.783 63.5255 85.17 64.1025C85.5159 64.6182 86.0664 64.9725 86.6556 65.1479C86.7951 65.1895 86.9376 65.2211 87.0814 65.2427Z" fill="#EAD0AC"/>
<path d="M72.8959 61.4913C72.9154 61.9579 73.1488 62.3862 73.464 62.7535C74.0952 63.4886 75.1208 64.0237 76.2868 64.0299C76.771 64.0323 77.2826 63.9392 77.6996 63.701C78.4115 63.294 78.6921 62.5427 78.5845 61.9196C78.4895 61.3693 78.1802 60.7843 77.8029 60.3412C77.5128 60.0006 77.1148 59.7318 76.6004 59.6247C76.007 59.5013 75.3491 59.5855 74.7351 59.721C74.2657 59.8244 73.7946 59.9639 73.4435 60.268C73.1299 60.5398 72.9539 60.8963 72.9073 61.2447C72.8962 61.3272 72.8924 61.4098 72.8959 61.4913Z" fill="#EAD0AC"/>
<path d="M107.146 80.582C107.613 80.5782 108.049 80.3593 108.427 80.0565C109.182 79.4502 109.751 78.4433 109.797 77.278C109.816 76.7942 109.739 76.2798 109.515 75.855C109.133 75.1299 108.391 74.8244 107.765 74.911C107.211 74.9877 106.616 75.2772 106.161 75.6394C105.811 75.9176 105.529 76.3068 105.405 76.8174C105.261 77.4059 105.324 78.0666 105.438 78.6845C105.526 79.1574 105.65 79.6326 105.942 79.9939C106.203 80.3164 106.553 80.504 106.9 80.5623C106.982 80.576 107.064 80.5828 107.146 80.582Z" fill="#EAD0AC"/>
<path d="M98.7947 69.0554C99.1792 69.5484 99.7905 69.8234 100.407 69.9262C101.444 70.099 102.549 69.8153 103.374 69.1644C104.183 68.5262 104.711 67.5447 104.8 66.5184C104.852 65.9266 104.719 65.3952 104.283 64.9748C103.92 64.625 103.415 64.3881 102.947 64.2111C102.232 63.9409 101.445 63.8637 100.732 64.1806C99.9721 64.5184 99.4229 65.202 99.0025 65.8969C98.4849 66.7526 98.1138 67.7811 98.5979 68.744C98.6535 68.8538 98.7191 68.9585 98.7947 69.0554Z" fill="#EAD0AC"/>
<path d="M109.999 56.7614C109.472 56.9244 109.037 57.3103 108.719 57.7599C108.378 58.2416 108.159 58.8075 108.077 59.392C108.017 59.82 108.03 60.2583 108.121 60.6812C108.339 61.6942 109.203 63.1105 110.348 63.2497C110.978 63.3264 111.474 62.8579 111.787 62.3635C112.208 61.7007 112.42 60.9003 112.502 60.1258C112.583 59.3564 112.544 58.5225 112.223 57.8071C111.924 57.1384 111.353 56.6853 110.604 56.6758C110.399 56.6731 110.194 56.7007 109.999 56.7614Z" fill="#EAD0AC"/>
<path d="M118.022 66.6105C117.733 66.1584 117.311 65.8932 116.881 65.772C116.421 65.6422 115.939 65.6708 115.487 65.843C115.156 65.969 114.842 66.1719 114.564 66.4464C113.898 67.1032 113.148 68.5764 113.418 69.7741C113.566 70.4339 114.067 70.7229 114.528 70.8198C115.146 70.9499 115.797 70.8136 116.386 70.5583C116.972 70.3049 117.566 69.9044 117.982 69.2754C118.371 68.6871 118.515 67.9231 118.28 67.1742C118.215 66.9699 118.129 66.7786 118.022 66.6105Z" fill="#EAD0AC"/>
<path d="M99.7247 57.3005C99.3942 57.3313 99.1437 57.4778 98.9756 57.6659C98.7956 57.8672 98.7036 58.1203 98.7028 58.3948C98.702 58.5958 98.7503 58.8082 98.8485 59.0206C99.0838 59.5288 99.779 60.2903 100.542 60.4611C100.963 60.5556 101.245 60.3745 101.406 60.1646C101.622 59.8828 101.689 59.5163 101.672 59.1501C101.655 58.7864 101.554 58.3808 101.279 58.0067C101.022 57.657 100.606 57.3866 100.114 57.314C99.9792 57.2943 99.8475 57.2889 99.7247 57.3005Z" fill="#EAD0AC"/>
<path d="M97.3516 78.1585C97.0213 78.1893 96.7706 78.3358 96.6028 78.5239C96.4225 78.7255 96.3305 78.9784 96.3297 79.2528C96.3291 79.4539 96.3774 79.6662 96.4754 79.8786C96.7107 80.3868 97.4059 81.1483 98.1693 81.3192C98.5898 81.4136 98.8723 81.2325 99.0331 81.0226C99.2488 80.7408 99.3154 80.3744 99.299 80.0082C99.2822 79.6444 99.1813 79.2388 98.906 78.8648C98.6486 78.515 98.2333 78.2446 97.7405 78.172C97.6061 78.1523 97.4744 78.1472 97.3516 78.1585Z" fill="#EAD0AC"/>
<path d="M76.9932 69.4158C76.6626 69.4469 76.4122 69.5934 76.244 69.7812C76.064 69.9828 75.972 70.2357 75.9712 70.5101C75.9704 70.7112 76.0187 70.9238 76.1169 71.1359C76.3522 71.6444 77.0474 72.4057 77.8106 72.5767C78.231 72.6709 78.5136 72.4899 78.6744 72.2799C78.8903 71.9984 78.957 71.6317 78.9402 71.2655C78.9238 70.9017 78.8226 70.4961 78.5473 70.1221C78.2901 69.7723 77.8746 69.5019 77.3821 69.4296C77.2477 69.4096 77.116 69.4045 76.9932 69.4158Z" fill="#EAD0AC"/>
<path d="M89.6531 72.2487C89.3997 71.856 89.0152 71.6161 88.6171 71.4968C88.1905 71.3692 87.7382 71.3741 87.3088 71.5012C86.9944 71.5945 86.6922 71.7532 86.4218 71.9732C85.7739 72.5002 85.0161 73.7122 85.2231 74.7322C85.3372 75.2941 85.7954 75.5575 86.2234 75.6576C86.7972 75.7917 87.4114 75.7027 87.973 75.5111C88.5308 75.3208 89.1021 75.0067 89.5152 74.4929C89.9017 74.0128 90.066 73.3746 89.8734 72.7342C89.821 72.5593 89.7473 72.3947 89.6531 72.2487Z" fill="#EAD0AC"/>
<path d="M198.333 64.2381C198.704 63.4938 198.791 62.6354 198.731 61.8064C198.61 60.1462 197.858 58.4795 196.495 57.5245C195.929 57.1278 195.25 56.8584 194.56 56.8927C193.382 56.951 192.42 57.8969 192.02 58.9577C191.668 59.8941 191.538 61.0583 191.607 62.0565C191.66 62.8235 191.901 63.5659 192.414 64.1504C193.006 64.824 193.849 65.2258 194.683 65.5122C195.321 65.7313 195.991 65.8954 196.66 65.7051C197.257 65.5351 197.764 65.1206 198.112 64.614C198.194 64.4942 198.269 64.3685 198.333 64.2381Z" fill="#C98472"/>
<path d="M190.393 76.5772C190.842 76.7024 191.322 76.6122 191.769 76.4255C192.662 76.0517 193.487 75.2411 193.853 74.1335C194.004 73.674 194.073 73.1585 193.975 72.6884C193.807 71.8856 193.179 71.3871 192.553 71.2975C192 71.2185 191.349 71.3324 190.811 71.5547C190.397 71.7253 190.019 72.0216 189.759 72.4779C189.459 73.0042 189.336 73.6562 189.275 74.282C189.229 74.7604 189.217 75.2516 189.398 75.6793C189.559 76.0614 189.845 76.3386 190.162 76.4903C190.237 76.5262 190.314 76.5553 190.393 76.5772Z" fill="#C98472"/>
<path d="M185.542 70.9546C185.753 70.515 185.815 70.0136 185.797 69.5322C185.761 68.5679 185.389 67.6107 184.678 67.0786C184.383 66.8575 184.025 66.7129 183.656 66.7447C183.026 66.7993 182.496 67.3668 182.265 67.991C182.06 68.5426 181.97 69.2224 181.99 69.802C182.004 70.2476 182.12 70.6756 182.384 71.0067C182.688 71.3886 183.131 71.6077 183.571 71.7599C183.908 71.8762 184.263 71.9601 184.623 71.8376C184.945 71.7283 185.223 71.4782 185.418 71.1773C185.464 71.106 185.505 71.0315 185.542 70.9546Z" fill="#C98472"/>
<path d="M183.45 58.6186C183.962 58.4319 184.357 58.0395 184.626 57.5942C184.915 57.1168 185.07 56.5676 185.085 56.0093C185.096 55.5999 185.032 55.1854 184.892 54.7906C184.554 53.8447 183.518 52.5567 182.347 52.4951C181.701 52.4611 181.256 52.9353 180.996 53.4229C180.648 54.0765 180.527 54.8475 180.534 55.5862C180.541 56.3196 180.677 57.1071 181.083 57.765C181.463 58.3798 182.092 58.7741 182.849 58.7368C183.056 58.7266 183.259 58.688 183.45 58.6186Z" fill="#C98472"/>
<path d="M213.786 58.4482C213.713 58.7721 213.775 59.0557 213.903 59.2735C214.039 59.5069 214.251 59.6723 214.512 59.7579C214.703 59.8202 214.92 59.8399 215.152 59.8119C215.708 59.7449 216.647 59.3183 217.045 58.6447C217.264 58.2736 217.179 57.949 217.029 57.7312C216.827 57.4392 216.499 57.2627 216.145 57.1659C215.794 57.0695 215.377 57.0406 214.937 57.1874C214.525 57.3243 214.139 57.6362 213.918 58.0826C213.858 58.2043 213.813 58.3279 213.786 58.4482Z" fill="#C98472"/>
<path d="M199.194 75.1216C199.121 75.4455 199.184 75.7291 199.311 75.9469C199.447 76.1803 199.659 76.3457 199.92 76.4313C200.111 76.4936 200.328 76.5133 200.56 76.4852C201.116 76.4183 202.055 75.9914 202.453 75.3181C202.672 74.947 202.587 74.6224 202.437 74.4046C202.236 74.1126 201.907 73.9361 201.554 73.8392C201.203 73.7429 200.785 73.714 200.345 73.8605C199.933 73.9976 199.548 74.3096 199.327 74.7557C199.267 74.8777 199.221 75.0013 199.194 75.1216Z" fill="#C98472"/>
<path d="M205.791 63.9507C205.339 64.0707 204.993 64.3625 204.756 64.7044C204.504 65.0709 204.369 65.5026 204.358 65.9504C204.349 66.2782 204.407 66.6148 204.533 66.9397C204.835 67.7188 205.754 68.8131 206.788 68.9305C207.358 68.995 207.75 68.6404 207.977 68.2642C208.282 67.7595 208.386 67.1477 208.377 66.5543C208.368 65.9649 208.245 65.3251 207.883 64.7732C207.546 64.2578 206.989 63.9048 206.321 63.8905C206.138 63.8867 205.959 63.9059 205.791 63.9507Z" fill="#C98472"/>
<path d="M287.994 101.155C273.791 92.9677 256.019 89.9792 240.534 96.3108C233.654 99.1241 227.488 103.668 223.087 109.688C219.083 115.165 216.523 121.529 214.294 127.89C209.834 140.621 206.325 155.185 194.644 163.401C188.026 168.056 180.025 170.207 172.217 171.893C164.163 173.631 155.835 175.025 148.806 179.604C137.479 186.984 130.463 200.629 131.152 214.14C131.235 215.768 131.452 217.387 131.764 218.985C131.794 219.134 132.055 219.088 132.028 218.937C129.617 205.349 135.354 190.833 146.031 182.183C148.789 179.949 151.862 178.136 155.156 176.811C159.223 175.175 163.51 174.205 167.791 173.32C175.567 171.714 183.47 170.184 190.594 166.521C196.852 163.305 201.776 158.418 205.281 152.344C208.602 146.59 210.704 140.234 212.774 133.951C214.881 127.557 216.926 121.082 220.13 115.131C223.625 108.64 228.598 103.238 234.967 99.4795C241.678 95.5201 249.429 93.4534 257.204 93.298C265.828 93.1258 274.383 95.1997 282.229 98.7074C284.132 99.558 286.009 100.466 287.843 101.457C288.035 101.56 288.181 101.263 287.994 101.155Z" fill="#C98472"/>
<path d="M212.391 76.066C209.963 76.1013 207.343 75.5851 205.473 73.9332C203.89 72.5356 202.818 70.3138 203.19 68.1768C203.885 64.1863 209.084 63.1614 212.075 65.2525C215.488 67.6384 215.6 72.4582 213.99 75.9772C213.458 76.0268 212.925 76.0584 212.391 76.066ZM175.656 69.206C176.534 67.5067 179.209 65.555 180.978 67.2309C182.599 68.7651 181.731 71.7379 180.957 73.4874C180.013 75.6212 178.462 77.3791 176.629 78.804C174.854 75.9067 174.055 72.303 175.656 69.206ZM146.871 65.4441C148.18 63.9458 150.137 62.7333 152.181 62.7088C155.006 62.6748 154.245 66.0203 153.144 67.5051C151.092 70.2725 147.911 72.109 144.566 73.0837C144.231 70.3799 144.988 67.5995 146.871 65.4441ZM242.682 34.073C242.659 33.6963 242.073 33.7265 242.097 34.1038C242.711 44.0839 240.824 54.6042 234.955 62.8901C232.385 66.5182 229.114 69.6621 225.323 71.9929C222.088 73.9815 218.358 75.4574 214.546 75.9151C215.15 74.5537 215.491 73.0764 215.463 71.4942C215.425 69.334 214.678 67.1699 213.14 65.6182C211.802 64.2667 209.894 63.6512 208.013 63.7702C206.24 63.8827 204.47 64.6761 203.46 66.1819C202.287 67.932 202.461 70.2061 203.379 72.0237C205.346 75.9192 209.701 76.8005 213.736 76.4899C213.645 76.664 213.55 76.8354 213.451 77.001C211.106 80.883 206.81 83.5319 202.656 85.1014C194.82 88.0624 184.768 87.66 178.612 81.3566C177.98 80.7098 177.389 79.9755 176.869 79.1824C177.093 79.0067 177.314 78.8269 177.53 78.6413C179.185 77.2226 180.593 75.4812 181.423 73.4518C182.153 71.6693 182.753 69.1124 181.526 67.4017C180.282 65.6662 177.97 66.2427 176.578 67.4476C174.96 68.8485 174.335 71.1094 174.397 73.19C174.46 75.3131 175.159 77.3098 176.261 79.0809C174.872 80.1066 173.342 80.9521 171.797 81.6279C167.23 83.625 161.889 84.6883 156.924 83.9766C152.424 83.3325 148.102 80.927 145.819 76.8882C145.232 75.8485 144.844 74.7334 144.644 73.5975C146.319 73.1034 147.922 72.402 149.368 71.5058C151.241 70.3446 153.315 68.6825 154.196 66.5989C154.848 65.0563 154.887 62.6877 152.801 62.3245C150.816 61.9788 148.602 63.1856 147.206 64.4945C145.689 65.9175 144.65 67.8467 144.22 69.8764C143.981 71.0036 143.955 72.1238 144.106 73.2111C143.056 73.4912 141.994 73.6912 140.949 73.8048C136.148 74.3264 131.123 73.0454 127.989 69.1728C124.846 65.2884 124.06 60.0836 124.574 55.2363C124.859 52.5468 125.507 49.9137 126.269 47.3239C126.31 47.1854 126.092 47.1422 126.051 47.2785C124.39 52.6941 123.178 58.602 124.888 64.1615C125.591 66.4464 126.755 68.6099 128.414 70.3435C130.138 72.1462 132.376 73.3449 134.789 73.9359C137.817 74.6775 141.115 74.5617 144.193 73.7303C144.773 76.7471 146.696 79.4752 149.182 81.3469C153.539 84.6262 159.192 85.1427 164.432 84.2681C168.704 83.5556 173.008 82.0758 176.503 79.4576C177.81 81.4184 179.608 83.0827 181.57 84.3056C185.483 86.7438 190.2 87.6414 194.764 87.3529C199.463 87.0558 204.088 85.5283 208.042 82.9731C210.578 81.3343 212.947 79.1249 214.298 76.4387C214.983 76.3674 215.654 76.2646 216.299 76.1375C221.068 75.1959 225.52 72.9169 229.256 69.831C237.523 63.0016 241.746 52.6793 242.613 42.1622C242.835 39.4684 242.848 36.77 242.682 34.073Z" fill="#864232"/>
<path d="M96.4065 169.195C98.57 168.526 100.782 168.001 103.022 167.667C107.37 167.019 111.846 167.106 116.121 168.177C117.314 168.475 118.489 168.849 119.63 169.307C120.192 169.531 120.752 169.769 121.291 170.043C121.695 170.247 122.11 170.5 122.355 170.883C120.338 170.591 118.242 170.66 116.219 170.789C114.06 170.928 111.912 171.188 109.76 171.405C105.37 171.849 100.986 171.865 96.5794 171.73C94.8229 171.676 93.0666 171.616 91.3103 171.557C91.5924 171.506 91.8744 171.455 92.1561 171.406C92.9813 171.263 93.8052 171.114 94.631 170.975C96.2834 170.696 97.9409 170.445 99.5989 170.202C101.259 169.96 102.922 169.746 104.587 169.543C106.243 169.342 107.906 169.214 109.575 169.253C110.511 169.275 111.446 169.345 112.375 169.462C113.318 169.581 114.237 169.804 115.173 169.95C115.295 169.969 115.327 169.8 115.211 169.764C114.417 169.516 113.564 169.4 112.742 169.28C111.944 169.165 111.141 169.084 110.336 169.037C108.673 168.94 107.021 169.027 105.363 169.163C101.98 169.44 98.6088 169.9 95.2625 170.465C94.3328 170.621 93.4026 170.779 92.4775 170.961C91.8123 171.092 91.1357 171.21 90.477 171.382C90.4781 171.38 90.4794 171.379 90.4808 171.377C92.4443 170.612 94.389 169.818 96.4065 169.195ZM90.2098 171.044C91.0302 168.304 91.5581 165.492 92.1348 162.694C92.7201 159.856 93.4048 157.044 94.1952 154.255C94.6399 152.687 95.1108 151.124 95.6058 149.571C95.6158 149.539 95.5621 149.52 95.5504 149.551C94.5552 152.257 93.6973 155.007 92.966 157.796C92.2357 160.58 91.6504 163.396 90.9925 166.198C90.6138 167.809 90.1985 169.414 89.7033 170.995C89.6877 171.045 89.6922 171.088 89.7041 171.126C89.6885 171.152 89.6731 171.179 89.6574 171.205C89.5166 169.507 89.4253 167.817 89.4874 166.109C89.5557 164.223 89.7775 162.34 90.1399 160.488C90.8599 156.81 92.1556 153.259 93.9874 149.988C94.9101 148.341 95.9679 146.77 97.1448 145.294C96.4011 148.784 96.2626 152.366 95.8856 155.908C95.4978 159.549 94.7409 163.099 93.1433 166.414C92.3728 168.014 91.4358 169.526 90.3656 170.942C90.3137 170.976 90.2617 171.01 90.2098 171.044ZM88.3551 178.829C93.2118 177.574 98.2615 176.931 103.274 177.403C105.835 177.645 108.341 178.192 110.766 179.039C108.546 179.598 106.372 180.334 104.149 180.884C101.708 181.488 99.2381 181.963 96.7532 182.341C91.8441 183.09 86.8889 183.475 81.935 183.773C79.6811 183.909 77.4134 184.095 75.1506 184.143C76.4964 183.855 77.8328 183.492 79.1735 183.201C80.9924 182.806 82.8185 182.443 84.6474 182.096C88.3586 181.394 92.0924 180.82 95.8397 180.349C97.9274 180.087 100.022 179.907 102.113 179.676C102.186 179.668 102.181 179.559 102.107 179.562C100.228 179.659 98.3522 179.864 96.4812 180.062C94.6089 180.259 92.7409 180.493 90.8767 180.757C87.1987 181.277 83.5391 181.924 79.9078 182.706C78.8802 182.927 77.8547 183.158 76.8313 183.397C75.9362 183.607 75.0297 183.808 74.1506 184.083C74.153 184.051 74.1549 184.018 74.1571 183.986C74.2286 183.92 74.3001 183.855 74.3719 183.79C78.9592 181.925 83.5504 180.071 88.3551 178.829ZM74.1036 181.814C74.098 181.019 74.1217 180.225 74.1725 179.432C74.2753 177.82 74.4927 176.215 74.795 174.629C75.3881 171.513 76.2994 168.473 77.3576 165.486C77.9618 163.779 78.5911 162.081 79.2698 160.402C79.2766 160.385 79.2509 160.372 79.2431 160.389C77.9443 163.31 76.6951 166.244 75.7354 169.297C74.8538 172.103 74.1849 174.977 73.8583 177.901C73.8594 177.886 73.8597 177.87 73.8608 177.855C73.997 175.754 74.2645 173.659 74.6514 171.59C75.4267 167.443 76.7229 163.403 78.4951 159.574C79.3994 157.621 80.4491 155.756 81.5745 153.926C81.0696 157.833 80.454 161.745 79.6849 165.606C78.8731 169.683 77.8517 173.729 76.4095 177.632C75.7514 179.412 74.9947 181.155 74.1493 182.854C74.1301 182.506 74.1063 182.157 74.1036 181.814ZM73.0334 190.793C77.5557 189.266 82.4016 188.646 87.1612 189.033C89.6205 189.233 92.0589 189.689 94.4248 190.39C92.5158 190.765 90.6705 191.392 88.84 192.049C86.7146 192.812 84.5942 193.563 82.3962 194.094C77.9394 195.172 73.3669 195.597 68.8267 196.163C66.6619 196.433 64.5 196.736 62.357 197.145C64.9428 195.724 67.8066 194.86 70.6335 194.05C73.8038 193.141 77.0659 192.546 80.321 192.033C82.1593 191.742 84.0127 191.542 85.848 191.239C85.8926 191.232 85.8915 191.164 85.8445 191.168C84.166 191.302 82.4869 191.556 80.8202 191.792C79.1819 192.023 77.5478 192.282 75.9219 192.588C72.6423 193.207 69.3389 193.939 66.1861 195.046C64.7194 195.561 63.1674 196.106 61.9366 197.086C61.9552 197.059 61.97 197.029 61.9741 196.99C61.9754 196.975 61.9762 196.961 61.9776 196.947C62.0658 196.837 62.1538 196.727 62.2418 196.616C65.4955 194.108 69.1368 192.108 73.0334 190.793ZM62.3052 181C63.3307 176.137 65.2643 171.512 67.6652 167.175C68.8961 164.951 70.2638 162.816 71.6838 160.711C70.8812 165.472 69.9855 170.226 68.9142 174.933C67.788 179.882 66.433 184.79 64.6241 189.537C63.8539 191.558 63.0176 193.547 62.0871 195.495C62.1182 194.967 62.1454 194.438 62.1878 193.911C62.268 192.904 62.3608 191.898 62.4714 190.895C62.6952 188.867 62.9898 186.849 63.3617 184.843C64.1014 180.857 65.1563 176.924 66.5431 173.113C67.3166 170.989 68.2214 168.919 69.1373 166.853C69.1646 166.792 69.0753 166.746 69.0429 166.806C67.119 170.381 65.7352 174.285 64.6236 178.182C63.5064 182.098 62.7041 186.103 62.1519 190.137C61.9957 191.278 61.8599 192.423 61.7477 193.569C61.7061 193.997 61.6618 194.428 61.6214 194.859C61.5277 192.896 61.4319 190.934 61.4584 188.966C61.4943 186.288 61.7525 183.622 62.3052 181ZM105.061 162.438C105.733 161.837 106.245 161.107 106.747 160.365C107.683 158.985 108.689 157.657 109.797 156.409C114.144 151.515 119.875 147.864 126.156 146.014C126.756 145.837 127.363 145.682 127.972 145.538C126.734 146.804 125.515 148.088 124.244 149.323C122.853 150.675 121.41 151.974 119.946 153.246C117.07 155.744 114.012 158.07 110.682 159.933C109.333 160.687 107.934 161.367 106.498 161.95C106.974 161.652 107.441 161.34 107.904 161.025C109.036 160.254 110.129 159.43 111.202 158.581C113.404 156.838 115.538 155.009 117.666 153.177C118.949 152.072 120.233 150.964 121.492 149.832C121.534 149.795 121.472 149.721 121.427 149.756C119.125 151.57 116.863 153.443 114.621 155.332C112.541 157.084 110.449 158.824 108.234 160.404C107.189 161.149 106.1 161.821 105.02 162.509C104.993 162.519 104.966 162.529 104.939 162.538C104.979 162.504 105.022 162.473 105.061 162.438ZM104.112 163.522C104.636 163.286 105.159 163.05 105.682 162.814C106.649 162.379 107.617 161.943 108.567 161.471C116.334 157.614 122.713 151.473 128.621 145.123C128.539 145.141 128.458 145.16 128.376 145.178C121.045 146.846 114.171 150.748 109.32 156.491C107.818 158.269 106.504 160.219 104.815 161.82C100.915 165.515 95.3961 167.012 91.2108 170.381C93.9817 166.791 95.2463 162.26 95.9191 157.775C96.5919 153.29 96.736 148.732 97.5755 144.275C97.5501 144.41 97.2633 144.644 97.1726 144.754C97.0158 144.944 96.8612 145.136 96.7084 145.329C96.4148 145.701 96.129 146.079 95.8511 146.463C95.2952 147.23 94.7708 148.02 94.2791 148.83C93.2949 150.45 92.4413 152.148 91.7243 153.903C90.2908 157.412 89.4046 161.147 89.1226 164.927C89.0162 166.356 89.0586 167.791 89.1304 169.22C89.1485 169.582 89.1684 169.942 89.1881 170.303C89.1976 170.477 89.207 170.65 89.2162 170.824C89.2257 170.999 89.2694 171.188 89.2254 171.36C89.1973 171.471 89.1334 171.569 89.0645 171.66C88.7671 172.054 88.3534 172.298 87.9532 172.573C87.4864 172.894 87.0198 173.215 86.5556 173.54C86.0912 173.864 85.6294 174.192 85.1718 174.526C84.8514 174.76 84.5333 174.996 84.2178 175.237C83.4149 175.829 82.6188 176.43 81.8292 177.041C81.0596 177.636 80.311 178.395 79.4822 178.9C77.7173 180.332 75.9923 181.813 74.3063 183.337C76.0126 179.926 77.3166 176.326 78.3307 172.651C79.445 168.613 80.2262 164.488 80.8931 160.354C81.272 158.005 81.5799 155.646 81.9536 153.297C81.9814 153.121 81.7669 153.065 81.6762 153.201C79.3287 156.694 77.5063 160.595 76.1394 164.568C74.7507 168.604 73.8278 172.808 73.4608 177.062C73.2582 179.409 73.1818 181.806 73.3874 184.156C73.2603 184.156 73.1996 184.251 73.1985 184.352C70.3204 187.02 67.5694 189.823 64.9841 192.776C64.0393 193.855 63.1199 194.957 62.2207 196.076C62.2118 196.074 62.2029 196.076 62.1954 196.085C62.1417 196.15 62.0885 196.216 62.0353 196.281C62.038 196.248 62.0407 196.215 62.0432 196.182C64.0882 192.091 65.7165 187.816 67.024 183.432C68.4837 178.536 69.5821 173.54 70.5474 168.525C71.0901 165.704 71.5834 162.875 72.1156 160.053C72.1425 159.911 71.9391 159.781 71.8433 159.915C68.9411 163.989 66.3869 168.372 64.4533 172.989C62.4871 177.685 61.2794 182.628 61.0862 187.723C60.9696 190.799 61.1054 193.897 61.3672 196.964C61.3421 197.013 61.3172 197.061 61.2927 197.11C61.2873 197.115 61.2819 197.119 61.2765 197.124C61.2533 197.144 61.2465 197.17 61.2498 197.195C61.2301 197.234 61.2109 197.273 61.189 197.317C60.0637 198.708 58.9656 200.123 57.9113 201.568C56.5595 203.421 55.3592 205.399 54.2141 207.384C53.5589 208.521 52.9048 209.673 52.3588 210.867C52.317 210.959 52.3653 211.035 52.4344 211.065C52.4144 211.104 52.3934 211.142 52.3737 211.18C52.3551 211.217 52.4104 211.244 52.4301 211.209C52.4544 211.164 52.4803 211.121 52.5046 211.077C52.5504 211.075 52.5963 211.054 52.6265 211.001C53.3584 209.734 54.0598 208.452 54.7846 207.183C56.7951 203.918 58.9913 200.767 61.3512 197.745C61.3655 197.745 61.379 197.748 61.3944 197.745C65.8531 196.849 70.3855 196.443 74.8872 195.834C77.1144 195.533 79.337 195.18 81.5305 194.688C83.7204 194.196 85.8472 193.528 87.9576 192.768C90.3364 191.912 92.7225 191.019 95.2309 190.624C95.443 190.591 95.4681 190.318 95.2593 190.253C90.5423 188.8 85.5358 188.307 80.6251 188.818C76.0547 189.293 71.5926 190.679 67.537 192.836C65.9049 193.704 64.3494 194.702 62.8827 195.821C63.1701 195.468 63.4586 195.116 63.7514 194.767C66.7795 191.163 70.0546 187.771 73.514 184.579C76.0274 184.552 78.5447 184.359 81.0531 184.211C83.5445 184.064 86.0348 183.895 88.521 183.675C93.4709 183.236 98.4102 182.582 103.255 181.46C106.042 180.815 108.757 179.894 111.549 179.274C111.72 179.236 111.744 178.954 111.579 178.89C106.945 177.101 101.864 176.662 96.9413 177.035C91.8277 177.423 86.8344 178.746 82.0197 180.47C79.6039 181.335 77.2243 182.299 74.8786 183.339C75.8895 182.435 76.9112 181.543 77.9507 180.672C79.6452 179.253 81.3767 177.878 83.14 176.546C84.0219 175.88 84.9116 175.224 85.8089 174.579C86.6997 173.938 87.6712 173.362 88.5237 172.674C89.4853 171.896 90.6119 171.908 91.8123 171.974C97.4522 172.284 103.116 172.396 108.744 171.909C113.429 171.502 118.145 170.681 122.805 171.316C122.789 170.513 121.976 169.988 121.247 169.648C116.654 167.5 111.491 166.697 106.429 166.982C101.367 167.267 96.4 168.614 91.7294 170.587C95.3367 168.009 99.1896 165.776 103.219 163.927C103.516 163.79 103.814 163.656 104.112 163.522Z" fill="#C98472"/>
<path d="M65.0939 103.571C63.8906 103.268 62.7048 102.897 61.5431 102.461C60.4884 102.065 59.4943 101.577 58.4901 101.078C59.3971 98.8062 59.5393 96.2576 58.8925 93.8965C58.2793 91.6586 56.8455 89.1837 54.5056 88.4278C53.3999 88.0707 52.2562 88.2386 51.2855 88.872C50.2646 89.5383 49.5606 90.584 49.0092 91.6486C48.357 92.9083 47.8685 94.3135 46.9092 95.3857C46.3654 95.9934 45.7048 96.1777 44.9197 95.9626C44.3322 95.8018 43.7628 95.5357 43.2109 95.2812C38.9015 93.2939 35.2602 89.9552 32.8425 85.8792C30.3433 81.6655 29.2795 76.7159 29.86 71.8489C29.9415 71.1686 30.0535 70.4918 30.1951 69.8212C30.3946 68.8783 30.6526 67.948 30.9661 67.0367C31.2792 66.1257 31.6475 65.2335 32.0672 64.3661C32.4868 63.4985 32.958 62.656 33.4767 61.8437C34.2666 60.6077 35.223 59.586 36.1818 58.5085C37.0678 59.535 37.9715 60.5465 38.895 61.5396C42.3201 65.2221 45.9935 68.6694 49.8914 71.8473C53.975 75.1766 58.3198 78.1106 62.7661 80.9298C65.1271 82.4265 67.4954 83.9129 69.8076 85.4849C72.0483 87.008 74.2272 88.6223 76.355 90.299C80.6246 93.6637 84.6585 97.2993 88.6198 101.018C89.0724 101.443 89.5228 101.869 89.9724 102.297C89.6334 102.302 89.2918 102.331 88.9588 102.353C88.4298 102.389 87.9022 102.44 87.376 102.506C86.3217 102.638 85.2735 102.816 84.2291 103.012C82.1342 103.405 80.0516 103.87 77.9421 104.183C73.6751 104.814 69.2801 104.625 65.0939 103.571ZM36.6605 57.9644C37.5546 56.9311 38.3175 55.8428 39.2707 54.8615C40.2235 53.8803 41.2412 52.9595 42.3404 52.144C44.0189 50.8983 45.8869 49.9165 47.8896 49.308C52.6659 47.8569 57.8899 48.6771 62.0113 51.4931C64.0709 52.9004 65.8398 54.8354 66.919 57.0963C65.784 56.8005 64.5769 57.2323 63.5581 57.8066C62.8813 58.1881 62.2452 58.648 61.644 59.1391C61.097 59.5855 60.585 60.0872 60.2507 60.7165C59.5525 62.0297 60.0016 63.5719 60.8447 64.7005C61.7735 65.9443 63.1881 66.8232 64.4835 67.6393C65.7891 68.4621 67.2779 69.2043 68.8664 69.0755C70.2586 68.9627 71.3453 68.0619 72.621 67.6056C75.9783 66.4041 77.7384 70.7848 78.8462 73.127C80.3917 76.394 81.7534 79.8444 82.5625 83.3767C81.2857 83.1827 80.0927 84.457 80.0236 85.7132C79.9286 87.4479 81.2463 88.7737 82.5158 89.7533C83.2128 90.2912 83.9301 90.7988 84.5878 91.3863C85.1901 91.9244 85.7485 92.5157 86.2661 93.135C87.3115 94.3861 88.2058 95.7818 88.8584 97.2774C89.5352 98.8297 89.9794 100.451 90.1529 102.13C86.3206 98.3706 82.3576 94.7361 78.2098 91.3264C73.9673 87.8389 69.493 84.7015 64.8832 81.7216C60.4053 78.8273 55.9517 75.9193 51.767 72.6067C47.821 69.4828 44.0842 66.0873 40.6008 62.4547C39.2251 61.0201 37.89 59.5469 36.5942 58.04C36.6163 58.0146 36.6384 57.9898 36.6605 57.9644ZM70.4691 104.871C72.6075 105.041 74.7623 105.009 76.894 104.768C79.0324 104.526 81.1419 104.103 83.256 103.709C84.4418 103.488 85.6303 103.278 86.8263 103.121C87.4324 103.041 88.041 102.974 88.6506 102.923C89.258 102.872 89.8793 102.891 90.4832 102.82C90.6163 102.804 90.7328 102.676 90.7115 102.537C90.2606 99.5899 89.1833 96.7358 87.5064 94.266C86.6687 93.0322 85.678 91.9082 84.5702 90.9105C83.3731 89.8324 81.8058 88.9877 81.0207 87.5297C80.6186 86.7827 80.3811 85.7971 80.7878 85.0016C81.1613 84.2708 82.0332 83.7864 82.8418 84.0614C83.0763 84.141 83.3084 83.938 83.2252 83.693C82.1822 80.6225 81.1535 77.5565 79.8198 74.5956C79.1827 73.1807 78.5191 71.7696 77.7702 70.4097C77.1309 69.2491 76.3445 68.0309 75.1342 67.4013C73.9538 66.7876 72.7351 67.0877 71.5971 67.6304C71.0369 67.8976 70.4901 68.1979 69.9024 68.4022C69.1602 68.6602 68.3836 68.6883 67.6182 68.5191C66.0714 68.1769 64.6959 67.207 63.4119 66.324C62.1816 65.4782 60.8992 64.4744 60.5419 62.9453C60.3486 62.1184 60.4865 61.2835 60.9974 60.5978C61.484 59.9444 62.1675 59.4495 62.8273 58.984C64.1008 58.0851 65.7888 57.1543 67.3521 57.8808C67.5621 57.9785 67.8417 57.7402 67.7313 57.5167C65.4904 52.973 61.2138 49.7128 56.2821 48.5993C51.265 47.467 46.0008 48.856 41.9199 51.9103C40.0279 53.3263 38.3404 55 36.7787 56.7689C36.5645 57.0121 36.3497 57.2558 36.1351 57.5005C34.3381 55.3834 32.6182 53.2005 30.9875 50.9528C30.6188 50.4447 30.2551 49.9333 29.8948 49.4192C29.663 49.0878 29.157 49.4607 29.3891 49.7919C31.3707 52.6171 33.4872 55.3459 35.7246 57.9722C34.5283 59.355 33.3717 60.7842 32.4428 62.3543C31.1567 64.5289 30.2194 66.9023 29.6608 69.3659C28.5649 74.2002 29.0328 79.2783 31.0908 83.7942C33.046 88.0845 36.286 91.7984 40.3021 94.2749C41.3011 94.891 42.3582 95.4199 43.4446 95.8636C44.5481 96.3143 45.8259 96.8356 46.8514 95.9383C47.8593 95.0567 48.4015 93.6618 48.9733 92.4854C49.549 91.3007 50.2072 90.0977 51.2947 89.3046C52.3574 88.5292 53.6682 88.4413 54.841 89.0228C55.9696 89.5828 56.862 90.6072 57.4538 91.7031C58.6855 93.9832 59.0125 96.7361 58.4321 99.2536C58.2855 99.8902 58.0734 100.507 57.8106 101.105C57.7404 101.265 57.8235 101.438 57.9725 101.513C58.947 101.999 59.9865 102.388 61.0055 102.77C61.991 103.139 62.9938 103.461 64.0091 103.738C66.1194 104.313 68.2883 104.698 70.4691 104.871Z" fill="#864232"/>
<path d="M70.0176 81.2226C69.5062 81.0242 68.9368 80.7277 68.7031 80.2001C68.4186 79.557 68.8394 78.8694 69.3721 78.5126C69.9453 78.1286 70.6736 78.0171 71.3467 77.9548C73.0314 77.7983 74.7337 78.11 76.2468 78.8672C76.249 78.8683 76.2506 78.8667 76.2525 78.8675C76.3785 78.9808 76.4905 79.1128 76.5785 79.275C76.9355 79.9337 76.644 80.6224 76.0571 81.0304C75.509 81.411 74.7982 81.5596 74.1489 81.6546C73.4524 81.7566 72.7427 81.7807 72.0421 81.7067C71.3496 81.6339 70.6672 81.4746 70.0176 81.2226ZM71.7793 82.2578C72.6633 82.3744 73.5677 82.3571 74.442 82.1795C75.1911 82.0276 75.9926 81.8066 76.5698 81.2779C77.1401 80.756 77.4642 79.8487 77.0119 79.146C76.5936 78.4959 75.7554 78.2819 75.0133 78.1715C73.7951 77.7187 72.4914 77.5117 71.1866 77.6021C70.3962 77.6569 69.5264 77.7964 68.8906 78.3086C68.3493 78.7447 67.9963 79.4504 68.1526 80.1504C68.4802 81.6179 70.5274 82.0929 71.7793 82.2578Z" fill="#864232"/>
<path d="M223.733 155.992C225.742 156.454 227.754 156.907 229.765 157.365C231.775 157.823 233.786 158.28 235.796 158.738C237.646 159.159 239.52 159.691 241.422 159.796C241.931 159.824 242.447 159.814 242.956 159.76C242.931 159.77 242.907 159.781 242.882 159.79C242.276 160.012 241.652 160.187 241.021 160.318C239.735 160.584 238.419 160.676 237.108 160.661C234.429 160.63 231.706 160.211 229.102 159.597C227.572 159.236 226.066 158.785 224.617 158.174C224.585 158.16 224.562 158.209 224.594 158.224C227.13 159.39 229.838 160.041 232.586 160.477C235.284 160.905 238.063 161.23 240.781 160.795C241.477 160.683 242.166 160.524 242.838 160.309C242.892 160.292 242.947 160.274 243.002 160.256C240.538 161.56 237.696 162.146 234.927 162.424C232.887 162.629 230.806 162.665 228.791 162.234C226.643 161.776 224.677 160.752 222.875 159.521C221.02 158.254 219.181 156.721 218.157 154.684C220.004 155.163 221.873 155.564 223.733 155.992ZM242.888 161.795C242.805 161.873 242.725 161.954 242.637 162.029C242.104 162.486 241.536 162.902 240.96 163.303C239.808 164.107 238.644 164.894 237.461 165.653C235.058 167.193 232.592 168.639 230.072 169.979C228.665 170.727 227.242 171.445 225.796 172.117C225.772 172.128 225.786 172.167 225.811 172.156C231.081 169.829 236.174 167.086 240.893 163.773C241.24 163.529 241.584 163.283 241.921 163.027C239.703 165.208 237.154 167.072 234.568 168.783C230.856 171.238 226.892 173.388 222.633 174.727C220.511 175.393 218.333 175.839 216.118 175.992C219.926 173.662 223.701 171.28 227.658 169.205C229.728 168.119 231.84 167.122 233.997 166.224C236.144 165.33 238.319 164.49 240.368 163.382C241.24 162.91 242.088 162.384 242.888 161.795ZM244.895 152.3C241.293 152.502 237.6 152.453 234.055 151.72C232.407 151.379 230.794 150.883 229.251 150.216C230.631 150.202 232.013 149.921 233.375 149.745C235.147 149.515 236.926 149.33 238.709 149.205C242.241 148.958 245.797 148.948 249.321 149.324C250.822 149.485 252.313 149.724 253.79 150.033C253.511 150.058 253.234 150.09 252.969 150.104C252.276 150.143 251.583 150.178 250.89 150.21C249.547 150.272 248.204 150.32 246.86 150.357C244.132 150.432 241.402 150.503 238.673 150.507C238.632 150.507 238.64 150.568 238.679 150.569C241.418 150.66 244.151 150.717 246.891 150.674C248.236 150.652 249.581 150.618 250.926 150.572C251.619 150.548 252.313 150.521 253.007 150.49C253.453 150.47 253.937 150.489 254.399 150.444C251.378 151.623 248.122 152.118 244.895 152.3ZM255.981 142.818C252.726 143.432 249.386 143.588 246.088 143.283C244.484 143.135 242.863 142.907 241.3 142.499C242.601 142.07 243.897 141.629 245.221 141.266C246.781 140.838 248.361 140.484 249.954 140.201C253.092 139.646 256.279 139.369 259.467 139.379C260.894 139.384 262.321 139.455 263.743 139.576C263.677 139.602 263.611 139.63 263.543 139.652C263.031 139.816 262.506 139.94 261.982 140.059C260.946 140.293 259.901 140.498 258.85 140.655C256.767 140.968 254.659 141.134 252.558 141.267C251.354 141.343 250.149 141.415 248.943 141.482C248.921 141.483 248.925 141.516 248.946 141.516C253.296 141.488 257.692 141.43 261.968 140.544C262.427 140.449 262.885 140.345 263.338 140.224C261.094 141.552 258.541 142.335 255.981 142.818ZM264.945 143.572C264.999 142.907 265.044 142.24 265.08 141.573C265.088 141.437 265.097 141.3 265.106 141.163C265.722 144.103 265.939 147.103 265.668 150.113C265.343 153.737 264.368 157.301 262.78 160.577C261.994 162.198 261.056 163.723 259.984 165.166C260.595 161.949 260.586 158.658 260.871 155.402C261.188 151.774 262.09 148.274 263.322 144.853C263.749 143.667 264.209 142.494 264.683 141.326C264.664 141.932 264.638 142.539 264.603 143.145C264.535 144.36 264.438 145.573 264.311 146.783C264.058 149.201 263.688 151.608 263.21 153.992C262.94 155.342 262.643 156.686 262.31 158.021C262.307 158.029 262.32 158.031 262.322 158.023C263.687 153.31 264.549 148.463 264.945 143.572ZM252.121 162.232C252.99 159.907 253.725 157.531 254.387 155.14C254.575 154.459 254.759 153.778 254.941 153.095C255.055 152.669 255.171 152.245 255.265 151.816C255.358 154.939 255.034 158.048 254.183 161.071C253.18 164.629 251.517 168.007 249.293 170.961C248.223 172.382 247.023 173.701 245.707 174.895C247.044 172.085 247.821 169.045 248.623 166.048C249.075 164.36 249.534 162.671 250.107 161.019C250.715 159.265 251.502 157.595 252.401 155.973C253.133 154.65 253.897 153.347 254.69 152.061C254.471 152.834 254.307 153.628 254.108 154.399C253.791 155.623 253.467 156.846 253.122 158.063C252.431 160.496 251.651 162.908 250.685 165.247C250.151 166.542 249.586 167.835 248.927 169.072C248.926 169.075 248.93 169.076 248.931 169.074C250.181 166.873 251.234 164.603 252.121 162.232ZM245.294 160.672C245.33 160.49 245.356 160.309 245.376 160.128C245.412 160.046 245.453 159.965 245.488 159.882C245.426 160.146 245.361 160.408 245.294 160.672ZM242.994 166.035C243.571 165.085 244.078 164.086 244.5 163.058C244.688 162.597 244.882 162.107 245.043 161.607C243.651 166.572 241.283 171.355 237.123 174.553C236.093 175.345 235.003 175.977 233.838 176.499C235.691 174.566 237.213 172.345 238.7 170.122C239.56 168.835 240.414 167.543 241.325 166.291C242.157 165.15 243.035 164.042 243.827 162.871C244.12 162.437 244.398 161.992 244.659 161.539C244.512 162.021 244.347 162.497 244.162 162.965C243.766 163.966 243.283 164.926 242.753 165.861C241.648 167.812 240.324 169.623 238.934 171.379C238.917 171.4 238.949 171.426 238.966 171.405C240.426 169.708 241.83 167.952 242.994 166.035ZM217.536 154.427C218.568 156.397 220.148 157.939 221.938 159.229C223.716 160.51 225.661 161.638 227.771 162.266C229.796 162.868 231.934 162.946 234.029 162.801C236.096 162.659 238.169 162.35 240.158 161.762C241.663 161.318 243.126 160.713 244.44 159.869C241.666 162.608 237.861 164.105 234.296 165.583C230.009 167.36 225.921 169.526 221.937 171.899C219.67 173.249 217.428 174.645 215.211 176.075C215.035 176.189 215.16 176.452 215.35 176.44C219.819 176.162 224.135 174.83 228.149 172.881C230.174 171.898 232.126 170.772 234.018 169.555C236.102 168.215 238.14 166.785 240.043 165.197C241.887 163.659 243.597 161.95 245.027 160.022C244.065 162.144 242.54 163.979 241.159 165.843C239.399 168.219 237.856 170.748 236.085 173.115C235.058 174.487 233.952 175.802 232.7 176.975C232.519 177.146 232.653 177.485 232.922 177.384C235.719 176.327 238.222 174.354 240.154 172.1C242.165 169.753 243.611 166.973 244.604 164.058C245.166 162.407 245.562 160.717 245.844 158.997C245.845 158.989 245.844 158.982 245.843 158.975C245.929 158.865 246.013 158.754 246.096 158.641C246.276 158.511 246.45 158.37 246.616 158.214C246.672 158.162 246.696 158.098 246.697 158.035C249.495 155.744 252.222 153.344 254.841 150.86C254.947 150.759 255.052 150.657 255.157 150.556C255.165 150.553 255.172 150.549 255.18 150.546C253.234 153.582 251.337 156.734 250.093 160.124C248.898 163.377 248.179 166.77 247.155 170.075C246.567 171.975 245.864 173.837 244.933 175.597C244.846 175.761 245.072 175.952 245.216 175.83C248.083 173.404 250.453 170.43 252.212 167.113C253.978 163.785 255.128 160.121 255.559 156.377C255.766 154.569 255.81 152.739 255.636 150.926C255.625 150.808 255.6 150.685 255.602 150.566C255.602 150.542 255.606 150.518 255.613 150.495C255.633 150.421 255.649 150.346 255.673 150.273C255.727 150.106 255.814 149.95 255.927 149.816C255.987 149.744 256.056 149.685 256.125 149.624C256.201 149.557 256.27 149.483 256.342 149.413C256.486 149.272 256.63 149.13 256.774 148.988C257.062 148.704 257.348 148.419 257.632 148.133C257.916 147.846 258.199 147.558 258.48 147.268C258.761 146.978 259.04 146.687 259.318 146.393C259.595 146.1 259.871 145.805 260.144 145.508C260.417 145.211 260.689 144.912 260.958 144.611C261.227 144.31 261.494 144.008 261.759 143.703C262.023 143.398 262.285 143.091 262.545 142.782C262.804 142.472 263.061 142.161 263.316 141.848C263.505 141.614 263.693 141.379 263.879 141.143C264.158 140.789 264.431 140.429 264.702 140.069C264.701 140.141 264.698 140.212 264.697 140.283C263.486 143.225 262.352 146.204 261.559 149.287C261.106 151.045 260.773 152.83 260.586 154.636C260.403 156.401 260.332 158.175 260.219 159.945C260.091 161.946 259.906 163.946 259.45 165.902C259.407 166.087 259.667 166.196 259.78 166.053C262.072 163.175 263.768 159.814 264.834 156.299C265.913 152.742 266.346 148.976 266.069 145.267C265.938 143.52 265.659 141.774 265.193 140.083C265.336 139.74 265.478 139.396 265.622 139.053C265.65 138.986 265.633 138.916 265.594 138.862C265.762 138.628 265.935 138.398 266.1 138.162C266.81 137.15 267.511 136.118 268.062 135.01C268.142 134.848 267.903 134.695 267.792 134.841C266.746 136.223 265.789 137.669 264.766 139.068C264.722 139.079 264.683 139.109 264.663 139.153C258.314 138.509 251.865 139.016 245.69 140.627C243.932 141.087 242.155 141.599 240.481 142.313C240.284 142.397 240.311 142.684 240.522 142.728C242.182 143.068 243.834 143.409 245.521 143.591C247.182 143.771 248.857 143.834 250.527 143.784C253.903 143.682 257.355 143.156 260.53 141.975C261.638 141.563 262.711 141.056 263.719 140.441C262.426 142.075 261.065 143.655 259.655 145.188C258.191 146.778 256.67 148.311 255.117 149.812C248.267 148.192 241.135 148.326 234.187 149.177C233.196 149.299 232.208 149.441 231.22 149.581C230.216 149.723 229.199 149.842 228.185 149.734C227.946 149.708 227.828 150.035 228.057 150.145C231.381 151.736 235.064 152.445 238.723 152.675C242.409 152.908 246.201 152.8 249.838 152.133C251.179 151.888 252.497 151.547 253.777 151.095C252.569 152.238 251.347 153.366 250.123 154.49C248.921 155.592 247.702 156.676 246.494 157.772C246.443 157.766 246.389 157.78 246.337 157.829C246.198 157.958 246.054 158.076 245.909 158.186C245.894 158.195 245.879 158.202 245.866 158.215C245.855 158.224 245.844 158.233 245.834 158.243C243.083 160.246 239.163 158.943 236.152 158.257C232.262 157.37 228.372 156.483 224.482 155.597C222.256 155.089 220.031 154.545 217.787 154.122C217.631 154.092 217.453 154.27 217.536 154.427Z" fill="#864232"/>
<path d="M82.8473 130.313C79.0543 133.017 75.2512 135.696 71.5349 138.506C70.8754 136.077 71.6434 133.695 72.2012 131.32C73.3662 131.117 74.5357 130.936 75.7088 130.781C78.0928 130.468 80.4938 130.274 82.8961 130.169C82.8807 130.217 82.8629 130.265 82.8473 130.313ZM76.5174 143.56C75.626 144.955 74.6825 146.314 73.7019 147.646C73.3244 147.655 72.949 147.696 72.5677 147.673C72.0951 147.645 71.6261 147.573 71.1609 147.488C70.3154 147.335 69.4769 147.141 68.6484 146.913C66.9672 146.449 65.3332 145.83 63.7609 145.075C65.8157 143.406 67.8896 141.761 69.984 140.142C73.8401 137.163 77.7512 134.255 81.7165 131.422C82.0417 131.19 82.3715 130.965 82.7021 130.74C81.1981 135.262 79.0829 139.544 76.5174 143.56ZM72.4964 149.25C70.5974 149.455 68.6541 149.01 66.8136 148.562C65.9301 148.347 65.0552 148.092 64.2011 147.78C63.3678 147.475 62.5789 147.084 61.7847 146.693C62.3595 146.219 62.9365 145.747 63.5143 145.277C63.5259 145.29 63.5388 145.301 63.5572 145.31C65.1874 146.101 66.886 146.746 68.6328 147.228C69.5196 147.473 70.419 147.679 71.326 147.834C71.9705 147.944 72.7407 148.083 73.4326 148.012C73.1236 148.427 72.8122 148.84 72.4964 149.25ZM67.1491 155.632C66.6722 156.16 66.1908 156.685 65.7056 157.206C65.2506 157.695 64.7352 158.481 64.0281 158.571C63.6309 158.621 63.211 158.549 62.8148 158.513C62.4011 158.476 61.9879 158.436 61.5753 158.392C60.7061 158.3 59.8414 158.178 58.9749 158.067C58.7814 158.042 58.5537 158.246 58.694 158.445C59.5864 159.709 60.7369 161.577 59.7883 163.111C59.3039 163.894 58.4514 164.503 57.7316 165.056C56.9453 165.66 56.1176 166.21 55.2605 166.709C53.5909 167.682 51.8125 168.457 49.9812 169.07C48.1137 169.694 46.1267 170.268 44.1578 170.435C42.4339 170.582 40.3899 170.269 39.2433 168.883C39.2414 168.851 39.2325 168.819 39.2082 168.79C39.1243 168.688 39.042 168.586 38.9605 168.483C38.9219 168.421 38.8814 168.361 38.8463 168.295C38.8263 168.258 38.7972 168.239 38.7659 168.234C38.7532 168.217 38.7416 168.2 38.7289 168.183C41.5263 164.917 44.589 161.899 47.7351 158.972C51.2797 155.673 54.9143 152.47 58.6106 149.342C59.6048 148.501 60.6046 147.666 61.6085 146.837C63.1295 147.879 65.0307 148.43 66.8039 148.846C67.7563 149.069 68.7186 149.258 69.6826 149.424C70.511 149.566 71.3919 149.696 72.2368 149.589C70.619 151.667 68.9126 153.677 67.1491 155.632ZM35.3529 154.677C35.8905 152.259 37.0625 150.089 38.7157 148.252C39.9986 146.826 41.4796 145.569 43.0257 144.419C42.8082 145.253 42.7175 146.131 42.6703 146.982C42.6077 148.102 42.6452 149.225 42.7318 150.343C42.9145 152.703 43.2219 155.073 43.7168 157.389C43.9869 158.653 44.3027 159.947 44.8311 161.133C42.894 162.979 41.0047 164.874 39.2155 166.864C38.9483 167.161 38.6857 167.463 38.4232 167.765C35.7143 164.014 34.3334 159.266 35.3529 154.677ZM44.5914 143.3C44.9433 143.058 45.299 142.821 45.6566 142.588C45.5006 143.427 45.465 144.283 45.4596 145.138C45.4523 146.302 45.4952 147.468 45.5567 148.63C45.676 150.888 45.8404 153.178 46.287 155.398C46.521 156.558 46.8626 157.691 47.3708 158.761C46.6108 159.46 45.8536 160.161 45.1047 160.871C44.7949 159.849 44.4552 158.839 44.1958 157.801C43.9079 156.648 43.6823 155.481 43.5042 154.307C43.1676 152.086 42.9034 149.823 42.9688 147.573C43.0025 146.413 43.1814 145.292 43.3854 144.157C43.7851 143.866 44.1872 143.579 44.5914 143.3ZM52.1892 138.994C52.8908 140.065 53.7641 141.006 54.7623 141.81C54.9073 141.926 55.1059 141.847 55.1175 141.657C55.1866 140.516 55.2346 139.375 55.2678 138.232C55.2818 137.747 55.2419 137.23 55.3601 136.754C55.4883 136.239 55.8842 135.933 56.3454 135.717C57.3331 135.256 58.4066 134.931 59.4372 134.581C60.4924 134.222 61.5543 133.884 62.6221 133.567C65.276 132.778 67.9668 132.122 70.6835 131.597C70.3669 131.999 70.2053 132.47 70.0906 132.987C69.9138 133.781 69.7843 134.588 69.6823 135.394C69.5846 136.166 69.5101 136.944 69.4807 137.723C69.4537 138.443 69.4818 139.199 69.7465 139.877C66.3665 142.478 63.0393 145.149 59.7659 147.882C56.0096 151.018 52.3322 154.245 48.7101 157.535C48.3474 157.864 47.9871 158.197 47.6258 158.528C46.7172 156.607 46.3844 154.487 46.1583 152.389C45.9192 150.171 45.7824 147.942 45.7486 145.711C45.7319 144.61 45.7092 143.508 45.9124 142.424C47.9197 141.131 50.0152 139.983 52.1892 138.994ZM71.0154 131.536C71.3455 131.473 71.676 131.414 72.0072 131.355C71.1466 133.673 70.5305 136.298 71.2443 138.725C71.2211 138.743 71.1976 138.76 71.1741 138.778C70.7896 139.07 70.4088 139.368 70.0256 139.662C69.7406 138.26 69.862 136.829 70.0323 135.415C70.116 134.718 70.2253 134.024 70.3594 133.335C70.4792 132.72 70.6249 132.045 71.0154 131.536ZM83.2057 129.708C78.5894 129.957 73.9855 130.563 69.4624 131.52C67.1971 131.999 64.9481 132.56 62.7257 133.211C61.5937 133.543 60.4683 133.897 59.3508 134.275C58.3218 134.623 57.2664 134.952 56.2684 135.383C55.835 135.569 55.4138 135.826 55.1752 136.248C54.9456 136.654 54.8997 137.128 54.8676 137.584C54.782 138.802 54.7389 140.023 54.7103 141.244C53.8062 140.511 53.0514 139.615 52.4472 138.619C52.3824 138.512 52.2642 138.499 52.1579 138.544C49.6279 139.632 47.1865 140.944 44.9031 142.485C42.7116 143.963 40.5572 145.607 38.7446 147.54C37.0336 149.366 35.7475 151.505 35.1068 153.933C34.4805 156.307 34.4397 158.818 34.9622 161.216C35.5054 163.71 36.6353 166.024 38.1854 168.036C35.6695 170.962 33.3943 174.112 31.5821 177.521C31.3306 177.994 31.0888 178.472 30.8554 178.954C30.6986 179.278 31.1887 179.554 31.3449 179.228C33.2186 175.318 35.7067 171.742 38.5074 168.442C38.6644 168.634 38.8242 168.825 38.9888 169.012C39.0012 169.026 39.0147 169.033 39.0282 169.042C39.9646 170.241 41.4848 170.896 43.0038 170.973C44.0728 171.027 45.1412 170.861 46.1836 170.639C47.241 170.414 48.2888 170.14 49.3216 169.82C51.3402 169.195 53.3089 168.384 55.1515 167.346C56.0674 166.83 56.9517 166.257 57.7913 165.623C58.5547 165.047 59.4132 164.431 59.9847 163.655C61.1479 162.074 60.3032 160.166 59.4091 158.644C60.7145 158.834 62.0341 158.971 63.347 159.068C64.0465 159.12 64.6051 159.016 65.1259 158.524C65.5858 158.089 66.0035 157.6 66.4329 157.135C68.2159 155.204 69.9462 153.223 71.5948 151.175C74.8642 147.114 77.8305 142.783 80.1681 138.114C81.4766 135.501 82.5914 132.786 83.4261 129.983C83.4663 129.848 83.3444 129.7 83.2057 129.708Z" fill="#C98472"/>
</g>
<rect x="31.8221" y="56.059" width="217.356" height="134.687" rx="4.75" stroke="#B9AEAE" stroke-width="0.5"/>
<g clip-path="url(#clip2_455_948)">
<path d="M-20.2928 393.193H303.78V177.144H-20.2928V393.193Z" fill="#FFFAF0"/>
<path d="M115.629 395.054H306.465V226.522C306.465 226.522 237.481 212.369 186.836 265.765C140.005 315.14 154.688 341.278 115.629 395.054Z" fill="#FFE8D4"/>
<path d="M113.018 168.167C105.782 180.409 102.935 205.444 120.108 217.172C137.28 228.901 163.032 216.514 188.323 214.277C213.614 212.041 225.535 220.893 242.051 247.995C258.516 275.011 297.871 284.004 322.66 265.665C341.138 251.996 335.172 177.509 311.328 164.103C284.658 149.107 123.821 149.886 113.018 168.167Z" fill="#FFC36B"/>
<path d="M259.968 199.09C257.338 199.09 255.196 199.732 253.731 201.013C252.332 202.236 251.706 203.96 252.056 205.622C252.383 207.177 253.479 208.353 255.065 208.85C257.548 209.627 259.944 208.861 261.815 206.692C263.232 205.049 264.283 202.634 264.682 199.665C262.986 199.281 261.404 199.09 259.968 199.09ZM303.904 232.421C301.889 232.422 299.777 232.085 297.569 231.31C290.817 228.942 286.858 222.406 283.03 216.084C279.187 209.736 275.212 203.172 268.415 200.758C267.42 200.405 266.452 200.108 265.517 199.867C265.085 202.979 263.967 205.519 262.47 207.256C260.391 209.667 257.599 210.549 254.807 209.674C252.942 209.09 251.598 207.642 251.21 205.8C250.795 203.827 251.525 201.794 253.163 200.362C254.691 199.025 258.097 197.276 264.779 198.79C265.128 194.799 264.331 189.908 261.755 184.591C258.244 177.341 252.113 171.694 244.494 168.688C236.789 165.649 228.568 165.745 221.345 168.96C221.127 169.057 220.872 168.959 220.775 168.741C220.678 168.523 220.776 168.267 220.994 168.17C228.43 164.861 236.888 164.759 244.812 167.884C252.632 170.969 258.926 176.769 262.534 184.214C265.205 189.729 266.011 194.824 265.618 198.994C266.582 199.242 267.609 199.555 268.704 199.944C275.792 202.461 279.847 209.159 283.77 215.636C287.692 222.113 291.395 228.23 297.855 230.495C309.15 234.456 317.637 226.662 323.835 220.971C326.826 218.224 328.987 216.239 330.762 216.239C336.011 216.239 341.103 225.112 341.318 225.489C341.436 225.697 341.363 225.96 341.155 226.078C340.948 226.196 340.684 226.123 340.566 225.916C340.516 225.827 335.509 217.103 330.762 217.103C329.324 217.103 327.051 219.191 324.419 221.607C319.544 226.084 312.642 232.421 303.904 232.421Z" fill="#FFFAF0"/>
<path d="M40.7157 250.432C40.7157 253.106 45.4186 252.955 45.4186 250.432C45.4186 247.908 40.7157 247.758 40.7157 250.432Z" fill="#9DBEAA"/>
<path d="M66.194 249.374C66.7981 251.845 70.893 249.376 69.6538 248.137C68.4141 246.897 65.5899 246.902 66.194 249.374Z" fill="#FFD18D"/>
<path d="M187.515 229.816C186.885 232.576 197.063 233.469 198.729 229.563C200.395 225.657 189.505 221.093 187.515 229.816Z" fill="#FFD2B4"/>
<path d="M208.484 228.61C205.471 229.524 207.525 233.3 209.786 232.497C212.047 231.694 211.019 227.841 208.484 228.61Z" fill="#FF8966"/>
<path d="M180.835 251.289C182.614 250.951 186.179 243.183 184.637 242.502C183.094 241.82 181.301 245.586 181.301 245.586C181.301 245.586 181.229 241.725 180.01 241.725C178.791 241.725 178.898 245.765 178.898 245.765C178.898 245.765 176.433 241.153 174.855 242.234C173.277 243.316 178.755 251.683 180.835 251.289Z" fill="#9DBEAA"/>
<path d="M63.5037 210.366C62.2014 211.778 58.5713 214.63 48.6197 218.611C47.1199 219.21 45.5358 219.828 43.8805 220.475C29.7816 225.977 10.4726 233.513 -5.40527 248.767C-23.0046 265.675 -24.4318 274.422 -24.2507 278.292C-23.0257 275.694 -18.9485 269.883 -5.70903 263.552C-2.30065 261.922 1.12156 260.351 4.43099 258.831C18.6042 252.324 31.9909 246.179 46.362 234.917C60.8139 223.593 63.1364 213.593 63.5037 210.366ZM-24.4344 280.095H-24.4417C-24.6033 280.092 -24.7381 279.972 -24.7602 279.812C-25.2454 276.229 -24.3272 272.323 -21.9537 267.87C-18.9709 262.273 -13.5559 255.687 -5.86026 248.293C10.1118 232.949 29.4912 225.385 43.6415 219.862C45.2952 219.217 46.8775 218.599 48.3756 218C62.201 212.47 63.5767 209.187 63.5888 209.154C63.6441 209.008 63.7954 208.918 63.9492 208.943C64.1035 208.967 64.2201 209.093 64.2271 209.249C64.2491 209.742 64.5606 221.491 46.7673 235.435C32.3357 246.744 18.9144 252.905 4.70537 259.429C1.3981 260.947 -2.02195 262.517 -5.42558 264.144C-22.5772 272.346 -24.0973 279.751 -24.1107 279.825C-24.1393 279.981 -24.2754 280.095 -24.4344 280.095Z" fill="#FF8966"/>
<path d="M-24.434 280.096C-24.4392 280.096 -24.4444 280.096 -24.45 280.096C-24.6311 280.087 -24.7711 279.934 -24.7628 279.752C-24.7443 279.358 -24.1164 269.976 -7.14841 258.812C-2.57812 255.805 3.84759 252.34 11.2879 248.328C31.6297 237.358 56.9458 223.707 63.6001 209.127C63.6753 208.962 63.871 208.889 64.0352 208.964C64.2003 209.04 64.2733 209.235 64.1977 209.4C57.4518 224.18 32.0281 237.89 11.5998 248.906C4.17295 252.911 -2.24109 256.37 -6.78675 259.361C-15.5285 265.112 -19.7773 270.385 -21.8021 273.795C-23.9743 277.452 -24.1052 279.76 -24.1061 279.783C-24.1143 279.959 -24.2594 280.096 -24.434 280.096Z" fill="#FF8966"/>
<path d="M297.675 287.006C283.842 287.007 272.503 282.356 263.259 272.953C252.635 262.147 246.263 246.571 240.642 232.829C233.698 215.854 227.7 201.194 215.963 199.451C198.891 196.913 184.395 206.47 170.377 215.712C158.458 223.569 147.2 230.99 134.858 230.99C130.176 230.99 126.34 229.205 123.459 225.684C118.479 219.596 116.32 208.508 117.041 192.726C117.577 181.018 119.589 170.951 119.61 170.85C119.657 170.617 119.883 170.464 120.119 170.512C120.353 170.56 120.504 170.788 120.457 171.021C120.376 171.42 112.552 210.988 124.129 225.136C126.837 228.448 130.448 230.126 134.858 230.126C146.941 230.126 158.094 222.774 169.901 214.99C184.055 205.66 198.695 196.013 216.089 198.596C228.314 200.412 234.398 215.283 241.441 232.502C247.033 246.17 253.37 261.662 263.874 272.347C275.897 284.576 291.563 288.615 311.763 284.694C311.997 284.649 312.224 284.802 312.269 285.036C312.315 285.27 312.162 285.497 311.927 285.543C306.907 286.517 302.158 287.006 297.675 287.006Z" fill="#FF8966"/>
</g>
<rect x="31.8221" y="211.246" width="217.356" height="134.687" rx="4.75" stroke="#B9AEAE" stroke-width="0.5"/>
<path d="M254.823 112.121C254.873 112.078 255.065 111.898 255.244 111.75C256.291 110.817 259.024 109.291 260.454 108.825C260.671 108.75 261.22 108.591 261.514 108.581C261.795 108.581 262.063 108.633 262.318 108.74C262.637 108.888 262.893 109.121 263.033 109.397C263.123 109.588 263.263 110.16 263.263 110.17C263.404 110.796 263.481 111.813 263.481 112.937C263.481 114.008 263.404 114.983 263.289 115.619C263.276 115.629 263.136 116.34 262.982 116.584C262.701 117.028 262.152 117.305 261.564 117.305H261.514C261.131 117.294 260.326 117.018 260.326 117.007C258.973 116.541 256.304 115.089 255.231 114.124C255.231 114.124 254.929 113.876 254.797 113.721C254.592 113.499 254.491 113.223 254.491 112.948C254.491 112.64 254.605 112.354 254.823 112.121Z" fill="white" stroke="#B9AEAE" stroke-width="0.5"/>
<rect x="259.194" y="56.059" width="89.5" height="139.408" rx="7.75" fill="white" stroke="#B9AEAE" stroke-width="0.5"/>
<path d="M254.823 112.121C254.873 112.078 255.065 111.898 255.244 111.75C256.291 110.817 259.024 109.291 260.454 108.825C260.671 108.75 261.22 108.591 261.514 108.581C261.795 108.581 262.063 108.633 262.318 108.74C262.637 108.888 262.893 109.121 263.033 109.397C263.123 109.588 263.263 110.16 263.263 110.17C263.403 110.796 263.481 111.813 263.481 112.937C263.481 114.008 263.403 114.983 263.289 115.619C263.276 115.629 263.135 116.34 262.982 116.584C262.701 117.028 262.152 117.305 261.564 117.305H261.514C261.131 117.294 260.326 117.018 260.326 117.007C258.973 116.541 256.304 115.089 255.231 114.124C255.231 114.124 254.929 113.876 254.797 113.721C254.592 113.499 254.491 113.223 254.491 112.948C254.491 112.64 254.605 112.354 254.823 112.121Z" fill="white" stroke="#B9AEAE" stroke-width="0.5"/>
<g clip-path="url(#clip3_455_948)">
<path d="M254.848 112.121C254.899 112.078 255.09 111.898 255.269 111.75C256.316 110.817 259.049 109.291 260.479 108.825C260.696 108.75 261.245 108.591 261.539 108.581C261.82 108.581 262.088 108.633 262.344 108.74C262.662 108.888 262.918 109.121 263.058 109.397C263.148 109.588 263.289 110.16 263.289 110.17C263.429 110.796 263.506 111.813 263.506 112.937C263.506 114.008 263.429 114.983 263.314 115.619C263.301 115.629 263.161 116.34 263.007 116.584C262.726 117.028 262.177 117.305 261.59 117.305H261.539C261.156 117.294 260.351 117.018 260.351 117.007C258.998 116.541 256.329 115.089 255.256 114.124C255.256 114.124 254.954 113.876 254.822 113.721C254.617 113.499 254.516 113.223 254.516 112.948C254.516 112.64 254.631 112.354 254.848 112.121Z" fill="white" stroke="white" stroke-width="0.52"/>
</g>
<rect x="265.194" y="62.059" width="77.5" height="41.9919" rx="3.75" fill="#B9AEAE" stroke="#B9AEAE" stroke-width="0.5"/>
<path d="M311.554 81.552C311.461 81.4749 311.11 81.1453 310.784 80.8743C308.869 79.1693 303.874 76.3787 301.26 75.527C300.863 75.3901 299.859 75.1004 299.323 75.0818C298.809 75.0818 298.319 75.1775 297.852 75.3715C297.269 75.6426 296.802 76.0691 296.545 76.5728C296.381 76.9222 296.124 77.9681 296.124 77.9867C295.868 79.1308 295.727 80.9899 295.727 83.0443C295.727 85.0017 295.868 86.785 296.078 87.9464C296.102 87.965 296.358 89.2646 296.638 89.7098C297.152 90.523 298.156 91.028 299.23 91.028H299.323C300.022 91.0081 301.494 90.5031 301.494 90.4845C303.967 89.6314 308.846 86.9777 310.808 85.2143C310.808 85.2143 311.36 84.7611 311.6 84.4781C311.975 84.0715 312.16 83.5678 312.16 83.0642C312.16 82.5021 311.951 81.9785 311.554 81.552Z" fill="white" stroke="#B9AEAE" stroke-width="0.91397"/>
<path d="M264.944 128.136C266.677 126.136 268.411 126.136 270.144 128.136C271.877 130.136 273.611 130.136 275.344 128.136C277.077 126.136 278.811 126.136 280.544 128.136C282.277 130.136 284.011 130.136 285.744 128.136C287.477 126.136 289.211 126.136 290.944 128.136C292.677 130.136 294.411 130.136 296.144 128.136C297.877 126.136 299.611 126.136 301.344 128.136C303.077 130.136 304.811 130.136 306.544 128.136C308.277 126.136 310.011 126.136 311.744 128.136C313.477 130.136 315.211 130.136 316.944 128.136C318.677 126.136 320.411 126.136 322.144 128.136C323.877 130.136 325.611 130.136 327.344 128.136C329.077 126.136 330.811 126.136 332.544 128.136C334.277 130.136 336.011 130.136 337.744 128.136C339.477 126.136 341.211 126.136 342.944 128.136" stroke="#969696" stroke-width="0.4"/>
<path d="M264.944 141.811C266.677 139.811 268.411 139.811 270.144 141.811C271.877 143.811 273.611 143.811 275.344 141.811C277.077 139.811 278.811 139.811 280.544 141.811C282.277 143.811 284.011 143.811 285.744 141.811C287.477 139.811 289.211 139.811 290.944 141.811C292.677 143.811 294.411 143.811 296.144 141.811C297.877 139.811 299.611 139.811 301.344 141.811C303.077 143.811 304.811 143.811 306.544 141.811C308.277 139.811 310.011 139.811 311.744 141.811C313.477 143.811 315.211 143.811 316.944 141.811C318.677 139.811 320.411 139.811 322.144 141.811C323.877 143.811 325.611 143.811 327.344 141.811C329.077 139.811 330.811 139.811 332.544 141.811C334.277 143.811 336.011 143.811 337.744 141.811C339.477 139.811 341.211 139.811 342.944 141.811" stroke="#969696" stroke-width="0.4"/>
<path d="M264.944 155.487C266.677 153.487 268.411 153.487 270.144 155.487C271.877 157.487 273.611 157.487 275.344 155.487C277.077 153.487 278.811 153.487 280.544 155.487C282.277 157.487 284.011 157.487 285.744 155.487C287.477 153.487 289.211 153.487 290.944 155.487C292.677 157.487 294.411 157.487 296.144 155.487C297.877 153.487 299.611 153.487 301.344 155.487C303.077 157.487 304.811 157.487 306.544 155.487C308.277 153.487 310.011 153.487 311.744 155.487C313.477 157.487 315.211 157.487 316.944 155.487C318.677 153.487 320.411 153.487 322.144 155.487C323.877 157.487 325.611 157.487 327.344 155.487C329.077 153.487 330.811 153.487 332.544 155.487C334.277 157.487 336.011 157.487 337.744 155.487C339.477 153.487 341.211 153.487 342.944 155.487" stroke="#969696" stroke-width="0.4"/>
</g>
<rect x="1" y="0.5" width="389" height="250.19" rx="9.5" stroke="#F0F1F8"/>
<defs>
<clipPath id="clip0_455_948">
<rect x="0.5" width="390" height="251.19" rx="10" fill="white"/>
</clipPath>
<clipPath id="clip1_455_948">
<rect x="31.5721" y="55.809" width="217.856" height="135.187" rx="5" fill="white"/>
</clipPath>
<clipPath id="clip2_455_948">
<rect x="31.5721" y="210.996" width="217.856" height="135.187" rx="5" fill="white"/>
</clipPath>
<clipPath id="clip3_455_948">
<rect width="4.5" height="10" fill="white" transform="translate(259.446 108)"/>
</clipPath>
</defs>
</svg>
