<svg width="17" height="17" viewBox="0 0 17 17" fill="none" xmlns="http://www.w3.org/2000/svg">
<path d="M14.773 6.17259H10.4752V1.87724C10.4752 0.855009 9.64696 0.024292 8.62473 0.024292C7.6025 0.024292 6.77179 0.855009 6.77179 1.87724V6.17259H2.47644C1.45421 6.17259 0.625977 7.00331 0.625977 8.02554C0.625977 9.04776 1.45421 9.87848 2.47644 9.87848H6.77179V14.1713C6.77179 15.1936 7.6025 16.0243 8.62473 16.0243C9.64696 16.0243 10.4752 15.1936 10.4752 14.1713V9.87848H14.773C15.7953 9.87848 16.626 9.04776 16.626 8.02554C16.626 7.00331 15.7953 6.17259 14.773 6.17259Z" fill="black"/>
</svg>
