<svg width="94" height="94" viewBox="0 0 94 94" fill="none" xmlns="http://www.w3.org/2000/svg">
<path fill-rule="evenodd" clip-rule="evenodd" d="M47.3134 3.87061C71.2373 3.87061 90.6316 23.2649 90.6316 47.1889C90.6316 71.1129 71.2373 90.5072 47.3134 90.5072C23.3894 90.5072 3.99509 71.1129 3.99509 47.1889C3.99509 23.2649 23.3894 3.87061 47.3134 3.87061Z" stroke="white" stroke-width="6.49774" stroke-linecap="round" stroke-linejoin="round"/>
<path fill-rule="evenodd" clip-rule="evenodd" d="M60.5258 49.2113C57.3679 52.6161 48.7736 58.3774 44.3768 60.2271C43.675 60.5217 41.886 61.1455 41.5004 61.1541C40.6817 61.1801 39.8933 60.721 39.5121 59.9845C39.3648 59.6986 38.9317 57.8316 38.793 56.9999C38.3815 54.4701 38.1693 50.5412 38.1736 46.5905C38.1693 42.445 38.3988 38.3297 38.858 35.8259C38.9793 35.1502 39.3345 33.5951 39.4385 33.3438C39.6334 32.876 39.9886 32.5078 40.4175 32.2782C40.7467 32.1006 41.1236 32.0053 41.5004 32.0183C41.886 32.0269 43.4541 32.5771 43.9912 32.7893C48.2278 34.4354 57.1903 40.4047 60.4825 43.9135C60.7771 44.2297 61.5871 45.0787 61.7214 45.252C62.029 45.6419 62.1806 46.114 62.1806 46.5905C62.1806 47.0324 62.0463 47.4829 61.7691 47.8598C61.6261 48.0547 60.7987 48.9211 60.5258 49.2113Z" stroke="white" stroke-width="6.49774" stroke-linecap="round" stroke-linejoin="round"/>
</svg>
