<svg width="23" height="28" viewBox="0 0 23 28" fill="none" xmlns="http://www.w3.org/2000/svg">
<path d="M1.32666 11.2106C1.45276 11.0811 1.92888 10.5277 2.37239 10.0724C4.97259 7.20916 11.7557 2.52261 15.306 1.0921C15.8451 0.862234 17.2083 0.375726 17.9366 0.344482C18.6345 0.344482 19.2997 0.505164 19.9346 0.830991C20.7259 1.28626 21.3608 2.00263 21.7086 2.84844C21.9326 3.43537 22.2804 5.19171 22.2804 5.22296C22.6283 7.14444 22.8196 10.2666 22.8196 13.7168C22.8196 17.004 22.6283 19.999 22.3435 21.9495C22.3108 21.9807 21.963 24.1633 21.5825 24.9109C20.8847 26.2767 19.5215 27.1248 18.0627 27.1248H17.9366C16.9865 27.0913 14.9886 26.2432 14.9886 26.212C11.6296 24.7792 5.00302 20.3226 2.33978 17.3611C2.33978 17.3611 1.58972 16.6001 1.26361 16.1248C0.754878 15.4419 0.502686 14.5961 0.502686 13.7502C0.502686 12.8062 0.78749 11.927 1.32666 11.2106" fill="white"/>
</svg>
