<svg width="149" height="42" viewBox="0 0 149 42" fill="none" xmlns="http://www.w3.org/2000/svg">
<path d="M26.1504 34.072C26.3637 34.072 26.5237 34.1787 26.6304 34.392C26.7584 34.6267 26.8224 34.9253 26.8224 35.288C26.8224 35.9707 26.641 36.6427 26.2784 37.304C25.553 38.6267 24.593 39.64 23.3984 40.344C22.225 41.0693 21.0197 41.432 19.7824 41.432C18.5237 41.432 17.4677 41.2293 16.6144 40.824C15.761 40.44 15.0357 39.8533 14.4384 39.064C13.841 38.296 13.265 37.272 12.7104 35.992C12.1344 34.6693 11.6544 33.6773 11.2704 33.016C10.9077 32.376 10.5237 31.9067 10.1184 31.608C9.71304 31.3093 9.19037 31.096 8.55037 30.968C6.18237 30.4987 4.27304 29.3253 2.82237 27.448C1.39304 25.5707 0.678371 23.1493 0.678371 20.184C0.678371 16.9413 1.26504 14.0827 2.43837 11.608C3.63304 9.13333 5.2437 7.224 7.27037 5.88C9.31837 4.536 11.5797 3.864 14.0544 3.864C15.953 3.864 17.6597 4.29067 19.1744 5.144C20.7104 5.99733 21.9264 7.256 22.8224 8.92C23.7184 10.5627 24.1664 12.536 24.1664 14.84C24.1664 17.528 23.761 19.9493 22.9504 22.104C22.1397 24.2587 21.0197 26.0507 19.5904 27.48C18.161 28.9093 16.5184 29.9227 14.6624 30.52C15.1957 30.8187 15.6544 31.256 16.0384 31.832C16.4437 32.408 16.8704 33.24 17.3184 34.328C17.809 35.5227 18.3317 36.376 18.8864 36.888C19.4624 37.4 20.1664 37.656 20.9984 37.656C21.7024 37.656 22.385 37.4107 23.0464 36.92C23.7077 36.4507 24.4544 35.672 25.2864 34.584C25.5424 34.2427 25.8304 34.072 26.1504 34.072ZM11.1104 27.384C12.7744 27.384 14.2357 26.872 15.4944 25.848C16.7744 24.824 17.7557 23.4053 18.4384 21.592C19.121 19.7573 19.4624 17.688 19.4624 15.384C19.4624 12.8453 18.929 10.9253 17.8624 9.624C16.7957 8.30133 15.4197 7.64 13.7344 7.64C12.113 7.64 10.6624 8.16267 9.38237 9.208C8.1237 10.232 7.14237 11.6507 6.43837 13.464C5.73437 15.2773 5.38237 17.336 5.38237 19.64C5.38237 22.1787 5.9157 24.1093 6.98237 25.432C8.04904 26.7333 9.42504 27.384 11.1104 27.384ZM29.2429 31.16C28.2829 31.16 27.4935 30.7227 26.8749 29.848C26.2775 28.952 25.9789 27.8427 25.9789 26.52C25.9789 24.92 26.0855 23.4587 26.2989 22.136C26.5122 20.792 26.8642 19.3733 27.3549 17.88C27.5682 17.24 27.8669 16.7813 28.2509 16.504C28.6349 16.2267 29.2429 16.088 30.0749 16.088C30.5442 16.088 30.8642 16.1627 31.0349 16.312C31.2269 16.4613 31.3229 16.6853 31.3229 16.984C31.3229 17.1547 31.2055 17.7307 30.9709 18.712C30.7575 19.5013 30.5869 20.216 30.4589 20.856C30.0322 23.096 29.8189 24.5893 29.8189 25.336C29.8189 25.784 29.8722 26.104 29.9789 26.296C30.0855 26.4667 30.2562 26.552 30.4909 26.552C30.8109 26.552 31.2055 26.232 31.6749 25.592C32.1655 24.952 32.6775 23.9813 33.2109 22.68C33.7655 21.3787 34.2989 19.7787 34.8109 17.88C34.9815 17.24 35.2375 16.7813 35.5789 16.504C35.9415 16.2267 36.4749 16.088 37.1789 16.088C37.6695 16.088 38.0109 16.152 38.2029 16.28C38.3949 16.3867 38.4909 16.6 38.4909 16.92C38.4909 17.4533 38.2242 18.9147 37.6909 21.304C37.0935 24.0347 36.7949 25.72 36.7949 26.36C36.7949 26.7653 36.8802 27.0853 37.0509 27.32C37.2215 27.5333 37.4455 27.64 37.7229 27.64C38.1495 27.64 38.6509 27.384 39.2269 26.872C39.8242 26.3387 40.6135 25.4853 41.5949 24.312C41.8509 24.0133 42.1389 23.864 42.4589 23.864C42.7362 23.864 42.9495 23.992 43.0989 24.248C43.2695 24.504 43.3549 24.856 43.3549 25.304C43.3549 26.1573 43.1522 26.8187 42.7469 27.288C41.8295 28.4187 40.8375 29.3467 39.7709 30.072C38.7255 30.7973 37.5309 31.16 36.1869 31.16C35.1629 31.16 34.4055 30.7653 33.9149 29.976C33.4455 29.1867 33.2109 28.0773 33.2109 26.648C32.8482 28.0987 32.3042 29.2187 31.5789 30.008C30.8535 30.776 30.0749 31.16 29.2429 31.16ZM44.9521 13.976C44.0561 13.976 43.3841 13.7733 42.9361 13.368C42.4881 12.9413 42.2641 12.3547 42.2641 11.608C42.2641 10.8613 42.5521 10.2427 43.1281 9.752C43.7255 9.24 44.4615 8.984 45.3361 8.984C46.1255 8.984 46.7655 9.176 47.2561 9.56C47.7468 9.944 47.9921 10.488 47.9921 11.192C47.9921 12.0453 47.7148 12.728 47.1601 13.24C46.6055 13.7307 45.8695 13.976 44.9521 13.976ZM44.6961 31.16C43.3095 31.16 42.2961 30.6693 41.6561 29.688C41.0375 28.7067 40.7281 27.4053 40.7281 25.784C40.7281 24.824 40.8455 23.5973 41.0801 22.104C41.3361 20.5893 41.6561 19.1813 42.0401 17.88C42.2321 17.1973 42.4881 16.728 42.8081 16.472C43.1281 16.216 43.6401 16.088 44.3441 16.088C45.4321 16.088 45.9761 16.4507 45.9761 17.176C45.9761 17.7093 45.7735 18.9467 45.3681 20.888C44.8561 23.2347 44.6001 24.824 44.6001 25.656C44.6001 26.296 44.6855 26.7867 44.8561 27.128C45.0268 27.4693 45.3148 27.64 45.7201 27.64C46.1041 27.64 46.5841 27.3733 47.1601 26.84C47.7361 26.3067 48.5041 25.464 49.4641 24.312C49.7201 24.0133 50.0081 23.864 50.3281 23.864C50.6055 23.864 50.8188 23.992 50.9681 24.248C51.1388 24.504 51.2241 24.856 51.2241 25.304C51.2241 26.1573 51.0215 26.8187 50.6161 27.288C48.5041 29.8693 46.5308 31.16 44.6961 31.16ZM64.7876 21.272C64.8516 21.2507 64.9583 21.24 65.1076 21.24C65.4276 21.24 65.673 21.3467 65.8436 21.56C66.0143 21.7733 66.0996 22.0613 66.0996 22.424C66.0996 23.0853 65.9716 23.608 65.7156 23.992C65.4596 24.3547 65.0756 24.6213 64.5636 24.792C63.5823 25.112 62.537 25.272 61.4276 25.272C60.489 25.272 59.6036 25.144 58.7716 24.888C58.153 25.8907 57.4703 26.9253 56.7236 27.992C55.8703 29.208 55.1343 30.04 54.5156 30.488C53.897 30.936 53.193 31.16 52.4036 31.16C51.529 31.16 50.8356 30.8187 50.3236 30.136C49.833 29.4533 49.5236 28.376 49.3956 26.904C49.1396 23.9173 49.0116 21.304 49.0116 19.064V17.944C49.033 17.24 49.225 16.7493 49.5876 16.472C49.9503 16.1947 50.4943 16.056 51.2196 16.056C51.7743 16.056 52.1796 16.184 52.4356 16.44C52.713 16.6747 52.8516 17.08 52.8516 17.656C52.8516 20.1093 53.001 23.2987 53.2996 27.224C54.5796 25.3253 55.5396 23.8107 56.1796 22.68C55.8596 22.0613 55.6996 21.3253 55.6996 20.472C55.6996 19.7467 55.8596 19.0427 56.1796 18.36C56.4996 17.6773 56.937 17.1227 57.4916 16.696C58.0463 16.2693 58.6756 16.056 59.3796 16.056C59.9983 16.056 60.4996 16.28 60.8836 16.728C61.2676 17.1547 61.4596 17.784 61.4596 18.616C61.4596 19.576 61.2036 20.6747 60.6916 21.912C61.5023 21.8693 62.5796 21.7093 63.9236 21.432L64.7876 21.272ZM77.5946 23.864C77.872 23.864 78.0853 23.992 78.2346 24.248C78.4053 24.504 78.4906 24.856 78.4906 25.304C78.4906 26.1573 78.288 26.8187 77.8826 27.288C77.0933 28.248 75.9733 29.1333 74.5226 29.944C73.0933 30.7547 71.5573 31.16 69.9146 31.16C67.6746 31.16 65.936 30.552 64.6986 29.336C63.4613 28.12 62.8426 26.456 62.8426 24.344C62.8426 22.872 63.152 21.5067 63.7706 20.248C64.3893 18.968 65.2426 17.9547 66.3306 17.208C67.44 16.4613 68.688 16.088 70.0746 16.088C71.312 16.088 72.304 16.4613 73.0506 17.208C73.7973 17.9333 74.1706 18.9253 74.1706 20.184C74.1706 21.656 73.6373 22.9253 72.5706 23.992C71.5253 25.0373 69.744 25.8693 67.2266 26.488C67.76 27.4693 68.7733 27.96 70.2666 27.96C71.2266 27.96 72.3146 27.6293 73.5306 26.968C74.768 26.2853 75.8346 25.4 76.7306 24.312C76.9866 24.0133 77.2746 23.864 77.5946 23.864ZM69.5306 19.224C68.7413 19.224 68.0693 19.6827 67.5146 20.6C66.9813 21.5173 66.7146 22.6267 66.7146 23.928V23.992C67.9733 23.6933 68.9653 23.2453 69.6906 22.648C70.416 22.0507 70.7786 21.3573 70.7786 20.568C70.7786 20.1627 70.6613 19.8427 70.4266 19.608C70.2133 19.352 69.9146 19.224 69.5306 19.224ZM78.1571 31.16C77.3465 31.16 76.7705 30.7333 76.4291 29.88C76.1091 29.0267 75.9491 27.6613 75.9491 25.784C75.9491 23.0107 76.3438 20.376 77.1331 17.88C77.3251 17.2613 77.6345 16.8133 78.0611 16.536C78.5091 16.2373 79.1278 16.088 79.9171 16.088C80.3438 16.088 80.6425 16.1413 80.8131 16.248C80.9838 16.3547 81.0691 16.5573 81.0691 16.856C81.0691 17.1973 80.9091 17.9653 80.5891 19.16C80.3758 20.0133 80.2051 20.76 80.0771 21.4C79.9491 22.04 79.8425 22.8293 79.7571 23.768C80.4611 21.9333 81.2505 20.44 82.1251 19.288C82.9998 18.136 83.8531 17.3147 84.6851 16.824C85.5385 16.3333 86.3171 16.088 87.0211 16.088C88.4078 16.088 89.1011 16.7813 89.1011 18.168C89.1011 18.4453 89.0051 19.1173 88.8131 20.184C88.6425 21.0373 88.5571 21.5707 88.5571 21.784C88.5571 22.5307 88.8238 22.904 89.3571 22.904C89.9545 22.904 90.7225 22.4347 91.6611 21.496C91.9385 21.2187 92.2265 21.08 92.5251 21.08C92.8025 21.08 93.0158 21.208 93.1651 21.464C93.3358 21.6987 93.4211 22.0187 93.4211 22.424C93.4211 23.2133 93.2078 23.832 92.7811 24.28C92.1838 24.8987 91.4798 25.432 90.6691 25.88C89.8798 26.3067 89.0371 26.52 88.1411 26.52C87.0105 26.52 86.1465 26.232 85.5491 25.656C84.9731 25.08 84.6851 24.3013 84.6851 23.32C84.6851 23 84.7171 22.68 84.7811 22.36C84.8238 21.9333 84.8451 21.6453 84.8451 21.496C84.8451 21.1547 84.7278 20.984 84.4931 20.984C84.1731 20.984 83.7465 21.3467 83.2131 22.072C82.7011 22.776 82.1891 23.7147 81.6771 24.888C81.1651 26.0613 80.7491 27.2987 80.4291 28.6C80.1945 29.6027 79.9171 30.2853 79.5971 30.648C79.2985 30.9893 78.8185 31.16 78.1571 31.16ZM107.472 21.176C107.749 21.176 107.962 21.3147 108.112 21.592C108.261 21.8693 108.336 22.2213 108.336 22.648C108.336 23.1813 108.261 23.5973 108.112 23.896C107.962 24.1733 107.728 24.3653 107.408 24.472C106.128 24.92 104.72 25.176 103.184 25.24C102.757 27.0107 101.946 28.44 100.752 29.528C99.5783 30.616 98.277 31.16 96.8476 31.16C94.693 31.16 93.125 30.3387 92.1436 28.696C91.1623 27.0533 90.6716 24.6747 90.6716 21.56C90.6716 18.808 91.013 15.8213 91.6956 12.6C92.3783 9.35733 93.3703 6.60533 94.6716 4.344C95.9943 2.06133 97.5623 0.919998 99.3756 0.919998C100.357 0.919998 101.146 1.34667 101.744 2.2C102.341 3.032 102.64 4.12 102.64 5.464C102.64 7.21333 102.309 8.952 101.648 10.68C100.986 12.408 99.8876 14.2213 98.3516 16.12C99.781 16.2267 100.944 16.824 101.84 17.912C102.736 18.9787 103.269 20.3013 103.44 21.88C104.442 21.816 105.637 21.6027 107.024 21.24C107.152 21.1973 107.301 21.176 107.472 21.176ZM98.6396 4.088C98.213 4.088 97.7436 4.728 97.2316 6.008C96.741 7.26667 96.2823 8.984 95.8556 11.16C95.429 13.336 95.109 15.7147 94.8956 18.296C96.3036 15.7147 97.4236 13.4427 98.2556 11.48C99.109 9.496 99.5356 7.736 99.5356 6.2C99.5356 5.51733 99.4503 4.99467 99.2796 4.632C99.1303 4.26933 98.917 4.088 98.6396 4.088ZM96.9756 27.768C97.637 27.768 98.2236 27.4907 98.7356 26.936C99.2476 26.3813 99.589 25.5813 99.7596 24.536C99.0983 24.088 98.5863 23.5013 98.2236 22.776C97.8823 22.0507 97.7116 21.2827 97.7116 20.472C97.7116 20.1733 97.7543 19.768 97.8396 19.256H97.7436C96.869 19.256 96.133 19.6933 95.5356 20.568C94.9596 21.4213 94.6716 22.5733 94.6716 24.024C94.6716 25.24 94.8956 26.168 95.3436 26.808C95.813 27.448 96.357 27.768 96.9756 27.768ZM117.701 23.864C117.978 23.864 118.191 23.992 118.341 24.248C118.511 24.504 118.597 24.856 118.597 25.304C118.597 26.1573 118.394 26.8187 117.989 27.288C117.071 28.4187 116.069 29.3467 114.981 30.072C113.914 30.7973 112.698 31.16 111.333 31.16C109.455 31.16 108.058 30.3067 107.141 28.6C106.245 26.8933 105.797 24.6853 105.797 21.976C105.797 19.3733 106.127 16.408 106.789 13.08C107.471 9.752 108.463 6.89333 109.765 4.504C111.087 2.11466 112.655 0.919998 114.469 0.919998C115.493 0.919998 116.293 1.4 116.869 2.36C117.466 3.29867 117.765 4.65333 117.765 6.424C117.765 8.96267 117.061 11.9067 115.653 15.256C114.245 18.6053 112.335 21.9227 109.925 25.208C110.074 26.0827 110.319 26.712 110.661 27.096C111.002 27.4587 111.45 27.64 112.005 27.64C112.879 27.64 113.647 27.3947 114.309 26.904C114.97 26.392 115.813 25.528 116.837 24.312C117.093 24.0133 117.381 23.864 117.701 23.864ZM113.765 4.088C113.274 4.088 112.719 4.97333 112.101 6.744C111.482 8.51467 110.938 10.712 110.469 13.336C109.999 15.96 109.743 18.4773 109.701 20.888C111.215 18.392 112.421 15.896 113.317 13.4C114.213 10.8827 114.661 8.58933 114.661 6.52C114.661 4.89867 114.362 4.088 113.765 4.088ZM120.202 13.976C119.306 13.976 118.634 13.7733 118.186 13.368C117.738 12.9413 117.514 12.3547 117.514 11.608C117.514 10.8613 117.802 10.2427 118.378 9.752C118.975 9.24 119.711 8.984 120.586 8.984C121.375 8.984 122.015 9.176 122.506 9.56C122.997 9.944 123.242 10.488 123.242 11.192C123.242 12.0453 122.965 12.728 122.41 13.24C121.855 13.7307 121.119 13.976 120.202 13.976ZM119.946 31.16C118.559 31.16 117.546 30.6693 116.906 29.688C116.287 28.7067 115.978 27.4053 115.978 25.784C115.978 24.824 116.095 23.5973 116.33 22.104C116.586 20.5893 116.906 19.1813 117.29 17.88C117.482 17.1973 117.738 16.728 118.058 16.472C118.378 16.216 118.89 16.088 119.594 16.088C120.682 16.088 121.226 16.4507 121.226 17.176C121.226 17.7093 121.023 18.9467 120.618 20.888C120.106 23.2347 119.85 24.824 119.85 25.656C119.85 26.296 119.935 26.7867 120.106 27.128C120.277 27.4693 120.565 27.64 120.97 27.64C121.354 27.64 121.834 27.3733 122.41 26.84C122.986 26.3067 123.754 25.464 124.714 24.312C124.97 24.0133 125.258 23.864 125.578 23.864C125.855 23.864 126.069 23.992 126.218 24.248C126.389 24.504 126.474 24.856 126.474 25.304C126.474 26.1573 126.271 26.8187 125.866 27.288C123.754 29.8693 121.781 31.16 119.946 31.16ZM129.837 31.864C128.728 31.864 127.874 31.608 127.277 31.096C126.701 30.584 126.413 30.008 126.413 29.368C126.413 28.8133 126.616 28.3333 127.021 27.928C127.426 27.5227 128.024 27.32 128.813 27.32C129.09 27.32 129.41 27.352 129.773 27.416C130.157 27.4587 130.445 27.4907 130.637 27.512C130.616 26.9573 130.488 26.4347 130.253 25.944C130.04 25.4533 129.762 24.984 129.421 24.536C129.08 24.0667 128.76 23.6613 128.461 23.32C127.8 24.5787 127.138 25.624 126.477 26.456C125.837 27.288 125.133 28.0773 124.365 28.824C123.981 29.208 123.576 29.4 123.149 29.4C122.808 29.4 122.53 29.2827 122.317 29.048C122.104 28.792 121.997 28.4827 121.997 28.12C121.997 27.6933 122.146 27.2987 122.445 26.936L122.861 26.424C124.034 24.9733 124.92 23.7787 125.517 22.84C125.88 22.2213 126.306 21.4 126.797 20.376C127.288 19.3307 127.768 18.2533 128.237 17.144C128.642 16.2053 129.485 15.736 130.765 15.736C131.362 15.736 131.778 15.7893 132.013 15.896C132.248 16.0027 132.365 16.1733 132.365 16.408C132.365 16.536 132.322 16.7387 132.237 17.016C132.152 17.2933 132.034 17.5707 131.885 17.848C131.501 18.616 131.309 19.2667 131.309 19.8C131.309 20.12 131.416 20.472 131.629 20.856C131.864 21.24 132.216 21.72 132.685 22.296C133.368 23.192 133.88 23.96 134.221 24.6C134.584 25.2187 134.765 25.9013 134.765 26.648C134.765 26.8613 134.744 27.16 134.701 27.544C135.746 27.1387 136.973 26.0613 138.381 24.312C138.637 24.0133 138.925 23.864 139.245 23.864C139.522 23.864 139.736 23.992 139.885 24.248C140.056 24.504 140.141 24.856 140.141 25.304C140.141 26.1147 139.938 26.776 139.533 27.288C138.466 28.6107 137.442 29.5173 136.461 30.008C135.501 30.4773 134.306 30.7333 132.877 30.776C132.024 31.5013 131.01 31.864 129.837 31.864ZM143.493 31.864C142.384 31.864 141.531 31.608 140.933 31.096C140.357 30.584 140.069 30.008 140.069 29.368C140.069 28.8133 140.272 28.3333 140.677 27.928C141.083 27.5227 141.68 27.32 142.469 27.32C142.747 27.32 143.067 27.352 143.429 27.416C143.813 27.4587 144.101 27.4907 144.293 27.512C144.272 26.9573 144.144 26.4347 143.909 25.944C143.696 25.4533 143.419 24.984 143.077 24.536C142.736 24.0667 142.416 23.6613 142.117 23.32C141.456 24.5787 140.795 25.624 140.133 26.456C139.493 27.288 138.789 28.0773 138.021 28.824C137.637 29.208 137.232 29.4 136.805 29.4C136.464 29.4 136.187 29.2827 135.973 29.048C135.76 28.792 135.653 28.4827 135.653 28.12C135.653 27.6933 135.803 27.2987 136.101 26.936L136.517 26.424C137.691 24.9733 138.576 23.7787 139.173 22.84C139.557 22.2213 139.941 21.4853 140.325 20.632C140.731 19.7787 141.253 18.616 141.893 17.144C142.299 16.2053 143.141 15.736 144.421 15.736C145.019 15.736 145.435 15.7893 145.669 15.896C145.904 16.0027 146.021 16.1733 146.021 16.408C146.021 16.536 145.979 16.7387 145.893 17.016C145.808 17.2933 145.691 17.5707 145.541 17.848C145.157 18.616 144.965 19.2667 144.965 19.8C144.965 20.12 145.072 20.472 145.285 20.856C145.52 21.24 145.872 21.72 146.341 22.296C147.024 23.192 147.536 23.96 147.877 24.6C148.24 25.2187 148.421 25.9013 148.421 26.648C148.421 27.544 148.208 28.3973 147.781 29.208C147.376 29.9973 146.8 30.6373 146.053 31.128C145.307 31.6187 144.453 31.864 143.493 31.864Z" fill="black"/>
</svg>
