<svg width="222" height="62" viewBox="0 0 222 62" fill="none" xmlns="http://www.w3.org/2000/svg">
<path d="M38.7055 50.0997C39.0249 50.0997 39.2645 50.2594 39.4242 50.5788C39.6158 50.9302 39.7116 51.3774 39.7116 51.9204C39.7116 52.9425 39.4401 53.9487 38.8971 54.9389C37.8111 56.9193 36.3737 58.4366 34.5849 59.4907C32.8281 60.5767 31.0234 61.1197 29.1707 61.1197C27.2861 61.1197 25.705 60.8163 24.4273 60.2094C23.1496 59.6344 22.0636 58.756 21.1692 57.5742C20.2748 56.4242 19.4124 54.891 18.5819 52.9745C17.7194 50.9941 17.0007 49.5087 16.4258 48.5185C15.8827 47.5603 15.3078 46.8575 14.7009 46.4104C14.094 45.9632 13.3114 45.6437 12.3531 45.4521C8.80755 44.7494 5.94872 42.9925 3.77665 40.1816C1.63652 37.3707 0.566454 33.7453 0.566454 29.3053C0.566454 24.4501 1.44486 20.1698 3.20169 16.4645C4.99045 12.7592 7.40209 9.90039 10.4366 7.88803C13.5031 5.87567 16.8889 4.86949 20.5942 4.86949C23.4371 4.86949 25.9925 5.50834 28.2604 6.78602C30.5602 8.06371 32.3809 9.94831 33.7225 12.4398C35.0641 14.8993 35.7348 17.854 35.7348 21.3038C35.7348 25.3285 35.1279 28.9539 33.9141 32.1801C32.7003 35.4063 31.0234 38.0894 28.8832 40.2295C26.7431 42.3697 24.2836 43.8869 21.5046 44.7813C22.3031 45.2285 22.9899 45.8833 23.5649 46.7457C24.1718 47.6082 24.8106 48.8539 25.4814 50.483C26.2161 52.2718 26.9986 53.5494 27.8291 54.3161C28.6916 55.0827 29.7457 55.466 30.9914 55.466C32.0455 55.466 33.0677 55.0986 34.0579 54.364C35.0481 53.6612 36.1661 52.4953 37.4118 50.8663C37.7951 50.3552 38.2263 50.0997 38.7055 50.0997ZM16.1862 40.0858C18.6777 40.0858 20.8657 39.3192 22.7503 37.786C24.6669 36.2527 26.1362 34.1286 27.1584 31.4135C28.1805 28.6664 28.6916 25.5681 28.6916 22.1183C28.6916 18.3172 27.893 15.4424 26.2959 13.4939C24.6988 11.5135 22.6385 10.5233 20.1151 10.5233C17.6875 10.5233 15.5154 11.3058 13.5989 12.871C11.7143 14.4042 10.2449 16.5284 9.19085 19.2435C8.13676 21.9586 7.60971 25.041 7.60971 28.4908C7.60971 32.2919 8.40827 35.1827 10.0054 37.1631C11.6025 39.1116 13.6628 40.0858 16.1862 40.0858ZM43.3358 45.7396C41.8984 45.7396 40.7166 45.0848 39.7903 43.7751C38.8959 42.4335 38.4487 40.7726 38.4487 38.7921C38.4487 36.3965 38.6084 34.2084 38.9278 32.228C39.2472 30.2156 39.7743 28.0915 40.509 25.8555C40.8284 24.8973 41.2756 24.2105 41.8505 23.7953C42.4255 23.38 43.3358 23.1724 44.5816 23.1724C45.2843 23.1724 45.7635 23.2842 46.019 23.5078C46.3065 23.7314 46.4502 24.0668 46.4502 24.514C46.4502 24.7695 46.2745 25.6319 45.9232 27.1013C45.6037 28.2831 45.3482 29.3532 45.1565 30.3115C44.5177 33.6654 44.1983 35.9014 44.1983 37.0193C44.1983 37.6901 44.2781 38.1693 44.4378 38.4567C44.5976 38.7123 44.8531 38.84 45.2045 38.84C45.6836 38.84 46.2745 38.3609 46.9773 37.4026C47.7119 36.4444 48.4785 34.991 49.2771 33.0425C50.1076 31.0941 50.9061 28.6984 51.6728 25.8555C51.9283 24.8973 52.3116 24.2105 52.8227 23.7953C53.3657 23.38 54.1643 23.1724 55.2184 23.1724C55.953 23.1724 56.4641 23.2682 56.7516 23.4599C57.0391 23.6196 57.1828 23.939 57.1828 24.4181C57.1828 25.2167 56.7835 27.4047 55.985 30.9823C55.0906 35.0709 54.6434 37.5943 54.6434 38.5526C54.6434 39.1595 54.7712 39.6386 55.0267 39.99C55.2822 40.3094 55.6176 40.4691 56.0329 40.4691C56.6717 40.4691 57.4224 40.0858 58.2848 39.3192C59.1792 38.5206 60.361 37.2429 61.8304 35.4861C62.2137 35.0389 62.6449 34.8153 63.124 34.8153C63.5393 34.8153 63.8587 35.007 64.0823 35.3903C64.3379 35.7736 64.4656 36.3006 64.4656 36.9714C64.4656 38.2491 64.1622 39.2393 63.5553 39.9421C62.1818 41.635 60.6964 43.0245 59.0993 44.1105C57.5342 45.1965 55.7454 45.7396 53.733 45.7396C52.1998 45.7396 51.0659 45.1486 50.3312 43.9668C49.6285 42.7849 49.2771 41.1239 49.2771 38.9838C48.7341 41.1559 47.9196 42.8328 46.8335 44.0147C45.7475 45.1646 44.5816 45.7396 43.3358 45.7396ZM66.8572 20.0101C65.5156 20.0101 64.5094 19.7067 63.8386 19.0998C63.1678 18.4609 62.8325 17.5825 62.8325 16.4645C62.8325 15.3465 63.2637 14.4202 64.1261 13.6855C65.0205 12.9189 66.1225 12.5356 67.4321 12.5356C68.614 12.5356 69.5723 12.8231 70.3069 13.3981C71.0416 13.973 71.4089 14.7876 71.4089 15.8416C71.4089 17.1193 70.9937 18.1415 70.1632 18.9081C69.3327 19.6428 68.2307 20.0101 66.8572 20.0101ZM66.4739 45.7396C64.3976 45.7396 62.8804 45.0049 61.9221 43.5356C60.9958 42.0662 60.5326 40.1177 60.5326 37.6901C60.5326 36.2527 60.7083 34.416 61.0597 32.1801C61.443 29.9122 61.9221 27.804 62.4971 25.8555C62.7845 24.8334 63.1678 24.1307 63.647 23.7473C64.1261 23.364 64.8927 23.1724 65.9468 23.1724C67.5759 23.1724 68.3904 23.7154 68.3904 24.8014C68.3904 25.6 68.0869 27.4526 67.48 30.3594C66.7134 33.873 66.3301 36.2527 66.3301 37.4985C66.3301 38.4567 66.4579 39.1914 66.7134 39.7025C66.969 40.2136 67.4002 40.4691 68.0071 40.4691C68.5821 40.4691 69.3008 40.0698 70.1632 39.2713C71.0256 38.4727 72.1756 37.211 73.613 35.4861C73.9963 35.0389 74.4275 34.8153 74.9066 34.8153C75.3219 34.8153 75.6413 35.007 75.8649 35.3903C76.1204 35.7736 76.2482 36.3006 76.2482 36.9714C76.2482 38.2491 75.9447 39.2393 75.3378 39.9421C72.1756 43.8071 69.2209 45.7396 66.4739 45.7396ZM96.5567 30.9343C96.6525 30.9024 96.8122 30.8864 97.0358 30.8864C97.515 30.8864 97.8823 31.0461 98.1378 31.3656C98.3934 31.685 98.5212 32.1162 98.5212 32.6592C98.5212 33.6494 98.3295 34.432 97.9462 35.007C97.5629 35.55 96.9879 35.9493 96.2213 36.2048C94.752 36.6839 93.1868 36.9235 91.5258 36.9235C90.1203 36.9235 88.7947 36.7319 87.549 36.3486C86.6227 37.8498 85.6005 39.399 84.4825 40.9961C83.2049 42.8169 82.1028 44.0626 81.1765 44.7334C80.2502 45.4042 79.1961 45.7396 78.0142 45.7396C76.7046 45.7396 75.6665 45.2285 74.8999 44.2063C74.1652 43.1842 73.702 41.5711 73.5104 39.3671C73.1271 34.8952 72.9354 30.9823 72.9354 27.6283V25.9514C72.9674 24.8973 73.2549 24.1626 73.7979 23.7473C74.3409 23.3321 75.1554 23.1245 76.2415 23.1245C77.0719 23.1245 77.6789 23.3161 78.0622 23.6994C78.4774 24.0508 78.685 24.6577 78.685 25.5201C78.685 29.1935 78.9086 33.9689 79.3558 39.8462C81.2724 37.0034 82.7098 34.7355 83.668 33.0425C83.1889 32.1162 82.9493 31.0142 82.9493 29.7365C82.9493 28.6505 83.1889 27.5964 83.668 26.5742C84.1472 25.5521 84.802 24.7216 85.6325 24.0827C86.463 23.4439 87.4053 23.1245 88.4594 23.1245C89.3857 23.1245 90.1363 23.4599 90.7113 24.1307C91.2862 24.7695 91.5737 25.7118 91.5737 26.9575C91.5737 28.3949 91.1904 30.04 90.4238 31.8926C91.6376 31.8287 93.2507 31.5892 95.263 31.1739L96.5567 30.9343ZM115.733 34.8153C116.148 34.8153 116.467 35.007 116.691 35.3903C116.946 35.7736 117.074 36.3006 117.074 36.9714C117.074 38.2491 116.771 39.2393 116.164 39.9421C114.982 41.3795 113.305 42.7051 111.133 43.9189C108.993 45.1327 106.693 45.7396 104.233 45.7396C100.879 45.7396 98.2761 44.8292 96.4234 43.0085C94.5708 41.1878 93.6445 38.6963 93.6445 35.534C93.6445 33.33 94.1076 31.2857 95.034 29.4011C95.9603 27.4846 97.238 25.9673 98.867 24.8494C100.528 23.7314 102.397 23.1724 104.473 23.1724C106.326 23.1724 107.811 23.7314 108.929 24.8494C110.047 25.9354 110.606 27.4207 110.606 29.3053C110.606 31.5093 109.807 33.4099 108.21 35.007C106.645 36.5721 103.978 37.8179 100.209 38.7442C101.007 40.2136 102.524 40.9482 104.76 40.9482C106.198 40.9482 107.827 40.4531 109.648 39.4629C111.5 38.4408 113.097 37.1152 114.439 35.4861C114.822 35.0389 115.253 34.8153 115.733 34.8153ZM103.658 27.8679C102.476 27.8679 101.47 28.5546 100.64 29.9282C99.8413 31.3017 99.442 32.9627 99.442 34.9112V35.007C101.327 34.5598 102.812 33.889 103.898 32.9946C104.984 32.1002 105.527 31.0621 105.527 29.8803C105.527 29.2733 105.351 28.7942 105 28.4429C104.681 28.0595 104.233 27.8679 103.658 27.8679ZM116.575 45.7396C115.361 45.7396 114.498 45.1007 113.987 43.823C113.508 42.5453 113.269 40.501 113.269 37.6901C113.269 33.5376 113.86 29.5928 115.042 25.8555C115.329 24.9292 115.792 24.2584 116.431 23.8432C117.102 23.396 118.028 23.1724 119.21 23.1724C119.849 23.1724 120.296 23.2522 120.552 23.412C120.807 23.5717 120.935 23.8751 120.935 24.3223C120.935 24.8334 120.695 25.9833 120.216 27.7721C119.897 29.0498 119.641 30.1677 119.45 31.126C119.258 32.0843 119.098 33.2661 118.97 34.6716C120.025 31.9246 121.206 29.6886 122.516 27.9637C123.826 26.2388 125.103 25.0091 126.349 24.2744C127.627 23.5397 128.793 23.1724 129.847 23.1724C131.923 23.1724 132.961 24.2105 132.961 26.2868C132.961 26.702 132.817 27.7082 132.53 29.3053C132.274 30.583 132.147 31.3815 132.147 31.701C132.147 32.8189 132.546 33.3779 133.344 33.3779C134.239 33.3779 135.389 32.6752 136.794 31.2697C137.209 30.8545 137.641 30.6469 138.088 30.6469C138.503 30.6469 138.823 30.8385 139.046 31.2218C139.302 31.5732 139.429 32.0523 139.429 32.6592C139.429 33.8411 139.11 34.7674 138.471 35.4382C137.577 36.3645 136.523 37.1631 135.309 37.8339C134.127 38.4727 132.865 38.7921 131.524 38.7921C129.831 38.7921 128.537 38.3609 127.643 37.4985C126.78 36.636 126.349 35.4701 126.349 34.0008C126.349 33.5217 126.397 33.0425 126.493 32.5634C126.557 31.9246 126.589 31.4933 126.589 31.2697C126.589 30.7587 126.413 30.5031 126.062 30.5031C125.582 30.5031 124.944 31.0461 124.145 32.1322C123.378 33.1863 122.612 34.5917 121.845 36.3486C121.079 38.1054 120.456 39.958 119.977 41.9065C119.625 43.4078 119.21 44.4299 118.731 44.973C118.284 45.484 117.565 45.7396 116.575 45.7396ZM160.467 30.7906C160.882 30.7906 161.202 30.9982 161.425 31.4135C161.649 31.8287 161.761 32.3558 161.761 32.9946C161.761 33.7932 161.649 34.416 161.425 34.8632C161.202 35.2785 160.85 35.566 160.371 35.7257C158.455 36.3965 156.347 36.7798 154.047 36.8756C153.408 39.5268 152.194 41.6669 150.405 43.296C148.648 44.925 146.7 45.7396 144.56 45.7396C141.334 45.7396 138.986 44.5098 137.517 42.0502C136.047 39.5907 135.313 36.0291 135.313 31.3656C135.313 27.245 135.824 22.7731 136.846 17.9498C137.868 13.0946 139.353 8.97407 141.302 5.58819C143.282 2.17037 145.63 0.461463 148.345 0.461463C149.814 0.461463 150.996 1.10031 151.891 2.378C152.785 3.62374 153.232 5.2528 153.232 7.26516C153.232 9.88442 152.737 12.4877 151.747 15.075C150.757 17.6624 149.112 20.3774 146.812 23.2203C148.952 23.38 150.693 24.2744 152.034 25.9034C153.376 27.5006 154.174 29.481 154.43 31.8447C155.931 31.7489 157.72 31.4295 159.796 30.8864C159.988 30.8225 160.212 30.7906 160.467 30.7906ZM147.243 5.20489C146.604 5.20489 145.901 6.16315 145.135 8.07969C144.4 9.96428 143.713 12.5356 143.075 15.7937C142.436 19.0518 141.957 22.6134 141.637 26.4784C143.745 22.6134 145.422 19.2116 146.668 16.2729C147.946 13.3022 148.585 10.667 148.585 8.36716C148.585 7.34501 148.457 6.56243 148.201 6.01941C147.978 5.47639 147.658 5.20489 147.243 5.20489ZM144.752 40.6608C145.742 40.6608 146.62 40.2455 147.387 39.415C148.153 38.5845 148.664 37.3867 148.92 35.8215C147.93 35.1507 147.163 34.2723 146.62 33.1863C146.109 32.1002 145.854 30.9503 145.854 29.7365C145.854 29.2893 145.917 28.6824 146.045 27.9158H145.901C144.592 27.9158 143.49 28.5706 142.595 29.8803C141.733 31.1579 141.302 32.8828 141.302 35.0549C141.302 36.8756 141.637 38.2651 142.308 39.2234C143.011 40.1816 143.825 40.6608 144.752 40.6608ZM175.783 34.8153C176.198 34.8153 176.518 35.007 176.741 35.3903C176.997 35.7736 177.124 36.3006 177.124 36.9714C177.124 38.2491 176.821 39.2393 176.214 39.9421C174.841 41.635 173.339 43.0245 171.71 44.1105C170.113 45.1965 168.292 45.7396 166.248 45.7396C163.437 45.7396 161.345 44.4619 159.971 41.9065C158.63 39.3511 157.959 36.0451 157.959 31.9884C157.959 28.0915 158.454 23.6515 159.444 18.6685C160.467 13.6855 161.952 9.40529 163.9 5.82776C165.881 2.25023 168.229 0.461463 170.944 0.461463C172.477 0.461463 173.675 1.18016 174.537 2.61756C175.432 4.02302 175.879 6.05135 175.879 8.70256C175.879 12.5037 174.825 16.9117 172.716 21.9266C170.608 26.9416 167.749 31.9086 164.14 36.8277C164.364 38.1373 164.731 39.0796 165.242 39.6546C165.753 40.1976 166.424 40.4691 167.254 40.4691C168.564 40.4691 169.714 40.1018 170.704 39.3671C171.694 38.6005 172.956 37.3068 174.489 35.4861C174.873 35.0389 175.304 34.8153 175.783 34.8153ZM169.89 5.20489C169.155 5.20489 168.324 6.53049 167.398 9.18169C166.472 11.8329 165.657 15.1229 164.954 19.0518C164.252 22.9807 163.868 26.7499 163.805 30.3594C166.072 26.6221 167.877 22.8849 169.219 19.1477C170.56 15.3785 171.231 11.9447 171.231 8.8463C171.231 6.41869 170.784 5.20489 169.89 5.20489ZM179.528 20.0101C178.187 20.0101 177.181 19.7067 176.51 19.0998C175.839 18.4609 175.504 17.5825 175.504 16.4645C175.504 15.3465 175.935 14.4202 176.797 13.6855C177.692 12.9189 178.794 12.5356 180.103 12.5356C181.285 12.5356 182.243 12.8231 182.978 13.3981C183.713 13.973 184.08 14.7876 184.08 15.8416C184.08 17.1193 183.665 18.1415 182.834 18.9081C182.004 19.6428 180.902 20.0101 179.528 20.0101ZM179.145 45.7396C177.069 45.7396 175.552 45.0049 174.593 43.5356C173.667 42.0662 173.204 40.1177 173.204 37.6901C173.204 36.2527 173.379 34.416 173.731 32.1801C174.114 29.9122 174.593 27.804 175.168 25.8555C175.456 24.8334 175.839 24.1307 176.318 23.7473C176.797 23.364 177.564 23.1724 178.618 23.1724C180.247 23.1724 181.062 23.7154 181.062 24.8014C181.062 25.6 180.758 27.4526 180.151 30.3594C179.385 33.873 179.001 36.2527 179.001 37.4985C179.001 38.4567 179.129 39.1914 179.385 39.7025C179.64 40.2136 180.071 40.4691 180.678 40.4691C181.253 40.4691 181.972 40.0698 182.834 39.2713C183.697 38.4727 184.847 37.211 186.284 35.4861C186.667 35.0389 187.099 34.8153 187.578 34.8153C187.993 34.8153 188.312 35.007 188.536 35.3903C188.792 35.7736 188.919 36.3006 188.919 36.9714C188.919 38.2491 188.616 39.2393 188.009 39.9421C184.847 43.8071 181.892 45.7396 179.145 45.7396ZM193.955 46.7937C192.294 46.7937 191.016 46.4104 190.122 45.6437C189.259 44.8771 188.828 44.0147 188.828 43.0564C188.828 42.2259 189.132 41.5072 189.738 40.9003C190.345 40.2934 191.24 39.99 192.422 39.99C192.837 39.99 193.316 40.0379 193.859 40.1337C194.434 40.1976 194.865 40.2455 195.153 40.2774C195.121 39.4469 194.929 38.6644 194.578 37.9297C194.258 37.195 193.843 36.4923 193.332 35.8215C192.821 35.1188 192.342 34.5119 191.895 34.0008C190.904 35.8854 189.914 37.4506 188.924 38.6963C187.966 39.9421 186.912 41.1239 185.762 42.2419C185.187 42.8169 184.58 43.1043 183.941 43.1043C183.43 43.1043 183.015 42.9287 182.695 42.5773C182.376 42.194 182.216 41.7308 182.216 41.1878C182.216 40.549 182.44 39.958 182.887 39.415L183.51 38.6484C185.266 36.4763 186.592 34.6876 187.486 33.2821C188.029 32.3558 188.668 31.126 189.403 29.5928C190.138 28.0276 190.856 26.4145 191.559 24.7535C192.166 23.3481 193.428 22.6453 195.344 22.6453C196.239 22.6453 196.862 22.7252 197.213 22.8849C197.564 23.0446 197.74 23.3002 197.74 23.6515C197.74 23.8432 197.676 24.1466 197.548 24.5619C197.421 24.9771 197.245 25.3924 197.021 25.8076C196.446 26.9575 196.159 27.9318 196.159 28.7303C196.159 29.2095 196.319 29.7365 196.638 30.3115C196.989 30.8864 197.516 31.6051 198.219 32.4676C199.241 33.8091 200.008 34.9591 200.519 35.9173C201.062 36.8437 201.333 37.8658 201.333 38.9838C201.333 39.3032 201.301 39.7504 201.238 40.3254C202.803 39.7185 204.639 38.1054 206.748 35.4861C207.131 35.0389 207.562 34.8153 208.041 34.8153C208.457 34.8153 208.776 35.007 209 35.3903C209.255 35.7736 209.383 36.3006 209.383 36.9714C209.383 38.1852 209.079 39.1754 208.473 39.9421C206.875 41.9225 205.342 43.28 203.873 44.0147C202.435 44.7174 200.647 45.1007 198.507 45.1646C197.229 46.2506 195.712 46.7937 193.955 46.7937ZM214.402 46.7937C212.741 46.7937 211.463 46.4104 210.569 45.6437C209.707 44.8771 209.275 44.0147 209.275 43.0564C209.275 42.2259 209.579 41.5072 210.186 40.9003C210.793 40.2934 211.687 39.99 212.869 39.99C213.284 39.99 213.763 40.0379 214.306 40.1337C214.881 40.1976 215.313 40.2455 215.6 40.2774C215.568 39.4469 215.376 38.6644 215.025 37.9297C214.706 37.195 214.29 36.4923 213.779 35.8215C213.268 35.1188 212.789 34.5119 212.342 34.0008C211.352 35.8854 210.361 37.4506 209.371 38.6963C208.413 39.9421 207.359 41.1239 206.209 42.2419C205.634 42.8169 205.027 43.1043 204.388 43.1043C203.877 43.1043 203.462 42.9287 203.143 42.5773C202.823 42.194 202.663 41.7308 202.663 41.1878C202.663 40.549 202.887 39.958 203.334 39.415L203.957 38.6484C205.714 36.4763 207.039 34.6876 207.934 33.2821C208.509 32.3558 209.084 31.2538 209.659 29.9761C210.266 28.6984 211.048 26.9575 212.006 24.7535C212.613 23.3481 213.875 22.6453 215.792 22.6453C216.686 22.6453 217.309 22.7252 217.66 22.8849C218.012 23.0446 218.187 23.3002 218.187 23.6515C218.187 23.8432 218.123 24.1466 217.996 24.5619C217.868 24.9771 217.692 25.3924 217.469 25.8076C216.894 26.9575 216.606 27.9318 216.606 28.7303C216.606 29.2095 216.766 29.7365 217.085 30.3115C217.437 30.8864 217.964 31.6051 218.666 32.4676C219.689 33.8091 220.455 34.9591 220.966 35.9173C221.509 36.8437 221.781 37.8658 221.781 38.9838C221.781 40.3254 221.461 41.603 220.823 42.8169C220.216 43.9987 219.353 44.957 218.235 45.6917C217.117 46.4263 215.84 46.7937 214.402 46.7937Z" fill="white"/>
</svg>
