<svg width="176" height="238" viewBox="0 0 176 238" fill="none" xmlns="http://www.w3.org/2000/svg">
<path d="M97.8556 71.6613C84.0731 71.6613 71.429 77.1075 63.7416 87.761C57.8961 95.8609 55.6267 105.818 57.18 116.554C59.2798 131.076 68.1192 144.898 81.4331 154.474C105.348 171.677 136.322 169.711 150.478 150.096C156.324 141.995 158.593 132.037 157.04 121.3C154.94 106.779 146.101 92.9578 132.787 83.3817C121.858 75.5207 109.453 71.6613 97.8556 71.6613ZM116.359 166.619C104.687 166.619 92.2144 162.741 81.2246 154.836C67.8191 145.194 58.9165 131.266 56.7988 116.623C55.2287 105.763 57.5254 95.6891 63.4415 87.4905C77.7168 67.7066 108.919 65.7011 132.995 83.0194C146.401 92.6614 155.303 106.59 157.421 121.232C158.991 132.093 156.695 142.166 150.778 150.365C143.018 161.117 130.256 166.619 116.359 166.619Z" fill="url(#paint0_linear_401_52)"/>
<path d="M59.0439 95.6104L59.225 95.7092C54.7474 105.99 54.3514 117.907 58.1109 129.265C62.8865 143.693 73.7752 155.922 87.9852 162.815C114.391 175.624 144.452 166.353 154.995 142.146C159.472 131.866 159.868 119.949 156.109 108.591C151.334 94.1624 140.445 81.9338 126.235 75.0408C99.8291 62.2311 69.7683 71.5025 59.225 95.7092L59.0439 95.6104ZM112.513 169.023C104.381 169.023 95.9317 167.16 87.8252 163.226C73.5151 156.285 62.5474 143.963 57.7339 129.421C53.9355 117.947 54.3367 105.905 58.8638 95.5127C69.4998 71.0932 99.7943 61.7241 126.395 74.6291C140.705 81.5703 151.673 93.893 156.486 108.434C160.284 119.909 159.883 131.95 155.356 142.344C147.961 159.321 131.065 169.023 112.513 169.023Z" fill="url(#paint1_linear_401_52)"/>
<path d="M104.864 65.8575C81.8238 65.8575 61.3586 81.5373 56.148 105.239C53.3553 117.944 55.3298 131.382 61.7061 143.079C68.9922 156.443 81.4331 166.326 95.839 170.196C123.938 177.743 151.858 160.887 158.072 132.616C160.865 119.912 158.891 106.473 152.514 94.7775C145.228 81.4138 132.787 71.5295 118.381 67.6596C113.841 66.4398 109.303 65.8575 104.864 65.8575ZM109.355 172.466C104.882 172.466 100.316 171.88 95.7411 170.651C81.2278 166.753 68.6921 156.791 61.3491 143.323C54.9128 131.519 52.9214 117.955 55.7415 105.129L55.9448 105.184L55.7415 105.129C62.0104 76.6087 90.1546 59.595 118.479 67.2043C132.992 71.1025 145.528 81.0645 152.872 94.5329C159.307 106.337 161.299 119.902 158.478 132.728C153.223 156.642 132.581 172.464 109.355 172.466Z" fill="url(#paint2_linear_401_52)"/>
<path d="M106.79 61.5335C93.5686 61.5335 81.0635 66.8985 71.33 76.8064C61.249 87.0682 55.3624 101.033 54.7548 116.127C53.4837 147.737 75.9361 174.708 104.805 176.251C118.986 177.008 132.514 171.611 142.89 161.049C152.971 150.787 158.858 136.823 159.465 121.728C160.736 90.1183 138.284 63.1474 109.415 61.6041C108.537 61.5571 107.662 61.5335 106.79 61.5335ZM107.431 176.81C106.551 176.81 105.67 176.787 104.784 176.74C75.675 175.182 53.0362 147.983 54.3188 116.106C54.9307 100.881 60.8678 86.7965 71.0362 76.4452C81.4974 65.7952 95.1377 60.3525 109.436 61.116C138.545 62.6733 161.184 89.8725 159.901 121.75C159.289 136.974 153.352 151.059 143.184 161.41C133.37 171.4 120.76 176.81 107.431 176.81Z" fill="url(#paint3_linear_401_52)"/>
<path d="M107.327 56.5378C104.755 56.5378 102.169 56.7637 99.5848 57.2189C70.9846 62.2593 51.0954 94.0447 55.2476 128.073C57.3453 145.26 65.0853 160.194 77.0439 170.128C88.0168 179.243 101.368 182.975 114.635 180.637C143.235 175.596 163.125 143.811 158.972 109.782C156.875 92.5955 149.134 77.6603 137.176 67.7278C128.34 60.3878 117.962 56.5378 107.327 56.5378ZM106.892 181.827C96.1602 181.827 85.6875 177.942 76.7722 170.536C64.7147 160.521 56.9104 145.466 54.7969 128.143C50.611 93.8412 70.6708 61.7993 99.5131 56.7155C112.902 54.3558 126.375 58.1223 137.448 67.3196C149.505 77.3345 157.31 92.3897 159.423 109.713C163.609 144.014 143.549 176.056 114.707 181.14C112.099 181.599 109.488 181.827 106.892 181.827Z" fill="url(#paint4_linear_401_52)"/>
<path d="M106.011 51.2164C100.319 51.2164 94.6375 52.4126 89.191 54.8158C61.9756 66.8209 47.8814 105.353 57.7739 140.711C62.9171 159.094 73.9089 173.931 87.9305 181.418C99.827 187.768 113.002 188.346 125.029 183.04C152.244 171.036 166.338 132.503 156.446 97.1442C151.303 78.7625 140.311 63.9261 126.289 56.4379C119.78 52.9631 112.888 51.2164 106.011 51.2164ZM108.208 187.17C101.261 187.17 94.3005 185.406 87.7262 181.895C73.5857 174.346 62.5032 159.392 57.3211 140.869C47.3559 105.251 61.5744 66.4268 89.0162 54.3217C101.168 48.9614 114.477 49.5437 126.495 55.9603C140.634 63.5108 151.717 78.4637 156.899 96.9866C166.864 132.604 152.645 171.43 125.204 183.534C119.7 185.96 113.959 187.17 108.208 187.17Z" fill="url(#paint5_linear_401_52)"/>
<path d="M62.4137 153.614C70.8214 172.527 84.526 185.926 100.012 190.375C112.418 193.938 125.07 191.39 135.639 183.2C160.309 164.08 167.561 119.689 151.806 84.2416C143.399 65.3282 129.694 51.9292 114.208 47.4805C101.803 43.9176 89.15 46.4654 78.5814 54.6558C53.9113 73.7751 46.6588 118.167 62.4137 153.614ZM110.993 192.498C107.31 192.498 103.59 191.974 99.8902 190.91C84.2627 186.422 70.4423 172.917 61.9714 153.86C46.1102 118.176 53.4353 73.4704 78.3002 54.2018C88.9888 45.9184 101.785 43.3412 114.331 46.9453C129.957 51.434 143.778 64.9389 152.248 83.9958C168.11 119.678 160.785 164.385 135.921 183.654C128.384 189.494 119.798 192.498 110.993 192.498Z" fill="url(#paint6_linear_401_52)"/>
<path d="M99.1656 40.9404C87.4113 40.9404 76.4731 46.5583 68.1413 56.9425C47.1832 83.0653 47.6476 132.127 69.1754 166.308C80.7296 184.654 96.5603 195.78 112.61 196.835C125.284 197.667 137.172 192.015 146.079 180.913C167.037 154.79 166.573 105.729 145.044 71.5472C133.491 53.2019 117.661 42.0755 101.611 41.0204C100.792 40.9663 99.9765 40.9404 99.1656 40.9404ZM115.056 197.493C114.235 197.493 113.409 197.466 112.58 197.41C96.3718 196.345 80.3979 185.13 68.7531 166.64C47.0948 132.251 46.6483 82.8689 67.7569 56.5578C76.7712 45.3232 88.8024 39.5994 101.641 40.4452C117.848 41.5109 133.822 52.7267 145.467 71.2155C167.125 105.604 167.572 154.987 146.463 181.298C138.032 191.807 126.958 197.493 115.056 197.493Z" fill="url(#paint7_linear_401_52)"/>
<path d="M94.2499 36.594C92.4745 36.594 90.7116 36.7211 88.9667 36.9763C76.1362 38.8548 65.2401 47.671 58.2836 61.8029C42.1675 94.5423 51.0038 146.797 77.9811 178.289C92.2575 194.953 109.488 203.187 125.253 200.879C138.084 199.001 148.981 190.184 155.936 176.053C172.052 143.313 163.216 91.0581 136.239 59.5668C123.543 44.7468 108.511 36.594 94.2499 36.594ZM119.971 201.863C105.562 201.863 90.3915 193.645 77.5926 178.704C50.4635 147.037 41.5904 94.4658 57.8118 61.5123C64.8526 47.2099 75.8919 38.2843 88.8961 36.3799C104.834 34.0462 122.232 42.3472 136.627 59.1515C163.755 90.8182 172.629 143.39 156.408 176.343C149.367 190.646 138.328 199.571 125.324 201.476C123.556 201.734 121.769 201.861 119.971 201.863Z" fill="url(#paint8_linear_401_52)"/>
<path d="M88.8246 33.0899C84.566 33.0899 80.4369 33.7898 76.5206 35.2107C63.6269 39.8888 54.0082 51.9868 49.4347 69.2758C39.2042 107.954 56.8062 161.676 88.6719 189.032C105.014 203.06 122.884 208.022 137.7 202.645C150.593 197.967 160.212 185.869 164.785 168.58C175.016 129.901 157.414 76.1794 125.548 48.8238C113.526 38.5043 100.676 33.0899 88.8246 33.0899ZM125.397 205.391C113.421 205.391 100.454 199.935 88.3307 189.528C56.2954 162.029 38.6061 108.005 48.8966 69.0982C53.5238 51.6057 63.273 39.3595 76.3468 34.6144C91.3414 29.1729 109.399 34.1709 125.89 48.3274C157.925 75.8265 175.614 129.851 165.322 168.757C160.696 186.25 150.948 198.496 137.873 203.241C133.902 204.682 129.713 205.391 125.397 205.391Z" fill="url(#paint9_linear_401_52)"/>
<path d="M83.5382 30.4656C76.6375 30.4656 70.1706 32.1912 64.3798 35.6636C51.5756 43.3459 43.6366 58.8445 42.0254 79.3083C38.5882 122.958 65.0443 176.21 101 198.016C118.894 208.868 136.239 210.351 149.84 202.192C162.644 194.511 170.583 179.011 172.195 158.548C175.632 114.898 149.176 61.6453 113.22 39.8394C102.944 33.6075 92.8473 30.4656 83.5382 30.4656ZM130.683 208.045C121.276 208.045 111.086 204.876 100.721 198.59C64.5799 176.671 37.9879 123.136 41.443 79.2506C43.0711 58.5611 51.1196 42.8765 64.1039 35.0884C77.8854 26.8215 95.4262 28.3048 113.499 39.2654C149.64 61.1842 176.232 114.719 172.777 158.605C171.149 179.294 163.1 194.979 150.116 202.767C144.239 206.292 137.677 208.045 130.683 208.045Z" fill="url(#paint10_linear_401_52)"/>
<path d="M78.632 28.9153C68.6637 28.9153 59.7716 32.1053 52.6223 38.4102C40.1846 49.3778 34.4475 68.3171 36.4662 91.7357C40.549 139.114 75.6149 189.809 114.633 204.746C133.049 211.795 149.728 209.913 161.598 199.446C174.035 188.478 179.772 169.54 177.755 146.12C173.671 98.7416 138.605 48.0463 99.5869 33.1099C92.2639 30.3056 85.2125 28.9153 78.632 28.9153ZM135.591 209.622C128.941 209.624 121.827 208.219 114.436 205.39C75.2127 190.376 39.9635 139.42 35.8586 91.8015C33.8199 68.143 39.6391 48.992 52.2443 37.875C64.2819 27.2591 81.1646 25.337 99.7838 32.4653C139.007 47.4793 174.256 98.4358 178.361 146.054C180.4 169.712 174.581 188.863 161.976 199.98C154.717 206.382 145.692 209.622 135.591 209.622Z" fill="url(#paint11_linear_401_52)"/>
<path d="M75.0484 28.2201C61.1648 28.2201 49.4295 33.5345 41.364 43.6541C29.9236 58.0082 26.9234 80.8398 33.1333 106.292C45.2351 155.901 88.3128 201.871 129.16 208.767C147.399 211.846 162.916 206.674 172.856 194.201C184.296 179.847 187.297 157.016 181.087 131.563C168.984 81.9549 125.907 35.9847 85.0599 29.0882C81.6195 28.5083 78.275 28.2201 75.0484 28.2201ZM139.176 210.346C135.915 210.346 132.539 210.055 129.065 209.47C87.9926 202.534 44.6822 156.333 32.5194 106.479C26.2526 80.7904 29.3033 57.7188 40.8891 43.1812C50.9764 30.5244 66.6986 25.27 85.1546 28.386C126.227 35.3213 169.538 81.522 181.701 131.376C187.967 157.065 184.917 180.137 173.331 194.674C165.142 204.949 153.239 210.346 139.176 210.346Z" fill="url(#paint12_linear_401_52)"/>
<path d="M144.1 209.693L144.115 210.062L144.1 209.693C161.6 208.8 175.557 200.435 183.4 186.135C193.352 167.992 192.794 142.157 181.869 115.254C161.515 65.1282 111.395 26.0593 70.1201 28.1625C52.6202 29.0553 38.6629 37.421 30.8197 51.721C20.8693 69.8628 21.4264 95.6986 32.3509 122.601C52.7045 172.728 102.836 211.8 144.1 209.693ZM140.898 210.514C100.034 210.514 51.6746 171.985 31.7464 122.908C20.7303 95.7774 20.1869 69.6898 30.2542 51.334C38.2164 36.8187 52.3633 28.3271 70.0906 27.4238C111.594 25.3065 162.018 64.5707 182.474 114.947C193.49 142.078 194.033 168.166 183.966 186.521C176.004 201.037 161.857 209.528 144.13 210.432C143.058 210.487 141.98 210.514 140.898 210.514Z" fill="url(#paint13_linear_401_52)"/>
<path d="M73.8742 28.0707C67.4347 28.0707 61.2016 28.9012 55.3045 30.6338C38.7166 35.5119 26.9781 46.7147 21.3589 63.0309C13.7916 85.0074 18.5346 113.13 34.3706 140.189C62.9097 188.952 118.779 219.022 158.915 207.222C175.503 202.344 187.242 191.141 192.861 174.825C200.428 152.848 195.686 124.726 179.849 97.6665C155.503 56.0673 111.264 28.0707 73.8742 28.0707ZM140.376 210.552C102.749 210.552 58.2636 182.423 33.7925 140.612C17.8322 113.343 13.0661 84.965 20.7145 62.7533C26.4158 46.196 38.3164 34.832 55.1296 29.8881C95.5294 18.0076 151.739 48.2239 180.427 97.243C196.388 124.513 201.154 152.892 193.505 175.102C187.804 191.66 175.903 203.025 159.091 207.967C153.151 209.714 146.862 210.552 140.376 210.552Z" fill="url(#paint14_linear_401_52)"/>
<path d="M77.006 27.6437C63.9649 27.6437 51.6903 30.5526 41.1913 36.6999C26.0735 45.5526 16.5233 59.8455 13.5726 78.0344C9.43827 103.518 18.8379 132.843 39.36 158.49C65.4876 191.14 103.838 210.209 137.214 210.212C150.254 210.213 162.53 207.303 173.029 201.156C188.146 192.303 197.697 178.01 200.647 159.821C204.782 134.337 195.383 105.012 174.86 79.3659C148.732 46.7159 110.382 27.6437 77.006 27.6437ZM137.238 211.005C103.647 211.005 65.0853 191.845 38.823 159.025C18.1513 133.194 8.68955 103.621 12.8639 77.892C15.8556 59.4491 25.5354 44.9585 40.8564 35.9871C78.4992 13.9447 138.855 33.164 175.398 78.8307C196.069 104.663 205.531 134.235 201.356 159.965C198.365 178.406 188.684 192.897 173.363 201.868L173.196 201.512L173.363 201.868C162.774 208.069 150.387 211.005 137.238 211.005Z" fill="url(#paint15_linear_401_52)"/>
<path d="M82.8221 26.1357C61.8356 26.1357 42.4466 32.7711 28.3777 46.4383C15.0238 59.4115 8.08829 76.9157 8.32207 97.0572C8.64746 125.189 22.8849 154.276 47.3834 176.86C90.797 216.88 152.91 223.411 185.842 191.417L186.089 191.734L185.842 191.417C199.196 178.444 206.132 160.941 205.898 140.798C205.572 112.666 191.335 83.5805 166.837 60.996C141.968 38.0714 110.961 26.1357 82.8221 26.1357ZM131.4 212.546C103.081 212.546 71.905 200.552 46.9063 177.506C22.2372 154.765 7.89979 125.447 7.57123 97.0678C7.33429 76.6722 14.3593 58.9457 27.8848 45.8055C61.0827 13.5542 123.629 20.0779 167.315 60.349C191.984 83.09 206.321 112.409 206.649 140.788C206.886 161.183 199.861 178.91 186.335 192.05C172.136 205.845 152.567 212.546 131.4 212.546Z" fill="url(#paint16_linear_401_52)"/>
<path d="M90.3999 22.9092C60.4624 22.9092 33.0417 35.5754 17.4637 59.7973C6.2791 77.1875 2.55547 98.0194 6.69717 120.043C12.2131 149.378 31.0577 176.554 58.3973 194.601C79.1564 208.305 102.149 214.945 123.821 214.946C153.758 214.947 181.178 202.28 196.756 178.058C207.941 160.668 211.664 139.836 207.523 117.813C202.007 88.4774 183.162 61.3018 155.823 43.2541C135.064 29.5505 112.071 22.9092 90.3999 22.9092ZM123.806 215.812C101.996 215.812 78.8763 209.135 57.9982 195.354C30.4701 177.182 11.4918 149.798 5.93054 120.223C1.80253 98.2711 5.67254 76.6299 16.8276 59.2857C43.9124 17.1737 106.444 9.64311 156.222 42.5013C183.75 60.6737 202.728 88.0575 208.289 117.633C212.417 139.584 208.547 161.226 197.392 178.57L197.074 178.315L197.392 178.57C181.668 203.019 153.993 215.812 123.806 215.812Z" fill="url(#paint17_linear_401_52)"/>
<path d="M97.9493 17.6042C58.689 17.6042 23.0755 39.4971 9.0297 76.5828C0.75999 98.4205 1.03273 123.175 9.80054 146.286C20.6787 174.96 43.4354 198.54 72.2346 210.978C126.321 234.337 185.963 212.039 205.19 161.273C213.46 139.435 213.187 114.68 204.419 91.5698C193.541 62.8957 170.785 39.3159 141.985 26.878C127.411 20.5837 112.431 17.6042 97.9493 17.6042ZM116.26 221.162C101.681 221.162 86.6078 218.163 71.9397 211.829C42.9362 199.302 20.0132 175.542 9.0476 146.641C0.194495 123.301 -0.0793016 98.2946 8.27781 76.2276C27.6742 25.0124 87.7862 2.49133 142.28 26.0275C171.284 38.5537 194.207 62.3134 205.171 91.2146C214.026 114.554 214.299 139.561 205.942 161.628C191.767 199.058 155.843 221.162 116.26 221.162Z" fill="url(#paint18_linear_401_52)"/>
<path d="M103.784 10.2501C55.194 10.2501 12.5059 45.3761 3.61702 96.4573C-1.3229 124.848 4.79224 153.877 20.8367 178.199C36.8896 202.534 60.9584 219.241 88.6087 225.245C95.9507 226.838 103.261 227.605 110.436 227.605C159.026 227.608 201.714 192.479 210.603 141.398C220.805 82.7748 182.678 25.0018 125.611 12.6109C118.269 11.017 110.96 10.2501 103.784 10.2501ZM110.435 228.557C103.202 228.557 95.8485 227.785 88.4466 226.177C60.5857 220.129 36.3315 203.291 20.1522 178.764C3.96348 154.226 -2.20432 124.93 2.78194 96.2749C13.0725 37.1375 68.2456 -0.812851 125.773 11.6781C183.3 24.1678 221.73 82.4419 211.438 141.581L211.021 141.49L211.438 141.581C202.471 193.11 159.419 228.557 110.435 228.557Z" fill="url(#paint19_linear_401_52)"/>
<path d="M107.11 1.18213C48.9861 1.18213 1.69828 54.003 1.69828 118.928C1.69828 183.853 48.9861 236.673 107.11 236.673C165.235 236.673 212.522 183.853 212.522 118.928C212.522 54.003 165.235 1.18213 107.11 1.18213ZM107.11 237.665C48.4964 237.665 0.810547 184.399 0.810547 118.928C0.810547 53.456 48.4964 0.190521 107.11 0.190521C165.723 0.190521 213.409 53.456 213.409 118.928C213.409 184.399 165.723 237.665 107.11 237.665Z" fill="url(#paint20_linear_401_52)"/>
<defs>
<linearGradient id="paint0_linear_401_52" x1="60.478" y1="156.852" x2="150.371" y2="61.116" gradientUnits="userSpaceOnUse">
<stop stop-color="#D8A48F"/>
<stop offset="1" stop-color="#8FD4D8"/>
</linearGradient>
<linearGradient id="paint1_linear_401_52" x1="59.4055" y1="158.764" x2="153.954" y2="60.6975" gradientUnits="userSpaceOnUse">
<stop stop-color="#D8A48F"/>
<stop offset="1" stop-color="#8FD4D8"/>
</linearGradient>
<linearGradient id="paint2_linear_401_52" x1="58.8015" y1="161.502" x2="159.9" y2="62.1421" gradientUnits="userSpaceOnUse">
<stop stop-color="#D8A48F"/>
<stop offset="1" stop-color="#8FD4D8"/>
</linearGradient>
<linearGradient id="paint3_linear_401_52" x1="58.5944" y1="164.956" x2="167.46" y2="65.5682" gradientUnits="userSpaceOnUse">
<stop stop-color="#D8A48F"/>
<stop offset="1" stop-color="#8FD4D8"/>
</linearGradient>
<linearGradient id="paint4_linear_401_52" x1="58.5739" y1="168.946" x2="175.595" y2="70.5917" gradientUnits="userSpaceOnUse">
<stop stop-color="#D8A48F"/>
<stop offset="1" stop-color="#8FD4D8"/>
</linearGradient>
<linearGradient id="paint5_linear_401_52" x1="58.4762" y1="173.194" x2="183.333" y2="76.2762" gradientUnits="userSpaceOnUse">
<stop stop-color="#D8A48F"/>
<stop offset="1" stop-color="#8FD4D8"/>
</linearGradient>
<linearGradient id="paint6_linear_401_52" x1="57.9751" y1="177.431" x2="190.171" y2="81.2674" gradientUnits="userSpaceOnUse">
<stop stop-color="#D8A48F"/>
<stop offset="1" stop-color="#8FD4D8"/>
</linearGradient>
<linearGradient id="paint7_linear_401_52" x1="56.7086" y1="181.403" x2="196.04" y2="84.0456" gradientUnits="userSpaceOnUse">
<stop stop-color="#D8A48F"/>
<stop offset="1" stop-color="#8FD4D8"/>
</linearGradient>
<linearGradient id="paint8_linear_401_52" x1="54.4014" y1="184.878" x2="201.004" y2="83.3957" gradientUnits="userSpaceOnUse">
<stop stop-color="#D8A48F"/>
<stop offset="1" stop-color="#8FD4D8"/>
</linearGradient>
<linearGradient id="paint9_linear_401_52" x1="50.9742" y1="187.684" x2="204.935" y2="78.8109" gradientUnits="userSpaceOnUse">
<stop stop-color="#D8A48F"/>
<stop offset="1" stop-color="#8FD4D8"/>
</linearGradient>
<linearGradient id="paint10_linear_401_52" x1="46.5435" y1="189.794" x2="207.516" y2="70.6346" gradientUnits="userSpaceOnUse">
<stop stop-color="#D8A48F"/>
<stop offset="1" stop-color="#8FD4D8"/>
</linearGradient>
<linearGradient id="paint11_linear_401_52" x1="41.3272" y1="191.049" x2="207.965" y2="59.402" gradientUnits="userSpaceOnUse">
<stop stop-color="#D8A48F"/>
<stop offset="1" stop-color="#8FD4D8"/>
</linearGradient>
<linearGradient id="paint12_linear_401_52" x1="35.6976" y1="191.624" x2="206.124" y2="46.6188" gradientUnits="userSpaceOnUse">
<stop stop-color="#D8A48F"/>
<stop offset="1" stop-color="#8FD4D8"/>
</linearGradient>
<linearGradient id="paint13_linear_401_52" x1="29.9575" y1="191.758" x2="202.29" y2="33.6346" gradientUnits="userSpaceOnUse">
<stop stop-color="#D8A48F"/>
<stop offset="1" stop-color="#8FD4D8"/>
</linearGradient>
<linearGradient id="paint14_linear_401_52" x1="24.5116" y1="191.788" x2="197.526" y2="21.9044" gradientUnits="userSpaceOnUse">
<stop stop-color="#D8A48F"/>
<stop offset="1" stop-color="#8FD4D8"/>
</linearGradient>
<linearGradient id="paint15_linear_401_52" x1="19.694" y1="192.148" x2="193.495" y2="12.4264" gradientUnits="userSpaceOnUse">
<stop stop-color="#D8A48F"/>
<stop offset="1" stop-color="#8FD4D8"/>
</linearGradient>
<linearGradient id="paint16_linear_401_52" x1="15.7175" y1="193.373" x2="192.194" y2="5.72482" gradientUnits="userSpaceOnUse">
<stop stop-color="#D8A48F"/>
<stop offset="1" stop-color="#8FD4D8"/>
</linearGradient>
<linearGradient id="paint17_linear_401_52" x1="12.738" y1="195.971" x2="195.396" y2="2.17905" gradientUnits="userSpaceOnUse">
<stop stop-color="#D8A48F"/>
<stop offset="1" stop-color="#8FD4D8"/>
</linearGradient>
<linearGradient id="paint18_linear_401_52" x1="10.7942" y1="200.225" x2="203.811" y2="2.16106" gradientUnits="userSpaceOnUse">
<stop stop-color="#D8A48F"/>
<stop offset="1" stop-color="#8FD4D8"/>
</linearGradient>
<linearGradient id="paint19_linear_401_52" x1="9.77834" y1="206.106" x2="216.709" y2="6.01751" gradientUnits="userSpaceOnUse">
<stop stop-color="#D8A48F"/>
<stop offset="1" stop-color="#8FD4D8"/>
</linearGradient>
<linearGradient id="paint20_linear_401_52" x1="9.51579" y1="213.348" x2="232.4" y2="13.8118" gradientUnits="userSpaceOnUse">
<stop stop-color="#D8A48F"/>
<stop offset="1" stop-color="#8FD4D8"/>
</linearGradient>
</defs>
</svg>
